<svg width="50" height="50" viewBox="0 0 50 50" fill="none" xmlns="http://www.w3.org/2000/svg">
<path d="M25 6.89643V24.9999C25 25.4144 24.8354 25.8118 24.5424 26.1048C24.2493 26.3978 23.8519 26.5624 23.4375 26.5624C23.0231 26.5624 22.6257 26.3978 22.3326 26.1048C22.0396 25.8118 21.875 25.4144 21.875 24.9999V6.89643L18.293 10.4804C17.9998 10.7736 17.6021 10.9383 17.1875 10.9383C16.7729 10.9383 16.3752 10.7736 16.082 10.4804C15.7888 10.1872 15.6241 9.78958 15.6241 9.37495C15.6241 8.96032 15.7888 8.56267 16.082 8.26948L22.332 2.01948C22.4771 1.8742 22.6495 1.75895 22.8392 1.68032C23.0288 1.60169 23.2322 1.56122 23.4375 1.56122C23.6428 1.56122 23.8462 1.60169 24.0358 1.68032C24.2255 1.75895 24.3979 1.8742 24.543 2.01948L30.793 8.26948C31.0862 8.56267 31.2509 8.96032 31.2509 9.37495C31.2509 9.78958 31.0862 10.1872 30.793 10.4804C30.4998 10.7736 30.1021 10.9383 29.6875 10.9383C29.2729 10.9383 28.8752 10.7736 28.582 10.4804L25 6.89643ZM37.5 24.1445V18.7499C37.5 17.9211 37.1708 17.1263 36.5847 16.5402C35.9987 15.9542 35.2038 15.6249 34.375 15.6249H31.25C30.8356 15.6249 30.4382 15.7896 30.1451 16.0826C29.8521 16.3756 29.6875 16.773 29.6875 17.1874C29.6875 17.6019 29.8521 17.9993 30.1451 18.2923C30.4382 18.5853 30.8356 18.7499 31.25 18.7499H34.375V34.4531C33.4432 33.5012 32.196 32.9221 30.8676 32.8246C29.5391 32.727 28.2207 33.1177 27.1598 33.9232C26.099 34.7287 25.3686 35.8938 25.1058 37.1996C24.8429 38.5055 25.0658 39.8624 25.7324 41.0156L25.7793 41.0898L30.127 47.7304C30.3538 48.0772 30.7092 48.3197 31.1149 48.4045C31.5205 48.4893 31.9432 48.4095 32.29 48.1826C32.6368 47.9557 32.8793 47.6003 32.9641 47.1947C33.0489 46.789 32.9691 46.3663 32.7422 46.0195L28.4199 39.4199C28.1135 38.8788 28.0346 38.2382 28.2005 37.639C28.3665 37.0397 28.7636 36.531 29.3047 36.2246C29.8457 35.9182 30.4863 35.8392 31.0856 36.0052C31.6848 36.1711 32.1936 36.5683 32.5 37.1093C32.5137 37.1347 32.5293 37.1601 32.5449 37.1835L34.6309 40.3691C34.8152 40.6503 35.0854 40.8645 35.4013 40.9799C35.7171 41.0953 36.0617 41.1057 36.384 41.0097C36.7062 40.9136 36.9888 40.7161 37.1899 40.4466C37.391 40.1771 37.4997 39.8499 37.5 39.5136V28.1249C38.9727 29.4882 40.149 31.1402 40.9554 32.9779C41.7619 34.8156 42.1813 36.7997 42.1875 38.8066V46.875C42.1875 47.2893 42.3521 47.6868 42.6451 47.9798C42.9382 48.2728 43.3356 48.4375 43.75 48.4375C44.1644 48.4375 44.5618 48.2728 44.8549 47.9798C45.1479 47.6868 45.3125 47.2893 45.3125 46.875V38.7988C45.3037 35.9043 44.5872 33.0559 43.2255 30.5017C41.8638 27.9476 39.8982 25.7651 37.5 24.1445ZM15.625 15.6249H12.5C11.6712 15.6249 10.8763 15.9542 10.2903 16.5402C9.70424 17.1263 9.375 17.9211 9.375 18.7499V39.0625C9.375 39.4768 9.53962 39.8743 9.83265 40.1673C10.1257 40.4603 10.5231 40.625 10.9375 40.625C11.3519 40.625 11.7493 40.4603 12.0424 40.1673C12.3354 39.8743 12.5 39.4768 12.5 39.0625V18.7499H15.625C16.0394 18.7499 16.4368 18.5853 16.7299 18.2923C17.0229 17.9993 17.1875 17.6019 17.1875 17.1874C17.1875 16.773 17.0229 16.3756 16.7299 16.0826C16.4368 15.7896 16.0394 15.6249 15.625 15.6249Z" fill="#478767"/>
</svg>
