<svg width="20" height="23" viewBox="0 0 20 23" fill="none" xmlns="http://www.w3.org/2000/svg">
<path d="M18.7571 5.26521C18.7571 7.27073 17.1257 8.90217 15.1201 8.90217C13.1146 8.90217 11.4832 7.27073 11.4832 5.26521C11.4832 3.25968 13.1146 1.62825 15.1201 1.62825C17.1257 1.62825 18.7571 3.25968 18.7571 5.26521ZM16.6788 10.7622C16.1593 10.8973 15.6397 10.9804 15.1201 10.9804C13.6052 10.9777 12.1531 10.3747 11.0819 9.30345C10.0107 8.23223 9.40766 6.78014 9.40492 5.26521C9.40492 3.73768 10.0076 2.35564 10.9636 1.3269C10.775 1.09574 10.5373 0.909554 10.2676 0.781921C9.99797 0.654289 9.70324 0.588421 9.40492 0.589117C8.26187 0.589117 7.32665 1.52433 7.32665 2.66738V2.96873C4.24043 3.88316 2.131 6.71999 2.131 9.9413V16.1761L0.0527344 18.2543V19.2935H18.7571V18.2543L16.6788 16.1761V10.7622ZM9.40492 22.4109C10.5584 22.4109 11.4832 21.486 11.4832 20.3326H7.32665C7.32665 20.8838 7.54561 21.4124 7.93536 21.8022C8.32511 22.1919 8.85373 22.4109 9.40492 22.4109Z" fill="white"/>
<circle cx="15.3223" cy="5.15063" r="4" fill="#BD0D0D" fill-opacity="0.97"/>
</svg>
