<svg width="430" height="234" viewBox="0 0 430 234" fill="none" xmlns="http://www.w3.org/2000/svg">
<g clip-path="url(#clip0_26_9536)">
<path d="M0 0H430V214C430 225.046 421.046 234 410 234H20C8.95432 234 0 225.046 0 214V0Z" fill="#478767"/>
<rect x="-136.829" y="-671" width="635" height="635" rx="61" transform="rotate(19.4238 -136.829 -671)" fill="black" fill-opacity="0.15"/>
<rect x="354.192" y="180" width="14.6264" height="14.6264" rx="4" transform="rotate(20.792 354.192 180)" fill="#478767"/>
<path d="M45.8786 19.7231C43.2805 19.7231 41.4294 21.4995 41.4294 23.9316V23.9482C41.4294 26.2227 43.0397 27.8994 45.3391 27.8994C46.9826 27.8994 48.0285 27.061 48.4684 26.1147H48.6345C48.6345 26.2061 48.6262 26.2974 48.6262 26.3887C48.5349 28.6797 47.7297 30.5391 45.8288 30.5391C44.7746 30.5391 44.0358 29.9912 43.7204 29.1528L43.6955 29.0698H41.5871L41.6037 29.1611C41.9855 30.9956 43.6291 32.2988 45.8288 32.2988C48.842 32.2988 50.6599 29.9082 50.6599 25.874V25.8574C50.6599 21.541 48.4352 19.7231 45.8786 19.7231ZM45.8703 26.2559C44.509 26.2559 43.5212 25.2598 43.5212 23.8735V23.8569C43.5212 22.5205 44.5754 21.4663 45.8952 21.4663C47.2233 21.4663 48.2609 22.5371 48.2609 23.9067V23.9233C48.2609 25.2764 47.2233 26.2559 45.8703 26.2559ZM54.0204 24.2388C54.7841 24.2388 55.3402 23.6577 55.3402 22.9272C55.3402 22.1885 54.7841 21.6157 54.0204 21.6157C53.265 21.6157 52.7006 22.1885 52.7006 22.9272C52.7006 23.6577 53.265 24.2388 54.0204 24.2388ZM54.0204 30.3979C54.7841 30.3979 55.3402 29.8252 55.3402 29.0864C55.3402 28.3477 54.7841 27.7749 54.0204 27.7749C53.265 27.7749 52.7006 28.3477 52.7006 29.0864C52.7006 29.8252 53.265 30.3979 54.0204 30.3979ZM63.1915 32H65.2418V29.7007H66.8522V27.9326H65.2418V20.022H62.212C60.5851 22.4956 58.8834 25.2515 57.3312 27.9492V29.7007H63.1915V32ZM59.3233 27.9824V27.8579C60.4855 25.8242 61.8717 23.6079 63.1002 21.7319H63.2247V27.9824H59.3233ZM71.408 32H73.5496V20.022H71.4163L68.2869 22.2217V24.2388L71.2669 22.1304H71.408V32Z" fill=""/>
</g>
<defs>
<clipPath id="clip0_26_9536">
<path d="M0 0H430V214C430 225.046 421.046 234 410 234H20C8.95432 234 0 225.046 0 214V0Z" fill="white"/>
</clipPath>
</defs>
</svg>
