<svg width="29" height="37" viewBox="0 0 29 37" fill="none" xmlns="http://www.w3.org/2000/svg">
<path d="M12.9529 4.97522V18.8773C12.9529 19.1956 12.8265 19.5008 12.6015 19.7258C12.3765 19.9508 12.0713 20.0772 11.753 20.0772C11.4348 20.0772 11.1296 19.9508 10.9046 19.7258C10.6796 19.5008 10.5532 19.1956 10.5532 18.8773V4.97522L7.80243 7.72745C7.57728 7.95259 7.27192 8.07908 6.95351 8.07908C6.63511 8.07908 6.32974 7.95259 6.1046 7.72745C5.87945 7.5023 5.75296 7.19693 5.75296 6.87853C5.75296 6.56012 5.87945 6.25476 6.1046 6.02961L10.9041 1.23008C11.0156 1.11852 11.1479 1.03002 11.2936 0.969637C11.4392 0.909254 11.5954 0.878174 11.753 0.878174C11.9107 0.878174 12.0669 0.909254 12.2125 0.969637C12.3582 1.03002 12.4905 1.11852 12.602 1.23008L17.4015 6.02961C17.6266 6.25476 17.7531 6.56012 17.7531 6.87853C17.7531 7.19693 17.6266 7.5023 17.4015 7.72745C17.1763 7.95259 16.871 8.07908 16.5526 8.07908C16.2342 8.07908 15.9288 7.95259 15.7037 7.72745L12.9529 4.97522ZM22.552 18.2204V14.0778C22.552 13.4414 22.2991 12.831 21.8491 12.3809C21.3991 11.9309 20.7887 11.6781 20.1522 11.6781H17.7525C17.4342 11.6781 17.129 11.8045 16.904 12.0295C16.679 12.2545 16.5526 12.5597 16.5526 12.8779C16.5526 13.1962 16.679 13.5014 16.904 13.7264C17.129 13.9514 17.4342 14.0778 17.7525 14.0778H20.1522V26.1366C19.4367 25.4057 18.4789 24.961 17.4588 24.8861C16.4386 24.8111 15.4262 25.1111 14.6115 25.7297C13.7969 26.3483 13.236 27.243 13.0341 28.2458C12.8323 29.2486 13.0034 30.2906 13.5154 31.1761L13.5514 31.2331L16.89 36.3326C17.0643 36.599 17.3372 36.7851 17.6487 36.8503C17.9602 36.9154 18.2848 36.8541 18.5511 36.6799C18.8174 36.5056 19.0036 36.2327 19.0688 35.9212C19.1339 35.6097 19.0726 35.2851 18.8983 35.0188L15.5792 29.9508C15.3439 29.5353 15.2833 29.0433 15.4107 28.5832C15.5381 28.123 15.8431 27.7323 16.2586 27.497C16.6741 27.2617 17.166 27.2011 17.6262 27.3285C18.0864 27.4559 18.4771 27.7609 18.7124 28.1764C18.7229 28.1959 18.7349 28.2154 18.7469 28.2334L20.3487 30.6797C20.4903 30.8956 20.6978 31.0601 20.9403 31.1487C21.1828 31.2374 21.4475 31.2454 21.6949 31.1716C21.9424 31.0978 22.1594 30.9462 22.3138 30.7392C22.4682 30.5322 22.5518 30.281 22.552 30.0228V21.2771C23.6829 22.324 24.5862 23.5926 25.2055 25.0038C25.8248 26.4151 26.1469 27.9387 26.1516 29.4798V35.6757C26.1516 35.9939 26.278 36.2991 26.5031 36.5241C26.7281 36.7492 27.0333 36.8756 27.3515 36.8756C27.6697 36.8756 27.9749 36.7492 28.2 36.5241C28.425 36.2991 28.5514 35.9939 28.5514 35.6757V29.4738C28.5446 27.2511 27.9944 25.0637 26.9487 23.1023C25.9031 21.1409 24.3936 19.4649 22.552 18.2204ZM5.75363 11.6781H3.35387C2.71741 11.6781 2.10702 11.9309 1.65698 12.3809C1.20693 12.831 0.954102 13.4414 0.954102 14.0778V29.6763C0.954102 29.9945 1.08052 30.2997 1.30554 30.5247C1.53056 30.7498 1.83576 30.8762 2.15398 30.8762C2.47221 30.8762 2.77741 30.7498 3.00243 30.5247C3.22745 30.2997 3.35387 29.9945 3.35387 29.6763V14.0778H5.75363C6.07186 14.0778 6.37705 13.9514 6.60207 13.7264C6.8271 13.5014 6.95351 13.1962 6.95351 12.8779C6.95351 12.5597 6.8271 12.2545 6.60207 12.0295C6.37705 11.8045 6.07186 11.6781 5.75363 11.6781Z" fill="#478767"/>
</svg>
