<svg width="32" height="28" viewBox="0 0 32 28" fill="none" xmlns="http://www.w3.org/2000/svg">
<path d="M7.54782 27.0005H2.63676C2.42175 27.0005 2.20885 26.9584 2.01022 26.8767C1.81158 26.795 1.63112 26.6753 1.47912 26.5243C1.32712 26.3734 1.20657 26.1942 1.12437 25.997C1.04216 25.7998 0.999897 25.5884 1 25.375V7.50098M14.0964 14.0006H23.9185M14.0964 7.50098H23.9185" stroke="#478767" stroke-width="2" stroke-linecap="round" stroke-linejoin="round"/>
<path d="M28.8262 1H9.18198C8.9669 0.999898 8.75392 1.04187 8.55519 1.12352C8.35647 1.20518 8.17591 1.3249 8.02383 1.47586C7.87175 1.62682 7.75113 1.80606 7.66887 2.00331C7.58662 2.20057 7.54433 2.41199 7.54443 2.62548V18.8748C7.54443 19.0882 7.5868 19.2996 7.6691 19.4967C7.7514 19.6939 7.87204 19.873 8.02411 20.0239C8.17618 20.1748 8.3567 20.2945 8.55538 20.3761C8.75405 20.4577 8.96697 20.4996 9.18198 20.4995H14.093V25.3744L22.2776 20.4995H28.8262C29.2603 20.4995 29.6766 20.3283 29.9836 20.0236C30.2905 19.719 30.463 19.3057 30.463 18.8748V2.62548C30.4631 2.41205 30.4208 2.2007 30.3386 2.00349C30.2564 1.80629 30.1359 1.62709 29.9839 1.47614C29.8319 1.32519 29.6514 1.20544 29.4528 1.12375C29.2541 1.04205 29.0412 1 28.8262 1Z" stroke="#478767" stroke-width="2" stroke-linecap="round" stroke-linejoin="round"/>
</svg>
