<svg width="83" height="46" viewBox="0 0 83 46" fill="none" xmlns="http://www.w3.org/2000/svg">
<path d="M5.82875 42.3111C5.19104 42.3111 4.59151 42.1854 4.03016 41.9339C3.4688 41.6779 2.9748 41.3276 2.54817 40.883C2.12603 40.4339 1.79371 39.913 1.5512 39.3202C1.31318 38.7274 1.19418 38.0942 1.19418 37.4206C1.19418 36.747 1.31318 36.1137 1.5512 35.5209C1.79371 34.9282 2.12603 34.4095 2.54817 33.9649C2.9748 33.5158 3.4688 33.1655 4.03016 32.914C4.59151 32.658 5.19104 32.53 5.82875 32.53C6.59219 32.53 7.29501 32.7074 7.93721 33.0622C8.5794 33.417 9.11157 33.8885 9.53371 34.4768L8.28749 35.1437C7.99559 34.7755 7.63407 34.4813 7.20295 34.2613C6.77183 34.0412 6.31376 33.9312 5.82875 33.9312C5.37966 33.9312 4.95976 34.0232 4.56906 34.2074C4.17835 34.3915 3.8348 34.643 3.53841 34.9618C3.24201 35.2807 3.01073 35.6512 2.84457 36.0733C2.67841 36.4955 2.59533 36.9446 2.59533 37.4206C2.59533 37.9011 2.67841 38.3524 2.84457 38.7746C3.01073 39.1922 3.24201 39.5627 3.53841 39.8861C3.83929 40.2049 4.18509 40.4564 4.5758 40.6405C4.9665 40.8202 5.38415 40.91 5.82875 40.91C6.32274 40.91 6.78305 40.8 7.20969 40.5799C7.64081 40.3554 8.00008 40.059 8.28749 39.6907L9.53371 40.3711C9.11157 40.9594 8.5794 41.4309 7.93721 41.7857C7.29501 42.136 6.59219 42.3111 5.82875 42.3111ZM16.9071 37.9123V42.136H15.506V38.2559C15.506 37.955 15.4319 37.6811 15.2837 37.4341C15.14 37.1871 14.9446 36.9917 14.6976 36.848C14.4551 36.6998 14.1812 36.6257 13.8758 36.6257C13.5794 36.6257 13.3077 36.6998 13.0607 36.848C12.8137 36.9917 12.6161 37.1871 12.4679 37.4341C12.3197 37.6811 12.2456 37.955 12.2456 38.2559V42.136H10.8444V32.0315H12.2456V36.1137C12.4791 35.8353 12.7665 35.6153 13.1078 35.4536C13.4491 35.2919 13.8174 35.2111 14.2126 35.2111C14.7111 35.2111 15.1646 35.3323 15.5733 35.5748C15.982 35.8173 16.3053 36.1429 16.5433 36.5516C16.7859 36.9603 16.9071 37.4138 16.9071 37.9123ZM23.361 35.3997H24.7621V42.136H23.3543L23.3004 41.1592C23.1028 41.505 22.8356 41.7835 22.4988 41.9945C22.1619 42.2056 21.7645 42.3111 21.3064 42.3111C20.8124 42.3111 20.3476 42.2191 19.912 42.0349C19.4764 41.8463 19.0924 41.5859 18.7601 41.2535C18.4323 40.9212 18.1763 40.5395 17.9922 40.1084C17.808 39.6727 17.716 39.2057 17.716 38.7072C17.716 38.2267 17.8058 37.7754 17.9854 37.3532C18.1651 36.9266 18.4143 36.5538 18.7332 36.235C19.052 35.9161 19.4203 35.6669 19.8379 35.4873C20.2601 35.3031 20.7114 35.2111 21.1919 35.2111C21.6814 35.2111 22.1125 35.3233 22.4853 35.5479C22.8625 35.7679 23.1746 36.0509 23.4216 36.3967L23.361 35.3997ZM21.2727 40.9571C21.6679 40.9571 22.0137 40.8606 22.3101 40.6675C22.6065 40.4699 22.8356 40.2049 22.9972 39.8726C23.1634 39.5403 23.2465 39.172 23.2465 38.7678C23.2465 38.3592 23.1634 37.9887 22.9972 37.6564C22.8311 37.324 22.5998 37.0613 22.3034 36.8682C22.0115 36.6706 21.6679 36.5718 21.2727 36.5718C20.882 36.5718 20.525 36.6706 20.2017 36.8682C19.8783 37.0658 19.6224 37.3308 19.4337 37.6631C19.2451 37.9954 19.1508 38.3637 19.1508 38.7678C19.1508 39.1765 19.2474 39.547 19.4405 39.8793C19.6381 40.2072 19.8963 40.4699 20.2151 40.6675C20.5385 40.8606 20.891 40.9571 21.2727 40.9571ZM29.6631 36.8008H28.2485L28.2418 42.136H26.8406L26.8473 36.8008H25.7763V35.3997H26.8473L26.8406 33.2845H28.2418L28.2485 35.3997H29.6631V36.8008ZM37.4671 42.3111C36.9507 42.3111 36.4544 42.2303 35.9784 42.0686C35.5024 41.907 35.087 41.6757 34.7322 41.3748C34.3774 41.0694 34.1237 40.7079 33.971 40.2902L35.2846 39.7985C35.3609 40.0141 35.5068 40.2072 35.7224 40.3778C35.9425 40.544 36.2029 40.6742 36.5038 40.7685C36.8092 40.8628 37.1303 40.91 37.4671 40.91C37.8264 40.91 38.1632 40.8516 38.4776 40.7348C38.7964 40.6181 39.0524 40.4564 39.2455 40.2498C39.4431 40.0432 39.5419 39.8007 39.5419 39.5223C39.5419 39.2349 39.4386 38.9991 39.232 38.815C39.0299 38.6309 38.7695 38.4849 38.4506 38.3771C38.1362 38.2694 37.8084 38.1885 37.4671 38.1346C36.807 38.0268 36.2142 37.8697 35.6887 37.6631C35.1678 37.4565 34.7546 37.1668 34.4493 36.7941C34.1484 36.4214 33.9979 35.9364 33.9979 35.3391C33.9979 34.7777 34.1573 34.2882 34.4762 33.8706C34.7995 33.4529 35.2239 33.1296 35.7494 32.9005C36.2793 32.667 36.8519 32.5502 37.4671 32.5502C37.9746 32.5502 38.4641 32.6311 38.9356 32.7927C39.4117 32.9499 39.8293 33.1812 40.1886 33.4866C40.5523 33.7875 40.8128 34.1535 40.97 34.5846L39.6429 35.0629C39.5666 34.8428 39.4206 34.652 39.2051 34.4903C38.9895 34.3241 38.729 34.1939 38.4237 34.0996C38.1228 34.0053 37.8039 33.9581 37.4671 33.9581C37.1078 33.9536 36.771 34.012 36.4567 34.1333C36.1468 34.25 35.8931 34.4117 35.6955 34.6183C35.4979 34.8249 35.3991 35.0651 35.3991 35.3391C35.3991 35.6759 35.4911 35.9319 35.6753 36.107C35.8594 36.2821 36.1064 36.4124 36.4162 36.4977C36.7306 36.5785 37.0809 36.6526 37.4671 36.72C38.0868 36.8188 38.6594 36.9827 39.1849 37.2118C39.7148 37.4408 40.1392 37.7462 40.458 38.1279C40.7814 38.5051 40.943 38.9699 40.943 39.5223C40.943 40.0792 40.7814 40.5687 40.458 40.9908C40.1392 41.4085 39.7148 41.7341 39.1849 41.9676C38.6594 42.1966 38.0868 42.3111 37.4671 42.3111ZM42.0593 39.6099V35.3997H43.4604V39.2663C43.4604 39.5672 43.5345 39.8412 43.6827 40.0882C43.8309 40.3352 44.0285 40.5327 44.2755 40.6809C44.5225 40.8247 44.7942 40.8965 45.0906 40.8965C45.3915 40.8965 45.6632 40.8247 45.9057 40.6809C46.1527 40.5327 46.348 40.3352 46.4917 40.0882C46.6399 39.8412 46.714 39.5672 46.714 39.2663V35.3997H48.1152L48.1219 42.136H46.7208L46.714 41.4085C46.485 41.6869 46.1998 41.907 45.8585 42.0686C45.5172 42.2303 45.1512 42.3111 44.7605 42.3111C44.262 42.3111 43.8084 42.1899 43.3998 41.9474C42.9911 41.7049 42.6655 41.3793 42.423 40.9706C42.1805 40.5619 42.0593 40.1084 42.0593 39.6099ZM50.624 45.5041H49.2229V35.3997H50.624V36.3899C50.8486 36.0441 51.136 35.7635 51.4863 35.5479C51.8366 35.3323 52.2497 35.2246 52.7258 35.2246C53.2153 35.2246 53.6733 35.3166 54.1 35.5007C54.5311 35.6849 54.9083 35.9408 55.2317 36.2687C55.555 36.592 55.8087 36.967 55.9929 37.3936C56.177 37.8203 56.269 38.2783 56.269 38.7678C56.269 39.2573 56.177 39.7177 55.9929 40.1488C55.8087 40.5799 55.555 40.9594 55.2317 41.2872C54.9083 41.6106 54.5311 41.8643 54.1 42.0484C53.6733 42.2325 53.2153 42.3246 52.7258 42.3246C52.2497 42.3246 51.8366 42.2168 51.4863 42.0013C51.136 41.7812 50.8486 41.5005 50.624 41.1592V45.5041ZM52.7123 36.5785C52.3216 36.5785 51.978 36.6773 51.6816 36.8749C51.3852 37.0725 51.154 37.3375 50.9878 37.6698C50.8216 37.9977 50.7386 38.3637 50.7386 38.7678C50.7386 39.172 50.8216 39.5403 50.9878 39.8726C51.154 40.2049 51.3852 40.4699 51.6816 40.6675C51.978 40.8651 52.3216 40.9639 52.7123 40.9639C53.0985 40.9639 53.4533 40.8673 53.7766 40.6742C54.1 40.4766 54.3582 40.2117 54.5513 39.8793C54.7444 39.547 54.841 39.1765 54.841 38.7678C54.841 38.3682 54.7444 38.0021 54.5513 37.6698C54.3627 37.3375 54.1067 37.0725 53.7834 36.8749C53.46 36.6773 53.103 36.5785 52.7123 36.5785ZM58.7681 45.5041H57.367V35.3997H58.7681V36.3899C58.9926 36.0441 59.2801 35.7635 59.6304 35.5479C59.9806 35.3323 60.3938 35.2246 60.8698 35.2246C61.3593 35.2246 61.8174 35.3166 62.244 35.5007C62.6752 35.6849 63.0524 35.9408 63.3757 36.2687C63.6991 36.592 63.9528 36.967 64.1369 37.3936C64.3211 37.8203 64.4131 38.2783 64.4131 38.7678C64.4131 39.2573 64.3211 39.7177 64.1369 40.1488C63.9528 40.5799 63.6991 40.9594 63.3757 41.2872C63.0524 41.6106 62.6752 41.8643 62.244 42.0484C61.8174 42.2325 61.3593 42.3246 60.8698 42.3246C60.3938 42.3246 59.9806 42.2168 59.6304 42.0013C59.2801 41.7812 58.9926 41.5005 58.7681 41.1592V45.5041ZM60.8564 36.5785C60.4657 36.5785 60.1221 36.6773 59.8257 36.8749C59.5293 37.0725 59.298 37.3375 59.1319 37.6698C58.9657 37.9977 58.8826 38.3637 58.8826 38.7678C58.8826 39.172 58.9657 39.5403 59.1319 39.8726C59.298 40.2049 59.5293 40.4699 59.8257 40.6675C60.1221 40.8651 60.4657 40.9639 60.8564 40.9639C61.2426 40.9639 61.5973 40.8673 61.9207 40.6742C62.244 40.4766 62.5023 40.2117 62.6954 39.8793C62.8885 39.547 62.985 39.1765 62.985 38.7678C62.985 38.3682 62.8885 38.0021 62.6954 37.6698C62.5067 37.3375 62.2508 37.0725 61.9274 36.8749C61.6041 36.6773 61.2471 36.5785 60.8564 36.5785ZM68.4618 42.3111C67.8421 42.3111 67.2763 42.1517 66.7643 41.8329C66.2568 41.514 65.8504 41.0874 65.545 40.553C65.2441 40.0141 65.0937 39.419 65.0937 38.7678C65.0937 38.2738 65.1813 37.8135 65.3564 37.3869C65.5316 36.9558 65.7718 36.5785 66.0772 36.2552C66.3871 35.9274 66.7463 35.6714 67.155 35.4873C67.5637 35.3031 67.9993 35.2111 68.4618 35.2111C69.0816 35.2111 69.6452 35.3705 70.1526 35.6894C70.6646 36.0082 71.071 36.4371 71.3719 36.976C71.6773 37.5149 71.83 38.1122 71.83 38.7678C71.83 39.2573 71.7424 39.7154 71.5673 40.142C71.3921 40.5687 71.1496 40.9459 70.8397 41.2737C70.5344 41.5971 70.1773 41.8508 69.7687 42.0349C69.3645 42.2191 68.9289 42.3111 68.4618 42.3111ZM68.4618 40.91C68.8346 40.91 69.1691 40.8112 69.4655 40.6136C69.7619 40.416 69.9955 40.1555 70.1661 39.8322C70.3413 39.5043 70.4288 39.1496 70.4288 38.7678C70.4288 38.3771 70.339 38.0179 70.1594 37.69C69.9842 37.3622 69.7485 37.1017 69.4521 36.9086C69.1557 36.711 68.8256 36.6122 68.4618 36.6122C68.0936 36.6122 67.759 36.711 67.4581 36.9086C67.1617 37.1062 66.926 37.3689 66.7508 37.6968C66.5802 38.0246 66.4948 38.3816 66.4948 38.7678C66.4948 39.1675 66.5847 39.529 66.7643 39.8524C66.9439 40.1757 67.1819 40.4339 67.4783 40.6271C67.7792 40.8157 68.1071 40.91 68.4618 40.91ZM72.9183 42.136V35.3997H74.3195V36.1137C74.553 35.8353 74.8404 35.6153 75.1817 35.4536C75.523 35.2919 75.8913 35.2111 76.2865 35.2111C76.538 35.2111 76.7872 35.2448 77.0342 35.3121L76.4751 36.7267C76.2999 36.6594 76.1248 36.6257 75.9496 36.6257C75.6533 36.6257 75.3816 36.6998 75.1346 36.848C74.8876 36.9917 74.69 37.1871 74.5418 37.4341C74.3936 37.6811 74.3195 37.955 74.3195 38.2559V42.136H72.9183ZM81.5405 36.8008H80.1258L80.1191 42.136H78.7179L78.7247 36.8008H77.6536V35.3997H78.7247L78.7179 33.2845H80.1191L80.1258 35.3997H81.5405V36.8008Z" fill="#52A67C"/>
<path d="M34.3696 19.0313H30.9765C30.828 19.0313 30.6809 19.0023 30.5437 18.9459C30.4064 18.8894 30.2817 18.8067 30.1767 18.7024C30.0717 18.5981 29.9884 18.4743 29.9316 18.338C29.8748 18.2018 29.8456 18.0558 29.8457 17.9083V5.55908M38.8941 10.0497H45.6802M38.8941 5.55908H45.6802" stroke="#52A67C" stroke-width="0.93408" stroke-linecap="round" stroke-linejoin="round"/>
<path d="M49.0708 1.06787H35.4986C35.35 1.0678 35.2028 1.0968 35.0655 1.15321C34.9282 1.20963 34.8035 1.29235 34.6984 1.39665C34.5933 1.50094 34.51 1.62478 34.4532 1.76106C34.3963 1.89735 34.3671 2.04342 34.3672 2.19092V13.4176C34.3672 13.5651 34.3965 13.7111 34.4533 13.8473C34.5102 13.9835 34.5935 14.1073 34.6986 14.2116C34.8037 14.3158 34.9284 14.3985 35.0657 14.4548C35.2029 14.5112 35.35 14.5402 35.4986 14.5401H38.8916V17.9082L44.5464 14.5401H49.0708C49.3707 14.5401 49.6584 14.4219 49.8705 14.2114C50.0825 14.0008 50.2017 13.7153 50.2017 13.4176V2.19092C50.2017 2.04346 50.1725 1.89744 50.1157 1.76119C50.059 1.62494 49.9757 1.50113 49.8706 1.39684C49.7656 1.29255 49.6409 1.20981 49.5037 1.15337C49.3665 1.09692 49.2194 1.06787 49.0708 1.06787Z" stroke="#52A67C" stroke-width="0.93408" stroke-linecap="round" stroke-linejoin="round"/>
</svg>
