<svg width="22" height="20" viewBox="0 0 22 20" fill="none" xmlns="http://www.w3.org/2000/svg">
<path d="M5.36961 19.0312H1.97654C1.82799 19.0312 1.6809 19.0022 1.54366 18.9457C1.40643 18.8893 1.28174 18.8066 1.17673 18.7023C1.07171 18.598 0.988426 18.4742 0.931627 18.3379C0.874829 18.2017 0.845632 18.0556 0.845703 17.9082V5.55896M9.89406 10.0495H16.6802M9.89406 5.55896H16.6802" stroke="#52A67C" stroke-width="0.93408" stroke-linecap="round" stroke-linejoin="round"/>
<path d="M20.0708 1.06775H6.49857C6.34998 1.06768 6.20282 1.09668 6.06553 1.15309C5.92823 1.20951 5.80348 1.29223 5.6984 1.39652C5.59333 1.50082 5.51 1.62465 5.45316 1.76094C5.39633 1.89723 5.36712 2.0433 5.36719 2.1908V13.4175C5.36719 13.565 5.39646 13.711 5.45332 13.8472C5.51018 13.9834 5.59353 14.1072 5.69859 14.2114C5.80366 14.3157 5.92839 14.3983 6.06565 14.4547C6.20291 14.5111 6.35002 14.5401 6.49857 14.54H9.89164V17.9081L15.5464 14.54H20.0708C20.3707 14.54 20.6584 14.4217 20.8705 14.2112C21.0825 14.0007 21.2017 13.7152 21.2017 13.4175V2.1908C21.2017 2.04334 21.1725 1.89732 21.1157 1.76107C21.059 1.62481 20.9757 1.50101 20.8706 1.39671C20.7656 1.29242 20.6409 1.20969 20.5037 1.15325C20.3665 1.0968 20.2194 1.06775 20.0708 1.06775Z" stroke="#52A67C" stroke-width="0.93408" stroke-linecap="round" stroke-linejoin="round"/>
</svg>
