<svg width="21" height="21" viewBox="0 0 21 21" fill="none" xmlns="http://www.w3.org/2000/svg">
<path d="M11.3574 14.7327C11.3574 13.9065 11.3574 13.4943 11.5401 13.1361C11.7237 12.7788 12.0648 12.525 12.747 12.0183L13.197 11.6835C14.259 10.8942 14.79 10.5 15.4074 10.5C16.0248 10.5 16.5558 10.8942 17.6178 11.6835L18.0678 12.0183C18.75 12.525 19.0911 12.7788 19.2738 13.1361C19.4565 13.4934 19.4574 13.9065 19.4574 14.7327V16.0602C19.4574 17.682 19.4574 18.4929 18.93 18.996C18.4026 19.4991 17.5548 19.5 15.8574 19.5H11.3574V14.7327Z" stroke="#478767" stroke-width="1.58654" stroke-linecap="round" stroke-linejoin="round"/>
<path d="M15.8574 10.5V4.2C15.8574 1.9662 15.3912 1.5 13.1574 1.5H9.55742C7.32362 1.5 6.85742 1.9662 6.85742 4.2V19.5" stroke="#478767" stroke-width="1.58654" stroke-linecap="round" stroke-linejoin="round"/>
<path d="M2.80703 14.1C3.55262 14.1 4.15703 13.2941 4.15703 12.3C4.15703 11.3059 3.55262 10.5 2.80703 10.5C2.06145 10.5 1.45703 11.3059 1.45703 12.3C1.45703 13.2941 2.06145 14.1 2.80703 14.1Z" stroke="#478767" stroke-width="1.58654" stroke-linecap="round" stroke-linejoin="round"/>
<path d="M2.80703 14.0999V19.4999M1.45703 19.4999H17.657M10.457 5.09985H12.257M10.457 7.79985H12.257M15.407 19.4999V17.6999" stroke="#478767" stroke-width="1.58654" stroke-linecap="round" stroke-linejoin="round"/>
</svg>
