<svg width="41" height="41" viewBox="0 0 41 41" fill="none" xmlns="http://www.w3.org/2000/svg">
<circle cx="20.5" cy="20.5" r="19.9605" fill="#F8F8F8" stroke="#F2F2F2" stroke-width="1.07895"/>
<path d="M21 30.75C18.5083 30.75 16.3373 29.9241 14.487 28.2724C12.6367 26.6207 11.5757 24.5577 11.3042 22.0833H13.525C13.7778 23.9611 14.613 25.5139 16.0308 26.7417C17.4485 27.9694 19.1049 28.5833 21 28.5833C23.1125 28.5833 24.9047 27.8477 26.3766 26.3766C27.8485 24.9054 28.5841 23.1132 28.5833 21C28.5826 18.8868 27.847 17.0949 26.3766 15.6245C24.9061 14.1541 23.1139 13.4181 21 13.4167C19.7542 13.4167 18.5896 13.7056 17.5062 14.2833C16.4229 14.8611 15.5111 15.6556 14.7708 16.6667H17.75V18.8333H11.25V12.3333H13.4167V14.8792C14.3375 13.7236 15.4616 12.8299 16.7891 12.1979C18.1165 11.566 19.5202 11.25 21 11.25C22.3542 11.25 23.6228 11.5075 24.8057 12.0224C25.9888 12.5374 27.0179 13.2321 27.8933 14.1067C28.7686 14.9814 29.4637 16.0105 29.9787 17.1943C30.4936 18.378 30.7507 19.6466 30.75 21C30.7493 22.3534 30.4922 23.622 29.9787 24.8057C29.4652 25.9895 28.77 27.0186 27.8933 27.8932C27.0165 28.7679 25.9873 29.463 24.8057 29.9787C23.6242 30.4943 22.3556 30.7514 21 30.75ZM24.0333 25.55L19.9167 21.4333V15.5833H22.0833V20.5667L25.55 24.0333L24.0333 25.55Z" fill="#478767"/>
</svg>
