<svg width="23" height="23" viewBox="0 0 23 23" fill="none" xmlns="http://www.w3.org/2000/svg">
<g clip-path="url(#clip0_26_9678)">
<path d="M11.5989 9.0028e-06C11.9755 9.0028e-06 12.3464 0.0244465 12.6914 0.0819465C13.0313 0.125731 13.3666 0.199818 13.6933 0.303321C14.0191 0.401071 14.3421 0.527092 14.6622 0.681384C14.9741 0.829447 15.2947 1.01057 15.6152 1.20751C16.1572 1.55251 16.6905 1.83138 17.2339 2.0542C18.3033 2.48321 19.4346 2.738 20.5847 2.80888C21.1664 2.85201 21.7687 2.87405 22.3916 2.87501V8.62501C22.3916 9.71655 22.2522 10.7544 21.9733 11.7386C21.7054 12.7107 21.3247 13.6481 20.8391 14.5317C20.3556 15.4141 19.7834 16.245 19.1314 17.0114C18.4698 17.7956 17.753 18.5315 16.9866 19.2136C16.2094 19.8969 15.3919 20.533 14.5386 21.1183C13.6837 21.7125 12.8241 22.2602 11.9597 22.7614L11.6147 22.9669L11.2697 22.7614C10.383 22.2482 9.51691 21.7001 8.67356 21.1183C7.81561 20.5392 6.99773 19.9029 6.2255 19.2136C5.45959 18.5315 4.74334 17.7955 4.08219 17.0114C3.43237 16.2414 2.85763 15.4111 2.36581 14.5317C1.88894 13.6439 1.5087 12.7075 1.23162 11.7386C0.952839 10.7244 0.814507 9.6768 0.820499 8.62501V2.87501C1.44342 2.87405 2.04621 2.85201 2.62887 2.80888C3.20348 2.76982 3.77433 2.68766 4.33662 2.56307C4.88719 2.43945 5.43775 2.27557 5.97969 2.0542C6.5419 1.82694 7.08104 1.5463 7.58969 1.21613C8.22219 0.805009 8.86331 0.501696 9.49581 0.301884C10.177 0.0932876 10.8865 -0.00854432 11.5989 9.0028e-06ZM20.9455 4.28807C19.8574 4.23482 18.7794 4.0529 17.7341 3.74613C16.6947 3.43527 15.7045 2.97889 14.793 2.39057C14.3201 2.08094 13.8069 1.83766 13.2678 1.66751C12.729 1.50501 12.1688 1.42457 11.6061 1.42888C11.0391 1.42543 10.4748 1.50584 9.93137 1.66751C9.39168 1.83258 8.87922 2.07622 8.4105 2.39057C7.49707 2.98152 6.5044 3.43986 5.46219 3.75188C4.44348 4.04801 3.37542 4.22913 2.258 4.29526V8.6322C2.258 9.58382 2.38162 10.4981 2.62887 11.3749C2.88098 12.2456 3.22807 13.0858 3.66387 13.8805C4.10508 14.6834 4.62515 15.4404 5.21637 16.1403C5.81581 16.8461 6.4555 17.503 7.1455 18.1269C7.8355 18.7508 8.55856 19.3286 9.31469 19.8605C10.0785 20.3933 10.8423 20.8807 11.6061 21.3224C12.388 20.868 13.1501 20.3803 13.8902 19.8605C14.6523 19.3301 15.3792 18.751 16.0666 18.1269C16.7566 17.503 17.3977 16.8461 17.9972 16.1403C18.5884 15.4404 19.1085 14.6834 19.5497 13.8805C19.9833 13.0867 20.3252 12.2461 20.5689 11.3749C20.8239 10.4832 20.9507 9.55968 20.9455 8.6322V4.28807Z" fill="#478767"/>
<path fill-rule="evenodd" clip-rule="evenodd" d="M16.9581 6.76945L16.3256 6.22607L15.7419 6.27639L9.47444 13.6766L7.33975 10.6291L6.76475 10.5314L6.09919 11.0072L6 11.5822L8.74419 15.5008L9.05613 15.6733L9.71306 15.7136L10.0494 15.5669L16.9998 7.35164L16.9581 6.76945Z" fill="#478767"/>
</g>
<defs>
<clipPath id="clip0_26_9678">
<rect width="23" height="23" fill="white"/>
</clipPath>
</defs>
</svg>
