<svg width="47" height="46" viewBox="0 0 47 46" fill="none" xmlns="http://www.w3.org/2000/svg">
<path d="M24.0612 3.75349C24.1832 3.79798 24.3051 3.84247 24.4307 3.88831C24.5623 3.93702 24.6938 3.98581 24.8253 4.03466C24.892 4.05936 24.9588 4.08405 25.0275 4.10949C25.3798 4.23995 25.7318 4.37108 26.0837 4.50277C26.4472 4.63866 26.8115 4.77213 27.1761 4.90507C27.4566 5.00785 27.7364 5.11242 28.016 5.21749C28.1501 5.26752 28.2845 5.31687 28.4191 5.36551C28.6068 5.43352 28.7935 5.50433 28.9801 5.57527C29.1398 5.63452 29.1398 5.63452 29.3028 5.69498C29.5427 5.84196 29.5427 5.84196 29.6306 6.0863C29.6441 6.36965 29.609 6.63515 29.5693 6.91539C29.3087 9.15358 30.0903 11.4555 31.4718 13.2014C32.9606 15.035 35.0078 16.0812 37.3285 16.4103C39.6788 16.6292 41.9128 15.9496 43.775 14.4959C44.5352 13.8593 45.1543 13.1734 45.7164 12.3568C45.7659 12.2889 45.8153 12.221 45.8663 12.1511C45.8993 12.1511 45.9324 12.1511 45.9664 12.1511C45.9664 13.7043 45.9664 15.2576 45.9664 16.8579C30.7975 16.8579 15.6286 16.8579 0 16.8579C0 15.2716 0 13.6853 0 12.0509C0.54009 11.8109 1.06134 11.5827 1.61209 11.3777C1.71377 11.3397 1.71377 11.3397 1.81751 11.3009C1.96763 11.2449 2.11779 11.1889 2.268 11.1331C2.61366 11.0047 2.95907 10.8756 3.30452 10.7466C3.50268 10.6726 3.70086 10.5986 3.89905 10.5247C4.77601 10.1975 5.65234 9.86864 6.52857 9.53949C9.02159 8.60313 11.5147 7.66704 14.0113 6.74013C14.0881 6.71159 14.165 6.68304 14.2442 6.65363C14.9987 6.37352 15.7533 6.09367 16.5081 5.8144C17.7976 5.33722 19.0869 4.85978 20.3689 4.36248C20.5038 4.31037 20.5038 4.31037 20.6414 4.2572C21.035 4.10511 21.428 3.95185 21.8199 3.79552C21.95 3.74491 22.0801 3.69436 22.2102 3.64386C22.3177 3.60117 22.4251 3.55848 22.5359 3.5145C23.0759 3.37633 23.551 3.56644 24.0612 3.75349ZM22.5513 5.94836C22.3715 6.24181 22.4134 6.50765 22.4324 6.84341C22.3302 6.8465 22.3302 6.8465 22.2259 6.84967C21.7877 6.9895 21.511 7.28581 21.2307 7.64456C20.9547 8.19382 20.9782 8.74567 21.0304 9.34702C21.1934 9.82749 21.4027 10.0804 21.8315 10.3485C22.1936 10.4979 22.5623 10.6235 22.9331 10.749C23.0899 10.8068 23.2464 10.8651 23.4026 10.9243C23.5668 10.9863 23.5668 10.9863 23.7343 11.0495C23.8252 11.513 23.8835 11.8356 23.6341 12.2512C23.3678 12.4683 23.2247 12.451 22.8768 12.4327C22.5244 12.3494 22.4491 12.3189 22.2321 12.0509C22.1454 11.8482 22.082 11.6444 22.0162 11.434C21.9347 11.2138 21.9347 11.2138 21.6312 11.0495C21.3347 11.0854 21.246 11.1343 21.0304 11.3499C20.9159 11.8708 21.0085 12.2846 21.287 12.7332C21.5012 13.0283 21.6786 13.2022 22.0068 13.3591C22.3323 13.5531 22.3323 13.5531 22.4105 13.7475C22.4538 13.9492 22.4933 14.1517 22.5325 14.3543C22.8086 14.5827 22.8086 14.5827 23.0896 14.5358C23.367 14.4711 23.367 14.4711 23.534 14.154C23.5381 14.059 23.5423 13.9639 23.5465 13.8661C23.6341 13.5531 23.6341 13.5531 23.8008 13.431C23.9042 13.3737 23.9042 13.3737 24.0097 13.3153C24.5389 13.0178 24.8153 12.6305 24.999 12.0533C25.1013 11.5125 24.9783 11.0367 24.7357 10.5488C24.1524 9.84263 23.509 9.67798 22.6409 9.49255C22.3323 9.34702 22.3323 9.34702 22.1848 9.00004C22.1287 8.62416 22.1463 8.47072 22.3323 8.14529C22.5741 7.90345 22.6454 7.91534 22.9769 7.9137C23.0945 7.91119 23.0945 7.91119 23.2144 7.90862C23.4905 7.95438 23.5683 8.0225 23.7343 8.24543C23.8293 8.47193 23.8293 8.47193 23.9033 8.71486C23.9285 8.7958 23.9536 8.87674 23.9796 8.96014C23.9978 9.02171 24.016 9.08329 24.0347 9.14673C24.3209 9.21533 24.3209 9.21533 24.6356 9.24688C24.9423 9.084 24.9423 9.084 25.0092 8.85804C25.0712 8.37088 24.8863 7.93844 24.6606 7.51938C24.4117 7.21515 24.1777 7.0333 23.8344 6.84341C23.7353 6.84341 23.6361 6.84341 23.534 6.84341C23.5402 6.73394 23.5464 6.62446 23.5528 6.51168C23.5643 6.15706 23.5643 6.15706 23.4151 5.94836C23.1087 5.76875 22.8577 5.76875 22.5513 5.94836Z" fill="#478767"/>
<path d="M0 41.5936C15.1689 41.5936 30.3378 41.5936 45.9664 41.5936C45.9664 43.0477 45.9664 44.5018 45.9664 46C30.7975 46 15.6286 46 0 46C0 44.5459 0 43.0918 0 41.5936Z" fill="#478767"/>
<path d="M42.8789 1.45597C44.3111 2.58596 45.2469 3.99268 45.7662 5.74185C45.8032 5.86268 45.8032 5.86268 45.841 5.98595C46.3064 7.83496 45.9127 9.89144 45.0089 11.5342C43.9107 13.3467 42.3122 14.6524 40.2553 15.2078C38.1207 15.7246 35.9868 15.3939 34.1159 14.2597C32.3804 13.1591 31.255 11.4884 30.7195 9.52231C30.3015 7.43237 30.601 5.32342 31.7518 3.51519C31.9425 3.24855 32.1404 2.99201 32.3468 2.73751C32.4253 2.63217 32.5038 2.52683 32.5847 2.41829C35.2756 -0.464823 39.7067 -0.750073 42.8789 1.45597ZM37.7547 2.63736C37.6947 2.87862 37.6947 2.87862 37.7044 3.15393C37.7035 3.2592 37.7025 3.36447 37.7016 3.47293C37.7027 3.58654 37.7038 3.70014 37.705 3.81719C37.7048 3.93386 37.7047 4.05053 37.7045 4.17074C37.7047 4.41756 37.7059 4.66439 37.7079 4.9112C37.7108 5.28971 37.71 5.66807 37.7087 6.04658C37.7093 6.28612 37.7102 6.52566 37.7112 6.7652C37.7109 6.87881 37.7107 6.99241 37.7103 7.10946C37.7116 7.21473 37.7129 7.32 37.7142 7.42846C37.7147 7.52118 37.7153 7.6139 37.7158 7.70942C37.7384 7.94769 37.7384 7.94769 37.8757 8.1252C38.1157 8.28608 38.2744 8.28295 38.5625 8.28275C38.7174 8.28368 38.7174 8.28368 38.8754 8.28464C38.9868 8.28372 39.0982 8.28279 39.213 8.28184C39.3275 8.28189 39.4419 8.28194 39.5598 8.28199C39.8019 8.28176 40.044 8.28079 40.2861 8.27913C40.6574 8.27677 41.0285 8.27707 41.3998 8.27774C41.6347 8.27718 41.8697 8.27647 42.1047 8.27558C42.2718 8.27572 42.2718 8.27572 42.4423 8.27586C42.5456 8.27491 42.6488 8.27395 42.7552 8.27297C42.8462 8.27251 42.9371 8.27205 43.0308 8.27157C43.2901 8.26029 43.2901 8.26029 43.5631 8.04517C43.6165 7.63447 43.6165 7.63447 43.4379 7.27705C43.2169 7.10916 43.0995 7.1074 42.824 7.10976C42.6917 7.1098 42.6917 7.1098 42.5568 7.10983C42.4145 7.11216 42.4145 7.11216 42.2694 7.11453C42.172 7.11496 42.0746 7.11538 41.9743 7.11582C41.6631 7.1175 41.3519 7.12127 41.0407 7.12509C40.8297 7.1266 40.6188 7.12797 40.4079 7.1292C39.8907 7.13252 39.3735 7.1377 38.8563 7.14387C38.8589 7.01605 38.8615 6.88822 38.8642 6.75652C38.8733 6.28155 38.879 5.80659 38.8838 5.33156C38.8863 5.12611 38.8897 4.92066 38.894 4.71524C38.9001 4.41965 38.9029 4.12418 38.9052 3.82854C38.9077 3.73693 38.9103 3.64532 38.913 3.55093C38.9132 3.09129 38.9046 2.90038 38.6154 2.52536C38.2296 2.24563 38.0874 2.31932 37.7547 2.63736Z" fill="#478767"/>
<path d="M36.0518 21.2643C37.3737 21.2643 38.6956 21.2643 40.0575 21.2643C40.0575 26.5189 40.0575 31.7735 40.0575 37.1873C38.7356 37.1873 37.4137 37.1873 36.0518 37.1873C36.0518 31.9327 36.0518 26.6781 36.0518 21.2643Z" fill="#478767"/>
<path d="M20.9307 21.2643C22.2526 21.2643 23.5745 21.2643 24.9365 21.2643C24.9365 26.5189 24.9365 31.7735 24.9365 37.1873C23.6145 37.1873 22.2926 37.1873 20.9307 37.1873C20.9307 31.9327 20.9307 26.6781 20.9307 21.2643Z" fill="#478767"/>
<path d="M5.80859 21.2643C7.1305 21.2643 8.45241 21.2643 9.81438 21.2643C9.81438 26.5189 9.81438 31.7735 9.81438 37.1873C8.49247 37.1873 7.17056 37.1873 5.80859 37.1873C5.80859 31.9327 5.80859 26.6781 5.80859 21.2643Z" fill="#478767"/>
<path d="M33.1475 38.2889C36.4192 38.2889 39.6909 38.2889 43.0618 38.2889C43.0618 39.0159 43.0618 39.743 43.0618 40.4921C39.7901 40.4921 36.5183 40.4921 33.1475 40.4921C33.1475 39.765 33.1475 39.038 33.1475 38.2889Z" fill="#478767"/>
<path d="M18.0264 38.2889C21.2981 38.2889 24.5698 38.2889 27.9407 38.2889C27.9407 39.0159 27.9407 39.743 27.9407 40.4921C24.669 40.4921 21.3972 40.4921 18.0264 40.4921C18.0264 39.765 18.0264 39.038 18.0264 38.2889Z" fill="#478767"/>
<path d="M2.9043 38.2889C6.17602 38.2889 9.44775 38.2889 12.8186 38.2889C12.8186 39.0159 12.8186 39.743 12.8186 40.4921C9.54689 40.4921 6.27517 40.4921 2.9043 40.4921C2.9043 39.765 2.9043 39.038 2.9043 38.2889Z" fill="#478767"/>
<path d="M33.1475 18.0596C36.4192 18.0596 39.6909 18.0596 43.0618 18.0596C43.0618 18.7536 43.0618 19.4476 43.0618 20.1627C39.7901 20.1627 36.5183 20.1627 33.1475 20.1627C33.1475 19.4687 33.1475 18.7747 33.1475 18.0596Z" fill="#478767"/>
<path d="M18.0264 18.0596C21.2981 18.0596 24.5698 18.0596 27.9407 18.0596C27.9407 18.7536 27.9407 19.4476 27.9407 20.1627C24.669 20.1627 21.3972 20.1627 18.0264 20.1627C18.0264 19.4687 18.0264 18.7747 18.0264 18.0596Z" fill="#478767"/>
<path d="M2.9043 18.0596C6.17602 18.0596 9.44775 18.0596 12.8186 18.0596C12.8186 18.7536 12.8186 19.4476 12.8186 20.1627C9.54689 20.1627 6.27517 20.1627 2.9043 20.1627C2.9043 19.4687 2.9043 18.7747 2.9043 18.0596Z" fill="#478767"/>
</svg>
