<svg width="49" height="46" viewBox="0 0 49 46" fill="none" xmlns="http://www.w3.org/2000/svg">
<path d="M22.1367 0.137596C22.4286 0.277443 22.7108 0.428973 22.9937 0.586241C23.0983 0.642534 23.2029 0.698828 23.3107 0.756827C23.629 0.928638 23.9459 1.10278 24.2627 1.27734C24.4387 1.37304 24.6147 1.46862 24.7907 1.56405C25.1307 1.74863 25.4701 1.93419 25.8091 2.12036C26.4274 2.4591 27.0489 2.79182 27.6705 3.12423C27.8982 3.24599 28.1258 3.36775 28.3535 3.48951C28.4098 3.51967 28.4662 3.54982 28.5243 3.58089C29.4174 4.05876 30.3089 4.53977 31.2006 5.02032C31.7158 5.29796 32.2312 5.57541 32.7465 5.85287C32.9531 5.96408 33.1596 6.07529 33.3661 6.1865C33.5195 6.26908 33.5195 6.26908 33.6759 6.35332C34.8119 6.96498 35.9478 7.57664 37.0838 8.1883C37.1861 8.24341 37.2885 8.29852 37.394 8.3553C37.5992 8.46583 37.8044 8.57642 38.0096 8.68707C38.4888 8.94538 38.9682 9.20317 39.4487 9.45892C39.6179 9.54897 39.7869 9.6392 39.9559 9.72949C40.1672 9.8423 40.3787 9.95477 40.5904 10.0668C42.3882 11.0282 42.3882 11.0282 42.7555 11.7629C42.7661 11.9414 42.7707 12.1202 42.7724 12.299C42.7736 12.4114 42.7748 12.5237 42.7761 12.6394C42.7771 12.8225 42.7771 12.8225 42.7782 13.0092C42.779 13.1343 42.7798 13.2594 42.7806 13.3883C42.782 13.6536 42.7829 13.9189 42.7836 14.1843C42.7847 14.523 42.788 14.8616 42.7918 15.2003C42.7949 15.5244 42.7953 15.8486 42.7961 16.1728C42.7978 16.2938 42.7994 16.4149 42.8012 16.5396C42.7996 17.1859 42.7956 17.6421 42.3742 18.1496C41.9369 18.419 41.6063 18.4714 41.0966 18.4718C40.9926 18.4725 40.9926 18.4725 40.8865 18.4732C40.654 18.4743 40.4216 18.4734 40.1891 18.4725C40.0208 18.4729 39.8525 18.4735 39.6842 18.4741C39.2216 18.4755 38.759 18.4751 38.2964 18.4744C37.7976 18.4739 37.2987 18.4751 36.7999 18.4761C35.8226 18.4777 34.8453 18.4778 33.868 18.4773C33.0738 18.4769 32.2796 18.4771 31.4853 18.4776C31.3724 18.4776 31.2594 18.4777 31.143 18.4778C30.9136 18.4779 30.6841 18.4781 30.4546 18.4782C28.3019 18.4795 26.1493 18.479 23.9966 18.4779C22.0264 18.477 20.0562 18.4782 18.086 18.4805C16.0638 18.4828 14.0416 18.4837 12.0194 18.4831C10.8838 18.4828 9.74818 18.483 8.61255 18.4846C7.64585 18.486 6.67915 18.4861 5.71245 18.4844C5.2191 18.4836 4.72577 18.4834 4.23242 18.4849C3.78089 18.4862 3.32941 18.4858 2.87789 18.4839C2.71445 18.4835 2.551 18.4838 2.38756 18.4848C2.16548 18.4861 1.94352 18.485 1.72144 18.4833C1.59807 18.4833 1.4747 18.4833 1.34759 18.4833C0.916376 18.4235 0.695108 18.2989 0.336505 18.0543C0.0787201 17.6675 0.0144214 17.3615 0.0120187 16.9015C0.0108096 16.7889 0.00960052 16.6762 0.00835478 16.5602C0.00863461 16.4398 0.00891445 16.3195 0.00920277 16.1955C0.00870309 16.0707 0.00820342 15.9459 0.00768861 15.8173C0.00683945 15.5539 0.00706577 15.2905 0.00801587 15.027C0.00911177 14.6905 0.00718244 14.354 0.00440139 14.0174C0.00222612 13.6949 0.00288646 13.3724 0.00324504 13.0498C0.00217418 12.9294 0.00110331 12.8091 0 12.6851C0.00835392 11.633 0.00835392 11.633 0.431829 11.191C0.626479 11.0373 0.626479 11.0373 0.841422 10.9177C0.92541 10.8704 1.0094 10.8231 1.09593 10.7744C1.19134 10.7231 1.28676 10.6719 1.38506 10.619C1.54809 10.5307 1.54809 10.5307 1.71442 10.4406C2.02221 10.2749 2.33118 10.1116 2.64053 9.94885C2.98097 9.76971 3.32094 9.58966 3.66092 9.40963C3.76187 9.3562 3.76187 9.3562 3.86486 9.30169C4.41484 9.01026 4.96209 8.71403 5.50781 8.41469C6.28392 7.98921 7.06277 7.56908 7.84324 7.15165C7.89958 7.12152 7.95592 7.09138 8.01397 7.06033C8.07032 7.03019 8.12668 7.00004 8.18474 6.96899C8.29854 6.90812 8.41234 6.84724 8.52614 6.78637C8.58251 6.75622 8.63889 6.72607 8.69697 6.695C9.28277 6.38156 9.86782 6.06671 10.4527 5.75159C10.5542 5.69692 10.6557 5.64226 10.7602 5.58594C10.9646 5.47582 11.1689 5.36569 11.3733 5.25556C11.8885 4.97792 12.4039 4.70048 12.9192 4.42302C13.1258 4.31181 13.3323 4.20059 13.5388 4.08938C14.778 3.42212 14.778 3.42212 15.088 3.25523C15.294 3.14426 15.5001 3.03329 15.7062 2.9223C16.2295 2.64045 16.7529 2.3588 17.2766 2.07753C17.3819 2.0209 17.4872 1.96427 17.5957 1.90592C17.8045 1.79372 18.0134 1.68173 18.2225 1.56996C18.7074 1.31001 19.1888 1.0463 19.6645 0.769813C19.7501 0.720624 19.8358 0.671434 19.9241 0.620754C20.0818 0.529737 20.2388 0.437273 20.3946 0.343021C20.9928 -0.000171975 21.4776 -0.117432 22.1367 0.137596Z" fill="#478767"/>
<path d="M44.5265 24.2678C44.7668 24.4802 45.0013 24.6974 45.2344 24.9176C45.3059 24.983 45.3774 25.0483 45.4511 25.1157C47.0039 26.5868 48.0103 28.5938 48.5707 30.637C48.6192 30.8049 48.6192 30.8049 48.6686 30.9762C49.417 34.1249 48.7202 37.5404 47.0455 40.2647C45.3106 42.9221 42.7653 44.7636 39.7056 45.6028C39.5937 45.6351 39.4817 45.6674 39.3664 45.7007C36.2163 46.4494 32.8038 45.7511 30.0779 44.0776C27.3413 42.2984 25.3375 39.5703 24.6445 36.3564C24.4599 35.4826 24.4155 34.6265 24.4181 33.735C24.4181 33.6682 24.4182 33.6014 24.4182 33.5326C24.4298 30.2881 25.6614 27.4627 27.8855 25.1082C27.9508 25.0367 28.0162 24.9652 28.0836 24.8915C29.5547 23.3387 31.5617 22.3323 33.6049 21.7719C33.7168 21.7396 33.8288 21.7073 33.9441 21.674C37.6121 20.8022 41.6743 21.8484 44.5265 24.2678ZM35.5114 28.0633C35.1033 28.5979 35.1182 29.1841 35.1208 29.8349C35.121 29.9353 35.121 29.9353 35.1212 30.0377C35.1217 30.2494 35.1229 30.4611 35.1241 30.6727C35.1246 30.8171 35.125 30.9615 35.1254 31.1058C35.1265 31.4579 35.1281 31.8101 35.1301 32.1622C35.0417 32.1612 34.9532 32.1602 34.8622 32.1592C34.531 32.1559 34.1999 32.1535 33.8687 32.1517C33.726 32.1508 33.5832 32.1495 33.4405 32.1478C33.2341 32.1455 33.0278 32.1444 32.8214 32.1436C32.6976 32.1426 32.5738 32.1416 32.4463 32.1405C31.8234 32.1773 31.2968 32.2779 30.8405 32.7341C30.5475 33.2005 30.5923 33.7284 30.6499 34.2593C30.8536 34.6895 31.0743 34.9211 31.5078 35.1172C31.9433 35.2092 32.3584 35.2236 32.8028 35.2218C32.8697 35.2217 32.9366 35.2216 33.0055 35.2214C33.2172 35.2209 33.4289 35.2197 33.6406 35.2185C33.785 35.218 33.9293 35.2176 34.0737 35.2172C34.4258 35.2161 34.7779 35.2145 35.1301 35.2125C35.1291 35.3009 35.1281 35.3894 35.127 35.4804C35.1238 35.8116 35.1214 36.1427 35.1196 36.4739C35.1186 36.6166 35.1173 36.7594 35.1157 36.9021C35.1133 37.1085 35.1123 37.3148 35.1114 37.5212C35.1104 37.645 35.1095 37.7688 35.1084 37.8963C35.1452 38.5192 35.2457 39.0458 35.702 39.5021C36.1684 39.7951 36.6963 39.7503 37.2272 39.6927C37.6574 39.489 37.889 39.2683 38.0851 38.8348C38.1771 38.3993 38.1915 37.9842 38.1897 37.5398C38.1896 37.4729 38.1895 37.406 38.1893 37.3371C38.1888 37.1254 38.1876 36.9137 38.1864 36.702C38.1859 36.5576 38.1855 36.4133 38.1851 36.2689C38.184 35.9168 38.1824 35.5647 38.1804 35.2125C38.2688 35.2135 38.3572 35.2145 38.4483 35.2156C38.7795 35.2188 39.1106 35.2212 39.4418 35.223C39.5845 35.224 39.7273 35.2253 39.87 35.2269C40.0763 35.2293 40.2827 35.2303 40.489 35.2312C40.6128 35.2322 40.7366 35.2331 40.8642 35.2342C41.3998 35.2026 41.8471 35.1459 42.2674 34.7895C42.6714 34.3024 42.702 34.0156 42.6908 33.3969C42.6504 33.0196 42.5395 32.8177 42.2793 32.5435C41.7447 32.1355 41.1585 32.1503 40.5077 32.1529C40.4408 32.153 40.3739 32.1531 40.3049 32.1533C40.0932 32.1538 39.8815 32.155 39.6699 32.1562C39.5255 32.1567 39.3812 32.1571 39.2368 32.1575C38.8847 32.1586 38.5325 32.1602 38.1804 32.1622C38.1814 32.0738 38.1824 31.9854 38.1834 31.8943C38.1867 31.5631 38.1891 31.232 38.1909 30.9008C38.1918 30.7581 38.1931 30.6153 38.1948 30.4726C38.1971 30.2663 38.1982 30.0599 38.199 29.8536C38.2 29.7298 38.201 29.606 38.2021 29.4784C38.1653 28.8556 38.0647 28.3289 37.6085 27.8726C36.9698 27.4713 36.0508 27.5514 35.5114 28.0633Z" fill="#478767"/>
<path d="M1.8506 35.1781C1.93478 35.1779 2.01896 35.1776 2.10569 35.1774C2.38716 35.1769 2.66858 35.1785 2.95004 35.1801C3.15204 35.1801 3.35404 35.1801 3.55603 35.1799C4.1041 35.1798 4.65215 35.1815 5.20021 35.1835C5.77309 35.1853 6.34596 35.1855 6.91884 35.1858C8.00353 35.1867 9.0882 35.1891 10.1729 35.1919C11.4078 35.1951 12.6427 35.1967 13.8777 35.1981C16.4179 35.2011 18.9581 35.2062 21.4983 35.2125C21.5087 35.2717 21.519 35.331 21.5297 35.392C21.5775 35.6646 21.626 35.9372 21.6745 36.2097C21.6907 36.3028 21.7069 36.396 21.7237 36.4919C22.1056 38.6267 22.9748 40.7433 24.3167 42.4567C24.4534 42.6478 24.4534 42.6478 24.4534 42.8384C21.4774 42.8471 18.5014 42.8539 15.5254 42.8579C15.174 42.8584 14.8227 42.8589 14.4713 42.8594C14.4013 42.8595 14.3314 42.8596 14.2593 42.8597C13.1268 42.8613 11.9943 42.8643 10.8617 42.8678C9.69959 42.8714 8.53743 42.8735 7.37527 42.8743C6.65821 42.8748 5.94117 42.8765 5.22412 42.8796C4.67418 42.8818 4.12426 42.8821 3.57432 42.8815C3.34879 42.8816 3.12326 42.8824 2.89774 42.8839C2.58988 42.8858 2.28211 42.8853 1.97425 42.8843C1.8403 42.8859 1.8403 42.8859 1.70365 42.8876C1.13599 42.8824 0.800193 42.7911 0.336505 42.4571C0.0763964 42.0676 0.0143982 41.759 0.0120187 41.2955C0.0108096 41.181 0.00960052 41.0665 0.00835478 40.9485C0.00863461 40.8261 0.00891445 40.7036 0.00920277 40.5775C0.00876746 40.4493 0.00826157 40.3211 0.00768861 40.1929C0.00683937 39.925 0.00706586 39.6571 0.00801587 39.3891C0.00911177 39.0468 0.00718266 38.7045 0.00440157 38.3622C0.00264789 38.0977 0.00267966 37.8333 0.00322304 37.5688C0.00324465 37.3816 0.00163742 37.1943 0 37.0071C0.00849357 35.9193 0.00849359 35.9193 0.431829 35.4985C0.915081 35.1958 1.29897 35.1722 1.8506 35.1781Z" fill="#478767"/>
<path d="M8.05432 19.9194C8.14503 19.9189 8.23573 19.9184 8.32918 19.9179C8.52042 19.9173 8.71167 19.9174 8.9029 19.9182C9.19435 19.919 9.48561 19.9163 9.77704 19.9133C9.9634 19.9131 10.1498 19.9132 10.3361 19.9135C10.4659 19.9119 10.4659 19.9119 10.5983 19.9102C11.165 19.9164 11.5114 19.9934 11.9659 20.342C12.3374 20.8771 12.2929 21.4274 12.2904 22.0534C12.2911 22.1677 12.2917 22.282 12.2924 22.3997C12.2939 22.7121 12.294 23.0245 12.2935 23.3368C12.2932 23.5981 12.2938 23.8594 12.2943 24.1207C12.2957 24.7373 12.2955 25.3539 12.2944 25.9706C12.2933 26.6056 12.2947 27.2407 12.2972 27.8757C12.2993 28.422 12.3 28.9683 12.2994 29.5146C12.2991 29.8404 12.2993 30.1662 12.301 30.492C12.3024 30.8555 12.3014 31.2189 12.2997 31.5824C12.3007 31.6896 12.3016 31.7968 12.3025 31.9073C12.2968 32.5211 12.2408 32.9042 11.8706 33.4014C11.3945 33.7476 10.9152 33.7305 10.3488 33.7287C10.2581 33.7292 10.1674 33.7297 10.0739 33.7302C9.88269 33.7308 9.69145 33.7307 9.50021 33.7299C9.20877 33.7291 8.9175 33.7318 8.62608 33.7348C8.43971 33.735 8.25335 33.7349 8.06698 33.7346C7.93723 33.7362 7.93723 33.7362 7.80485 33.7379C7.23811 33.7317 6.89173 33.6547 6.43717 33.3061C6.06352 32.7693 6.1102 32.2128 6.11269 31.5845C6.11203 31.4691 6.11138 31.3537 6.11071 31.2348C6.10926 30.9195 6.10911 30.6042 6.10965 30.2889C6.10995 30.0252 6.10936 29.7616 6.10879 29.4979C6.10745 28.8758 6.1076 28.2537 6.10868 27.6316C6.10978 26.9905 6.10844 26.3496 6.10588 25.7086C6.10377 25.1573 6.10314 24.6061 6.1037 24.0549C6.10402 23.726 6.10379 23.3972 6.10215 23.0683C6.1004 22.7017 6.10174 22.335 6.10338 21.9683C6.10246 21.8599 6.10154 21.7514 6.10059 21.6396C6.10609 21.0517 6.13181 20.6904 6.5325 20.2467C7.01651 19.9063 7.48416 19.9176 8.05432 19.9194Z" fill="#478767"/>
<path d="M20.2555 19.9194C20.3462 19.9189 20.4369 19.9184 20.5304 19.9179C20.7216 19.9173 20.9128 19.9174 21.1041 19.9182C21.3955 19.919 21.6868 19.9163 21.9782 19.9133C22.1646 19.9131 22.3509 19.9132 22.5373 19.9135C22.6671 19.9119 22.6671 19.9119 22.7994 19.9102C23.3662 19.9164 23.7126 19.9934 24.1671 20.342C24.4827 20.7914 24.5039 21.2191 24.5145 21.7503C24.5164 21.8305 24.5182 21.9107 24.5201 21.9934C24.5233 22.163 24.5255 22.3327 24.527 22.5024C24.5305 22.7571 24.5406 23.011 24.5508 23.2654C24.576 24.4453 24.3106 25.1499 23.6139 26.092C23.3614 26.4465 23.1824 26.8418 22.9994 27.2351C22.9601 27.3191 22.9209 27.403 22.8804 27.4895C21.9868 29.4486 21.5544 31.5396 21.4981 33.6874C21.1466 33.6985 20.7951 33.7052 20.4435 33.7112C20.3446 33.7144 20.2456 33.7176 20.1436 33.7209C19.5247 33.7287 19.1286 33.6993 18.6383 33.3061C18.2656 32.7681 18.3114 32.2135 18.3139 31.5845C18.3132 31.4691 18.3126 31.3537 18.3119 31.2348C18.3104 30.9195 18.3103 30.6042 18.3108 30.2889C18.3111 30.0252 18.3105 29.7616 18.31 29.4979C18.3086 28.8758 18.3088 28.2537 18.3099 27.6316C18.311 26.9905 18.3096 26.3496 18.3071 25.7086C18.3049 25.1573 18.3043 24.6061 18.3049 24.0549C18.3052 23.726 18.305 23.3972 18.3033 23.0683C18.3016 22.7017 18.3029 22.335 18.3046 21.9683C18.3036 21.8599 18.3027 21.7514 18.3018 21.6396C18.3073 21.0517 18.333 20.6904 18.7337 20.2467C19.2177 19.9063 19.6853 19.9176 20.2555 19.9194Z" fill="#478767"/>
</svg>
