<svg width="96" height="96" viewBox="0 0 96 96" fill="none" xmlns="http://www.w3.org/2000/svg">
<rect x="14.0158" y="15.1666" width="64.5267" height="64.5267" rx="32.2633" stroke="#478767" stroke-width="1.46831"/>
<g clip-path="url(#clip0_26_3858)">
<path d="M46.1635 43.592H43.7568M43.7568 43.592H41.35M43.7568 43.592V40.3831M43.7568 43.592V46.801M51.7792 43.592C51.7792 48.6344 51.7792 51.1555 50.6039 52.7215C49.4302 54.2885 47.5385 54.2885 43.7568 54.2885C39.975 54.2885 38.0841 54.2885 36.9089 52.7215C35.7344 51.1566 35.7344 48.6344 35.7344 43.592C35.7344 38.5497 35.7344 36.0285 36.9089 34.4615C38.0849 32.8955 39.975 32.8955 43.7568 32.8955C47.5385 32.8955 49.4294 32.8955 50.6039 34.4615C51.3853 35.5033 51.6468 36.9677 51.735 39.3134" stroke="#478767" stroke-width="1.60448" stroke-linecap="round"/>
</g>
<g clip-path="url(#clip1_26_3858)">
<path d="M54.7211 52.1493H52.3144M52.3144 52.1493H49.9077M52.3144 52.1493V48.9403M52.3144 52.1493V55.3582M60.3368 52.1493C60.3368 57.1916 60.3368 59.7128 59.1615 61.2788C57.9878 62.8458 56.0961 62.8458 52.3144 62.8458C48.5326 62.8458 46.6417 62.8458 45.4665 61.2788C44.292 59.7139 44.292 57.1916 44.292 52.1493C44.292 47.1069 44.292 44.5858 45.4665 43.0187C46.6426 41.4528 48.5326 41.4528 52.3144 41.4528C56.0961 41.4528 57.987 41.4528 59.1615 43.0187C59.9429 44.0606 60.2044 45.5249 60.2926 47.8707" stroke="#478767" stroke-width="1.60448" stroke-linecap="round"/>
</g>
<path d="M29.4277 17.662C34.5744 14.6858 40.404 13.0902 46.3515 13.03C52.2989 12.9699 58.1623 14.4471 63.3732 17.3185C68.5841 20.19 72.9658 24.3582 76.0933 29.4191C79.2208 34.4799 80.9882 40.2618 81.2239 46.204C81.4597 52.1462 80.1559 58.0471 77.4389 63.3348C74.722 68.6224 70.6841 73.1173 65.7167 76.3837C60.7493 79.65 55.0209 81.577 49.087 81.9778C43.1531 82.3786 37.2149 81.2396 31.8483 78.6713" stroke="#478767" stroke-width="3.67078"/>
<defs>
<clipPath id="clip0_26_3858">
<rect width="19.2537" height="25.6716" fill="white" transform="translate(34.1299 30.7562)"/>
</clipPath>
<clipPath id="clip1_26_3858">
<rect width="19.2537" height="25.6716" fill="white" transform="translate(42.6875 39.3135)"/>
</clipPath>
</defs>
</svg>
