<svg width="96" height="96" viewBox="0 0 96 96" fill="none" xmlns="http://www.w3.org/2000/svg">
<rect x="13.8069" y="15.1666" width="64.5267" height="64.5267" rx="32.2633" stroke="#478767" stroke-width="1.46831"/>
<path d="M45.9545 43.592H43.5478M43.5478 43.592H41.1411M43.5478 43.592V40.3831M43.5478 43.592V46.801M51.5702 43.592C51.5702 48.6344 51.5702 51.1555 50.3949 52.7215C49.2212 54.2885 47.3295 54.2885 43.5478 54.2885C39.766 54.2885 37.8751 54.2885 36.6999 52.7215C35.5254 51.1566 35.5254 48.6344 35.5254 43.592C35.5254 38.5497 35.5254 36.0285 36.6999 34.4615C37.876 32.8955 39.766 32.8955 43.5478 32.8955C47.3295 32.8955 49.2204 32.8955 50.3949 34.4615C51.1763 35.5033 51.4378 36.9677 51.526 39.3134" stroke="#478767" stroke-width="1.60448" stroke-linecap="round"/>
<path d="M54.5121 52.1493H52.1054M52.1054 52.1493H49.6987M52.1054 52.1493V48.9403M52.1054 52.1493V55.3582M60.1278 52.1493C60.1278 57.1916 60.1278 59.7128 58.9525 61.2788C57.7788 62.8458 55.8872 62.8458 52.1054 62.8458C48.3236 62.8458 46.4328 62.8458 45.2575 61.2788C44.083 59.7139 44.083 57.1916 44.083 52.1493C44.083 47.1069 44.083 44.5858 45.2575 43.0187C46.4336 41.4528 48.3236 41.4528 52.1054 41.4528C55.8872 41.4528 57.778 41.4528 58.9525 43.0187C59.7339 44.0606 59.9954 45.5249 60.0837 47.8707" stroke="#478767" stroke-width="1.60448" stroke-linecap="round"/>
<path d="M29.2187 17.662C34.3654 14.6858 40.1951 13.0902 46.1425 13.03C52.0899 12.9699 57.9533 14.4471 63.1642 17.3185C68.3752 20.19 72.7568 24.3582 75.8843 29.4191C79.0119 34.4799 80.7792 40.2618 81.0149 46.204C81.2507 52.1462 79.9469 58.0471 77.2299 63.3348C74.513 68.6224 70.4751 73.1173 65.5077 76.3837C60.5403 79.65 54.8119 81.577 48.878 81.9778C42.9441 82.3786 37.006 81.2396 31.6393 78.6713" stroke="#478767" stroke-width="3.67078"/>
</svg>
