<svg width="22" height="18" viewBox="0 0 22 18" fill="none" xmlns="http://www.w3.org/2000/svg">
<path d="M0.996644 1.29601L2.27235 0.0302734L18.9362 16.6942L17.6705 17.9699L14.6008 14.9002C13.4547 15.2789 12.2388 15.4783 10.9631 15.4783C5.97987 15.4783 1.72419 12.3787 0 8.00343C0.687685 6.24933 1.78399 4.70454 3.1793 3.47866L0.996644 1.29601ZM10.9631 5.01349C11.7561 5.01349 12.5166 5.3285 13.0773 5.88923C13.638 6.44995 13.953 7.21045 13.953 8.00343C13.9535 8.34285 13.8962 8.67988 13.7836 9.00007L9.96644 5.18292C10.2866 5.07029 10.6237 5.01299 10.9631 5.01349ZM10.9631 0.528596C15.9463 0.528596 20.202 3.62816 21.9262 8.00343C21.1123 10.0694 19.7301 11.8628 17.9396 13.176L16.5244 11.7508C17.9027 10.7975 19.0143 9.50747 19.7535 8.00343C18.9479 6.35883 17.697 4.97326 16.143 4.00425C14.5891 3.03523 12.7944 2.52165 10.9631 2.52188C9.87674 2.52188 8.81034 2.70128 7.81369 3.02021L6.27886 1.49534C7.71403 0.877421 9.29869 0.528596 10.9631 0.528596ZM2.17268 8.00343C2.97832 9.64803 4.22922 11.0336 5.78316 12.0026C7.33711 12.9716 9.13176 13.4852 10.9631 13.485C11.6508 13.485 12.3285 13.4152 12.9564 13.2757L10.684 10.9934C9.99052 10.919 9.34336 10.6095 8.85018 10.1163C8.35699 9.62315 8.04749 8.97599 7.97315 8.28249L4.58456 4.88393C3.59789 5.73108 2.77067 6.78752 2.17268 8.00343Z" fill="#478767"/>
</svg>
