<svg width="42" height="46" viewBox="0 0 42 46" fill="none" xmlns="http://www.w3.org/2000/svg">
<path d="M20.615 5.61458C24.6636 5.61458 28.4831 6.48389 32.0733 8.2225C35.6636 9.96111 38.6619 12.472 41.0681 15.7552C41.3355 16.099 41.4218 16.4045 41.3271 16.6719C41.2324 16.9392 41.0697 17.1684 40.839 17.3594C40.6083 17.5503 40.3409 17.6367 40.0369 17.6183C39.7329 17.6 39.4655 17.4373 39.2348 17.1302C37.1341 14.151 34.4322 11.8693 31.1292 10.285C27.8261 8.70069 24.3214 7.90778 20.615 7.90625C16.9086 7.90472 13.4329 8.69764 10.1879 10.285C6.94293 11.8724 4.25022 14.1541 2.1098 17.1302C1.88063 17.474 1.61327 17.6649 1.30772 17.7031C1.00216 17.7413 0.734801 17.6649 0.505634 17.474C0.238273 17.283 0.0755643 17.0447 0.0175088 16.759C-0.0405468 16.4733 0.045773 16.1769 0.276467 15.8698C2.64452 12.6233 5.61452 10.1024 9.18647 8.30729C12.7584 6.51215 16.5679 5.61458 20.615 5.61458ZM20.615 11C25.7713 11 30.2018 12.7188 33.9067 16.1562C37.6115 19.5938 39.464 23.8524 39.464 28.9323C39.464 30.842 38.7864 32.437 37.4313 33.7173C36.0761 34.9976 34.4238 35.6369 32.4744 35.6354C30.5249 35.6339 28.8543 34.9945 27.4625 33.7173C26.0707 32.4401 25.3733 30.8451 25.3702 28.9323C25.3702 27.6719 24.9027 26.6116 23.9677 25.7515C23.0327 24.8913 21.9151 24.462 20.615 24.4635C19.3149 24.4651 18.1973 24.8951 17.2623 25.7537C16.3273 26.6124 15.8598 27.6719 15.8598 28.9323C15.8598 32.6372 16.9583 35.7309 19.1552 38.2135C21.3522 40.6962 24.1877 42.434 27.6619 43.4271C28.0056 43.5417 28.2348 43.7326 28.3494 44C28.464 44.2674 28.4831 44.5538 28.4067 44.8594C28.3303 45.1267 28.1775 45.3559 27.9483 45.5469C27.7192 45.7379 27.4327 45.7951 27.089 45.7188C23.1167 44.7257 19.8702 42.7487 17.3494 39.7879C14.8286 36.8271 13.5681 33.2085 13.5681 28.9323C13.5681 27.0226 14.2556 25.4184 15.6306 24.1198C17.0056 22.8212 18.6671 22.1719 20.615 22.1719C22.5629 22.1719 24.2244 22.8212 25.5994 24.1198C26.9744 25.4184 27.6619 27.0226 27.6619 28.9323C27.6619 30.1927 28.1393 31.253 29.0942 32.1131C30.049 32.9733 31.1758 33.4026 32.4744 33.401C33.773 33.3995 34.8806 32.9702 35.7973 32.1131C36.714 31.256 37.1723 30.1958 37.1723 28.9323C37.1723 24.5017 35.549 20.7778 32.3025 17.7604C29.056 14.7431 25.1792 13.2344 20.6723 13.2344C16.1654 13.2344 12.2886 14.7431 9.04209 17.7604C5.79556 20.7778 4.1723 24.4826 4.1723 28.875C4.1723 29.7917 4.25862 30.9375 4.43126 32.3125C4.6039 33.6875 5.01411 35.2917 5.66188 37.125C5.77647 37.4688 5.7673 37.7743 5.63438 38.0417C5.50147 38.309 5.28147 38.5 4.97438 38.6146C4.6673 38.7292 4.37168 38.72 4.08751 38.5871C3.80334 38.4542 3.60244 38.2342 3.4848 37.9271C2.91188 36.4375 2.50168 34.9579 2.25418 33.4881C2.00668 32.0184 1.88216 30.4998 1.88063 28.9323C1.88063 23.8524 3.7239 19.5938 7.41043 16.1562C11.097 12.7188 15.4985 11 20.615 11ZM20.615 0C23.0595 0 25.4466 0.295625 27.7765 0.886875C30.1063 1.47812 32.3598 2.32833 34.5369 3.4375C34.8806 3.62847 35.0815 3.85764 35.1396 4.125C35.1977 4.39236 35.1686 4.65972 35.0525 4.92708C34.9364 5.19444 34.7454 5.40451 34.4796 5.55729C34.2138 5.71007 33.8891 5.69097 33.5056 5.5C31.4813 4.46875 29.3898 3.6766 27.2311 3.12354C25.0723 2.57049 22.867 2.29319 20.615 2.29167C18.3997 2.29167 16.2226 2.54986 14.0838 3.06625C11.9449 3.58264 9.90147 4.39389 7.95355 5.5C7.64799 5.69097 7.34244 5.7391 7.03688 5.64437C6.73133 5.54965 6.50216 5.34875 6.34938 5.04167C6.19661 4.73458 6.15841 4.45806 6.2348 4.21208C6.31119 3.96611 6.50216 3.74611 6.80772 3.55208C8.94661 2.40625 11.181 1.52778 13.5108 0.916666C15.8407 0.305555 18.2088 0 20.615 0ZM20.615 16.5573C24.1671 16.5573 27.2226 17.7513 29.7817 20.1392C32.3407 22.5271 33.6202 25.4581 33.6202 28.9323C33.6202 29.276 33.5156 29.5533 33.3063 29.7642C33.097 29.975 32.8197 30.0797 32.4744 30.0781C32.1688 30.0781 31.9015 29.9735 31.6723 29.7642C31.4431 29.5549 31.3286 29.2776 31.3286 28.9323C31.3286 26.0677 30.2683 23.6714 28.1477 21.7433C26.0272 19.8153 23.5163 18.8505 20.615 18.849C17.7138 18.8474 15.222 19.8122 13.1396 21.7433C11.0572 23.6744 10.0161 26.0708 10.0161 28.9323C10.0161 32.026 10.5508 34.6523 11.6202 36.811C12.6897 38.9698 14.2556 41.1369 16.3181 43.3125C16.5473 43.5417 16.6619 43.809 16.6619 44.1146C16.6619 44.4201 16.5473 44.6875 16.3181 44.9167C16.089 45.1458 15.8216 45.2604 15.5161 45.2604C15.2105 45.2604 14.9431 45.1458 14.714 44.9167C12.4605 42.5486 10.7326 40.1332 9.53022 37.6704C8.32786 35.2076 7.72591 32.2949 7.72438 28.9323C7.72438 25.4566 8.9848 22.5248 11.5056 20.1369C14.0265 17.749 17.0629 16.5558 20.615 16.5573ZM20.5577 27.7865C20.9015 27.7865 21.1788 27.901 21.3896 28.1302C21.6004 28.3594 21.7051 28.6267 21.7036 28.9323C21.7036 31.7969 22.7348 34.1458 24.7973 35.9792C26.8598 37.8125 29.2661 38.7292 32.0161 38.7292C32.2452 38.7292 32.5699 38.7101 32.99 38.6719C33.4101 38.6337 33.8494 38.5764 34.3077 38.5C34.6515 38.4236 34.9479 38.4717 35.1969 38.6444C35.4459 38.817 35.6079 39.0744 35.6827 39.4167C35.7591 39.7222 35.7018 39.9896 35.5108 40.2188C35.3199 40.4479 35.0716 40.6007 34.7661 40.6771C34.0786 40.8681 33.4774 40.9735 32.9625 40.9933C32.4477 41.0132 32.1322 41.0224 32.0161 41.0208C28.6167 41.0208 25.6658 39.875 23.1633 37.5833C20.6608 35.2917 19.4104 32.408 19.4119 28.9323C19.4119 28.6267 19.5173 28.3594 19.7281 28.1302C19.939 27.901 20.2155 27.7865 20.5577 27.7865Z" fill="#535763"/>
</svg>
