<svg width="19" height="19" viewBox="0 0 19 19" fill="none" xmlns="http://www.w3.org/2000/svg">
<path d="M6.80849 0.0806885L5.98132 6.68154H7.79686L9.87964 0.464158L6.80849 0.0806885ZM10.6983 0.420042L8.60282 6.68154L14.953 6.68578L16.4079 2.33315L10.6983 0.420042ZM5.94314 0.871382L2.8932 1.20395L3.49131 6.68154H5.21777L5.94314 0.871382ZM1.02252 5.40896C0.534695 5.40896 0.208916 5.78225 0.12026 6.13857C0.0761442 6.31673 0.101171 6.46096 0.151226 6.54155C0.200857 6.61791 0.269576 6.68154 0.513486 6.68154H2.72352L2.58354 5.40896H1.02252ZM16.1831 5.40896L15.7589 6.68154H17.7738C17.6636 6.46944 17.6169 6.24462 17.6466 6.0198C17.6763 5.79922 17.7611 5.59985 17.8714 5.40896H16.1831ZM0.046875 7.44508V17.9184C0.046875 18.1347 0.165224 18.3892 0.359504 18.5844C0.554208 18.7795 0.81042 18.8983 1.02252 18.8983L17.3115 18.9025C17.5236 18.9025 17.7781 18.7837 17.9732 18.5886C18.1683 18.3935 18.2871 18.139 18.2871 17.9226V14.9109H14.5966C12.7302 14.9109 12.7302 11.4325 14.5966 11.4325H18.2871V7.44932L0.046875 7.44508ZM14.5966 12.196C13.7483 12.196 13.7483 14.1473 14.5966 14.1473H15.5426C15.1608 13.9861 14.8936 13.6086 14.8936 13.1717C14.8936 12.7347 15.1608 12.3572 15.5426 12.196H14.5966ZM16.3655 12.196C16.7473 12.3572 17.0145 12.7347 17.0145 13.1717C17.0145 13.6086 16.7473 13.9861 16.3655 14.1473H18.9658V12.196H16.3655ZM15.9541 12.8747C15.7844 12.8747 15.6571 13.002 15.6571 13.1717C15.6571 13.3413 15.7844 13.4686 15.9541 13.4686C16.1237 13.4686 16.251 13.3413 16.251 13.1717C16.251 13.002 16.1237 12.8747 15.9541 12.8747Z" fill="#52A67C"/>
</svg>
