<svg width="44" height="46" viewBox="0 0 44 46" fill="none" xmlns="http://www.w3.org/2000/svg">
<path d="M11.1037 0.000659936C11.2435 0.000466078 11.3833 0.000272222 11.5273 7.24901e-05C11.9132 -0.000235581 12.2991 0.000468782 12.685 0.00160696C13.1083 0.00260028 13.5316 0.00226463 13.955 0.00210112C14.7757 0.00198102 15.5963 0.00302373 16.417 0.00447929C17.3669 0.00611334 18.3168 0.00629 19.2666 0.00646873C21.773 0.00765651 24.2794 0.0108182 26.7857 0.0137392C32.386 0.01841 37.9863 0.0230809 43.7563 0.0278932C43.7563 13.5919 43.7563 27.156 43.7563 41.131C42.9343 41.131 42.1122 41.131 41.2652 41.131C41.2652 28.3891 41.2652 15.6471 41.2652 2.51899C31.7368 2.51899 22.2083 2.51899 12.3911 2.51899C12.3911 16.0457 12.3911 29.5723 12.3911 43.5089C22.7417 43.5089 33.0922 43.5089 43.7563 43.5089C43.7563 44.331 43.7563 45.153 43.7563 46C32.5464 46 21.3365 46 9.78681 46C9.78681 37.6299 9.78681 29.2598 9.78681 20.6361C6.57329 20.6361 3.35977 20.6361 0.0488731 20.6361C0.0307067 18.0095 0.0307067 18.0095 0.0267575 16.8771C0.0240655 16.1088 0.020905 15.3406 0.0147045 14.5724C0.00972946 13.952 0.00706379 13.3316 0.00590063 12.7112C0.00507331 12.4763 0.00345824 12.2414 0.000985098 12.0064C-0.0331113 8.62861 0.813977 5.78049 3.15501 3.26456C5.26086 1.13707 8.13081 -0.0145083 11.1037 0.000659936ZM5.59723 4.55717C5.49674 4.63314 5.49674 4.63314 5.39421 4.71065C3.82627 5.93415 2.91042 7.97945 2.59369 9.90032C2.50008 10.6687 2.5261 11.4453 2.52891 12.218C2.52913 12.3893 2.52929 12.5607 2.5294 12.732C2.52983 13.1803 2.53094 13.6285 2.5322 14.0767C2.53357 14.616 2.53408 15.1553 2.53474 15.6945C2.53583 16.5114 2.538 17.3282 2.53997 18.145C4.93143 18.145 7.32288 18.145 9.78681 18.145C9.78681 13.0258 9.78681 7.90656 9.78681 2.63222C8.27186 2.63222 6.70732 3.61952 5.59723 4.55717Z" fill="#478767"/>
<path d="M27.1559 6.35074C29.965 6.25149 32.6452 7.30381 34.6977 9.19967C36.6659 11.1113 37.5929 13.8218 37.663 16.5244C37.62 19.3138 36.5693 21.7566 34.5845 23.6933C34.4937 23.7851 34.4029 23.877 34.3094 23.9715C32.353 25.8542 29.812 26.5832 27.1571 26.5721C25.6388 26.5383 24.2681 26.2268 22.9216 25.505C22.8127 25.4494 22.7039 25.3938 22.5917 25.3365C21.6644 24.8346 20.9447 24.2054 20.2041 23.4669C20.113 23.3784 20.0219 23.29 19.9281 23.1988C18.2432 21.4614 17.426 19.049 17.3379 16.6588C17.408 13.6532 18.4991 10.9384 20.6712 8.84582C22.4864 7.2465 24.7738 6.51006 27.1559 6.35074ZM21.7964 11.4183C20.259 13.2119 19.8043 15.2813 19.9776 17.5788C20.2384 19.4946 21.2518 21.1696 22.6956 22.4243C24.3929 23.6746 26.4285 24.1896 28.5195 23.9623C30.5355 23.6488 32.3549 22.6984 33.6163 21.0709C34.8546 19.3069 35.2888 17.2038 35.0053 15.0723C34.6339 13.0485 33.4389 11.3675 31.7962 10.1648C28.4889 8.04333 24.5027 8.59597 21.7964 11.4183Z" fill="#478767"/>
<path d="M19.2984 29.9211C20.1204 29.9211 20.9425 29.9211 21.7895 29.9211C21.8268 31.2663 21.8642 32.6115 21.9027 33.9974C22.2764 33.549 22.65 33.1006 23.035 32.6386C23.459 32.7446 23.572 32.7902 23.879 33.0602C23.949 33.1211 24.0191 33.182 24.0913 33.2448C24.1631 33.3087 24.2349 33.3726 24.3089 33.4383C24.4192 33.5348 24.4192 33.5348 24.5318 33.6332C24.7129 33.7916 24.8931 33.9511 25.0732 34.1107C24.9189 34.5679 24.7175 34.8516 24.3867 35.2005C23.9301 35.6936 23.5015 36.2016 23.0788 36.7238C22.7832 37.0857 22.4816 37.442 22.1787 37.7978C21.6592 38.4085 21.1534 39.0291 20.6572 39.659C20.1868 39.4825 19.9246 39.1385 19.6168 38.7602C19.5621 38.6943 19.5074 38.6283 19.451 38.5603C19.286 38.3611 19.1222 38.161 18.9587 37.9605C18.8715 37.8541 18.7844 37.7477 18.6946 37.6381C18.5304 37.4372 18.3665 37.2361 18.2028 37.0348C17.9044 36.6722 17.6003 36.315 17.2956 35.9578C16.8475 35.4318 16.4205 34.8965 16.0146 34.3371C16.1964 33.8381 16.5743 33.5627 16.97 33.2331C17.0364 33.1757 17.1027 33.1184 17.1711 33.0593C17.6705 32.6386 17.6705 32.6386 18.0528 32.6386C18.3049 32.9071 18.3049 32.9071 18.5765 33.2543C18.6667 33.3686 18.7569 33.4829 18.8499 33.6007C18.9231 33.6942 18.9964 33.7878 19.0719 33.8842C19.128 33.9402 19.128 33.9402 19.1851 33.9974C19.2225 32.6522 19.2599 31.307 19.2984 29.9211Z" fill="#478767"/>
<path d="M25.8662 11.2379C26.7256 11.2379 27.5851 11.2379 28.4705 11.2379C28.4705 12.583 28.4705 13.9282 28.4705 15.3142C29.33 15.3142 30.1894 15.3142 31.0749 15.3142C31.0749 16.1736 31.0749 17.0331 31.0749 17.9185C29.356 17.9185 27.6372 17.9185 25.8662 17.9185C25.8662 15.7139 25.8662 13.5093 25.8662 11.2379Z" fill="#478767"/>
<path d="M30.2822 35.9224C32.6737 35.9224 35.0651 35.9224 37.5291 35.9224C37.5291 36.7818 37.5291 37.6412 37.5291 38.5267C35.1376 38.5267 32.7462 38.5267 30.2822 38.5267C30.2822 37.6673 30.2822 36.8078 30.2822 35.9224Z" fill="#478767"/>
<path d="M30.2822 29.9211C32.6737 29.9211 35.0651 29.9211 37.5291 29.9211C37.5291 30.7431 37.5291 31.5652 37.5291 32.4122C35.1376 32.4122 32.7462 32.4122 30.2822 32.4122C30.2822 31.5901 30.2822 30.7681 30.2822 29.9211Z" fill="#478767"/>
<path d="M27.7909 36.0356C28.0834 36.2836 28.2987 36.485 28.4703 36.8282C28.5127 37.39 28.4974 37.7469 28.1306 38.187C27.7412 38.4525 27.521 38.5279 27.0478 38.5196C26.6248 38.4043 26.405 38.2639 26.0924 37.9606C25.8963 37.5682 25.9258 37.144 25.9792 36.715C26.1822 36.3616 26.3464 36.1998 26.694 35.9932C27.1059 35.8974 27.3822 35.9261 27.7909 36.0356Z" fill="#478767"/>
<path d="M27.6771 29.9211C28.0646 30.1395 28.2956 30.2983 28.4352 30.7318C28.5017 31.156 28.5005 31.4317 28.3352 31.8319C27.8649 32.3833 27.8649 32.3833 27.4413 32.4484C26.9728 32.4718 26.7236 32.4532 26.3183 32.1999C25.9456 31.8039 25.9345 31.5044 25.9379 30.9773C26.0064 30.5337 26.2241 30.3396 26.5447 30.0343C26.9121 29.8506 27.28 29.8585 27.6771 29.9211Z" fill="#478767"/>
</svg>
