<svg width="36" height="48" viewBox="0 0 36 48" fill="none" xmlns="http://www.w3.org/2000/svg">
<path d="M16.5263 0.699707L15.6991 7.30055H17.5146L19.5974 1.08318L16.5263 0.699707ZM20.4161 1.03906L18.3206 7.30055L24.6707 7.3048L26.1257 2.95216L20.4161 1.03906ZM15.6609 1.4904L12.611 1.82297L13.2091 7.30055H14.9355L15.6609 1.4904ZM10.7403 6.02798C10.2525 6.02798 9.92669 6.40127 9.83803 6.75759C9.79392 6.93575 9.81894 7.07997 9.869 7.16057C9.91863 7.23693 9.98735 7.30055 10.2313 7.30055H12.4413L12.3013 6.02798H10.7403ZM25.9009 6.02798L25.4767 7.30055H27.4916C27.3813 7.08846 27.3347 6.86364 27.3644 6.63881C27.3941 6.41823 27.4789 6.21886 27.5892 6.02798H25.9009ZM9.76465 8.0641V18.5374C9.76465 18.7537 9.883 19.0082 10.0773 19.2034C10.272 19.3985 10.5282 19.5173 10.7403 19.5173L27.0292 19.5215C27.2413 19.5215 27.4959 19.4027 27.691 19.2076C27.8861 19.0125 28.0049 18.758 28.0049 18.5416V15.5299H24.3144C22.448 15.5299 22.448 12.0515 24.3144 12.0515H28.0049V8.06834L9.76465 8.0641ZM24.3144 12.815C23.466 12.815 23.466 14.7663 24.3144 14.7663H25.2604C24.8786 14.6051 24.6114 14.2276 24.6114 13.7907C24.6114 13.3538 24.8786 12.9762 25.2604 12.815H24.3144ZM26.0833 12.815C26.4651 12.9762 26.7323 13.3538 26.7323 13.7907C26.7323 14.2276 26.4651 14.6051 26.0833 14.7663H28.6836V12.815H26.0833ZM25.6718 13.4938C25.5022 13.4938 25.3749 13.621 25.3749 13.7907C25.3749 13.9604 25.5022 14.0876 25.6718 14.0876C25.8415 14.0876 25.9688 13.9604 25.9688 13.7907C25.9688 13.621 25.8415 13.4938 25.6718 13.4938Z" fill="#52A67C"/>
<path d="M1.59156 44.0134V34.5826H7.149V35.9838H2.99271V38.2606H6.50232V39.6618H2.99271V44.0134H1.59156ZM7.5716 41.4873V37.2771H8.97274V41.1438C8.97274 41.4447 9.04684 41.7186 9.19504 41.9656C9.34324 42.2126 9.54084 42.4102 9.78784 42.5584C10.0348 42.7021 10.3065 42.7739 10.6029 42.7739C10.9038 42.7739 11.1755 42.7021 11.418 42.5584C11.665 42.4102 11.8604 42.2126 12.0041 41.9656C12.1523 41.7186 12.2264 41.4447 12.2264 41.1438V37.2771H13.6275L13.6343 44.0134H12.2331L12.2264 43.2859C11.9973 43.5643 11.7122 43.7844 11.3709 43.9461C11.0296 44.1077 10.6636 44.1886 10.2728 44.1886C9.77436 44.1886 9.32079 44.0673 8.91212 43.8248C8.50345 43.5823 8.17786 43.2567 7.93536 42.848C7.69285 42.4394 7.5716 41.9858 7.5716 41.4873ZM21.0479 39.7898V44.0134H19.6467V40.1333C19.6467 39.8324 19.5726 39.5585 19.4244 39.3115C19.2807 39.0645 19.0854 38.8691 18.8384 38.7254C18.5959 38.5772 18.3219 38.5031 18.0165 38.5031C17.7201 38.5031 17.4484 38.5772 17.2014 38.7254C16.9544 38.8691 16.7568 39.0645 16.6086 39.3115C16.4604 39.5585 16.3863 39.8324 16.3863 40.1333V44.0134H14.9852V37.2771H16.3863V37.9912C16.6199 37.7127 16.9073 37.4927 17.2486 37.331C17.5899 37.1694 17.9582 37.0885 18.3533 37.0885C18.8518 37.0885 19.3054 37.2098 19.7141 37.4523C20.1227 37.6948 20.4461 38.0204 20.6841 38.429C20.9266 38.8377 21.0479 39.2913 21.0479 39.7898ZM27.5085 33.909H28.9096V44.0134H27.5085V43.0232C27.2884 43.3735 27.001 43.6564 26.6462 43.872C26.2915 44.083 25.8761 44.1886 25.4 44.1886C24.9105 44.1886 24.4525 44.0965 24.0258 43.9124C23.5992 43.7283 23.222 43.4745 22.8941 43.1512C22.5708 42.8233 22.3171 42.4461 22.1329 42.0195C21.9488 41.5929 21.8567 41.1348 21.8567 40.6453C21.8567 40.1558 21.9488 39.6977 22.1329 39.2711C22.3171 38.84 22.5708 38.4627 22.8941 38.1394C23.222 37.8115 23.5992 37.5556 24.0258 37.3714C24.4525 37.1873 24.9105 37.0953 25.4 37.0953C25.8761 37.0953 26.2915 37.203 26.6462 37.4186C27.001 37.6297 27.2884 37.9081 27.5085 38.2539V33.909ZM25.4135 42.8346C25.8087 42.8346 26.1545 42.738 26.4509 42.5449C26.7473 42.3473 26.9763 42.0824 27.138 41.75C27.3042 41.4177 27.3872 41.0495 27.3872 40.6453C27.3872 40.2366 27.3042 39.8661 27.138 39.5338C26.9718 39.2015 26.7406 38.9388 26.4442 38.7456C26.1523 38.548 25.8087 38.4493 25.4135 38.4493C25.0228 38.4493 24.6658 38.548 24.3424 38.7456C24.0236 38.9432 23.7676 39.2082 23.5745 39.5405C23.3859 39.8729 23.2916 40.2411 23.2916 40.6453C23.2916 41.054 23.3881 41.4244 23.5812 41.7568C23.7788 42.0846 24.0371 42.3473 24.3559 42.5449C24.6793 42.738 25.0318 42.8346 25.4135 42.8346ZM32.5443 44.1414C32.1895 44.119 31.8437 44.0471 31.5069 43.9259C31.1701 43.8046 30.8737 43.6407 30.6177 43.4341C30.3662 43.223 30.1776 42.976 30.0519 42.6931L31.2442 42.1812C31.3026 42.3024 31.4036 42.4214 31.5473 42.5382C31.6955 42.6549 31.8684 42.7515 32.066 42.8278C32.2636 42.8997 32.4702 42.9356 32.6858 42.9356C32.8968 42.9356 33.0922 42.9064 33.2718 42.848C33.4559 42.7852 33.6064 42.6909 33.7231 42.5651C33.8399 42.4394 33.8983 42.2889 33.8983 42.1138C33.8983 41.9162 33.8309 41.7635 33.6962 41.6557C33.566 41.5435 33.402 41.4581 33.2044 41.3997C33.0069 41.3414 32.8093 41.2852 32.6117 41.2313C32.1716 41.1325 31.7674 40.9978 31.3991 40.8272C31.0354 40.652 30.7457 40.4297 30.5301 40.1603C30.3146 39.8863 30.2068 39.5518 30.2068 39.1566C30.2068 38.7254 30.3236 38.3527 30.5571 38.0383C30.7906 37.7195 31.096 37.4747 31.4732 37.3041C31.8549 37.1334 32.2614 37.0481 32.6925 37.0481C33.2314 37.0481 33.7254 37.1626 34.1745 37.3917C34.6236 37.6207 34.9671 37.935 35.2051 38.3347L34.0936 38.9949C34.0263 38.8602 33.9252 38.7389 33.7905 38.6311C33.6558 38.5233 33.5031 38.438 33.3324 38.3752C33.1618 38.3078 32.9844 38.2696 32.8003 38.2606C32.5712 38.2517 32.3579 38.2786 32.1603 38.3415C31.9672 38.3999 31.8123 38.4942 31.6955 38.6244C31.5788 38.7546 31.5204 38.9208 31.5204 39.1229C31.5204 39.3205 31.59 39.4687 31.7292 39.5675C31.8684 39.6618 32.0436 39.7381 32.2546 39.7965C32.4702 39.8549 32.6902 39.92 32.9148 39.9919C33.3145 40.1176 33.6895 40.2725 34.0397 40.4567C34.39 40.6363 34.673 40.8586 34.8885 41.1236C35.1041 41.3885 35.2074 41.7119 35.1984 42.0936C35.1984 42.5157 35.0704 42.8862 34.8144 43.2051C34.5629 43.5239 34.2351 43.7664 33.8309 43.9326C33.4267 44.0988 32.9979 44.1684 32.5443 44.1414Z" fill="#52A67C"/>
</svg>
