<svg width="28" height="28" viewBox="0 0 28 28" fill="none" xmlns="http://www.w3.org/2000/svg">
<path d="M4.18652 12.788V17.829C4.18652 22.8699 6.20741 24.8908 11.2484 24.8908H17.2998C22.3408 24.8908 24.3617 22.8699 24.3617 17.829V12.788" stroke="white" stroke-width="1.68407" stroke-linecap="round" stroke-linejoin="round"/>
<path d="M14.2798 13.6634C16.3343 13.6634 17.85 11.9906 17.6479 9.93602L16.9069 2.43628H11.6639L10.9116 9.93602C10.7095 11.9906 12.2252 13.6634 14.2798 13.6634Z" stroke="white" stroke-width="1.68407" stroke-linecap="round" stroke-linejoin="round"/>
<path d="M21.3644 13.6634C23.6323 13.6634 25.2939 11.8222 25.0694 9.56552L24.755 6.47805C24.3508 3.55899 23.2281 2.43628 20.2866 2.43628H16.8623L17.6482 10.3065C17.8391 12.159 19.5119 13.6634 21.3644 13.6634Z" stroke="white" stroke-width="1.68407" stroke-linecap="round" stroke-linejoin="round"/>
<path d="M7.13935 13.6634C8.99183 13.6634 10.6647 12.159 10.8443 10.3065L11.0913 7.82531L11.6302 2.43628H8.20593C5.26442 2.43628 4.1417 3.55899 3.73752 6.47805L3.43439 9.56552C3.20985 11.8222 4.87147 13.6634 7.13935 13.6634Z" stroke="white" stroke-width="1.68407" stroke-linecap="round" stroke-linejoin="round"/>
<path d="M14.2804 19.277C12.4055 19.277 11.4736 20.2088 11.4736 22.0838V24.8906H17.0872V22.0838C17.0872 20.2088 16.1554 19.277 14.2804 19.277Z" stroke="white" stroke-width="1.68407" stroke-linecap="round" stroke-linejoin="round"/>
</svg>
