<svg width="28" height="28" viewBox="0 0 28 28" fill="none" xmlns="http://www.w3.org/2000/svg">
<path d="M3.46875 13.1688V18.2098C3.46875 23.2508 5.48964 25.2717 10.5306 25.2717H16.5821C21.6231 25.2717 23.6439 23.2508 23.6439 18.2098V13.1688" stroke="white" stroke-width="1.68407" stroke-linecap="round" stroke-linejoin="round"/>
<path d="M13.562 14.0443C15.6166 14.0443 17.1322 12.3714 16.9302 10.3169L16.1892 2.81714H10.9461L10.1939 10.3169C9.99177 12.3714 11.5074 14.0443 13.562 14.0443Z" stroke="white" stroke-width="1.68407" stroke-linecap="round" stroke-linejoin="round"/>
<path d="M20.6466 14.0443C22.9145 14.0443 24.5761 12.203 24.3516 9.94638L24.0372 6.85891C23.633 3.93985 22.5103 2.81714 19.5688 2.81714H16.1445L16.9304 10.6874C17.1213 12.5399 18.7941 14.0443 20.6466 14.0443Z" stroke="white" stroke-width="1.68407" stroke-linecap="round" stroke-linejoin="round"/>
<path d="M6.42158 14.0443C8.27406 14.0443 9.9469 12.5399 10.1265 10.6874L10.3735 8.20617L10.9124 2.81714H7.48816C4.54664 2.81714 3.42393 3.93985 3.01975 6.85891L2.71662 9.94638C2.49207 12.203 4.15369 14.0443 6.42158 14.0443Z" stroke="white" stroke-width="1.68407" stroke-linecap="round" stroke-linejoin="round"/>
<path d="M13.5626 19.6578C11.6877 19.6578 10.7559 20.5897 10.7559 22.4646V25.2714H16.3694V22.4646C16.3694 20.5897 15.4376 19.6578 13.5626 19.6578Z" stroke="white" stroke-width="1.68407" stroke-linecap="round" stroke-linejoin="round"/>
</svg>
