<svg width="20" height="21" viewBox="0 0 20 21" fill="none" xmlns="http://www.w3.org/2000/svg">
<path d="M16.3392 8.08622H15.5965V5.7832C15.5965 3.01403 13.1304 0.844971 9.62752 0.844971C6.1105 0.844971 3.71346 3.06019 3.71346 5.7832V8.08622H2.97077C1.33239 8.08622 0 9.16879 0 10.5V17.7412C0 19.0724 1.33239 20.155 2.97077 20.155H16.3392C17.9776 20.155 19.31 19.0724 19.31 17.7412V10.5C19.31 9.16879 17.9776 8.08622 16.3392 8.08622ZM5.19885 5.7832C5.19885 3.72608 6.92932 2.05185 9.62752 2.05185C12.2979 2.05185 14.1112 3.69078 14.1112 5.7832V8.08622H5.19885V5.7832ZM17.8246 17.7412C17.8246 18.4065 17.1581 18.9481 16.3393 18.9481H2.97079C2.15197 18.9481 1.48541 18.4065 1.48541 17.7412V10.5C1.48541 9.83468 2.15197 9.2931 2.97079 9.2931H16.3393C17.1581 9.2931 17.8246 9.83468 17.8246 10.5V17.7412ZM9.65502 11.7068C8.83472 11.7068 8.16964 12.2472 8.16964 12.9137C8.16964 13.3594 8.47043 13.7441 8.91233 13.9531V15.9309C8.91233 16.264 9.24506 16.5343 9.65502 16.5343C10.065 16.5343 10.3977 16.264 10.3977 15.9309V13.9531C10.8396 13.7441 11.1404 13.3591 11.1404 12.9137C11.1404 12.2472 10.4753 11.7068 9.65502 11.7068Z" fill="#478767"/>
</svg>
