<svg width="138" height="36" viewBox="0 0 138 36" fill="none" xmlns="http://www.w3.org/2000/svg">
<circle cx="17.3594" cy="17.6406" r="17.3594" fill="white"/>
<path d="M8.13404 21.4753L13.9814 24.7791V7.47489L23.4463 13.0114L16.4573 16.8933L23.4463 22.8753L2.46582 30.0553L12.9249 34.9797L34.1908 24.7791L28.9739 18.8661L26.8137 16.8933L35.4431 13.0114L29.4131 8.89526L14.154 0L8.13404 2.5046V21.4753Z" fill="#478767"/>
<path d="M43.6748 29.0347V12.3098H49.8988C50.7987 12.3098 51.6151 12.497 52.3478 12.8713C53.0805 13.2377 53.6579 13.7633 54.08 14.4482C54.5101 15.1332 54.7251 15.9375 54.7251 16.8614C54.7251 17.2357 54.6733 17.622 54.5698 18.0202C54.4742 18.4184 54.307 18.7847 54.0681 19.1192C53.8371 19.4537 53.5185 19.7086 53.1123 19.8838C53.638 20.0112 54.0601 20.2502 54.3787 20.6006C54.6972 20.943 54.9401 21.3412 55.1074 21.7952C55.2746 22.2412 55.3861 22.6991 55.4419 23.169C55.4976 23.6389 55.5255 24.065 55.5255 24.4473C55.5255 25.3074 55.3025 26.0839 54.8565 26.7768C54.4105 27.4697 53.8092 28.0192 53.0526 28.4254C52.304 28.8316 51.4757 29.0347 50.5678 29.0347H43.6748ZM46.9719 26.2273H50.2213C50.6594 26.2273 51.0576 26.1238 51.416 25.9167C51.7744 25.7016 52.0611 25.411 52.2761 25.0446C52.4911 24.6703 52.5987 24.2482 52.5987 23.7783C52.5987 23.3801 52.4911 23.0018 52.2761 22.6434C52.0611 22.285 51.7744 21.9943 51.416 21.7713C51.0576 21.5404 50.6594 21.4249 50.2213 21.4249H46.9719V26.2273ZM46.9719 18.6772H49.5165C50.0421 18.6772 50.4921 18.506 50.8664 18.1635C51.2408 17.8211 51.4279 17.3791 51.4279 16.8375C51.4279 16.28 51.2408 15.8579 50.8664 15.5712C50.4921 15.2765 50.0421 15.1292 49.5165 15.1292H46.9719V18.6772ZM68.4691 21.4368V29.0347H65.172V22.3447C65.172 21.9226 65.0684 21.5443 64.8613 21.2098C64.6622 20.8674 64.3915 20.5966 64.049 20.3975C63.7145 20.1984 63.3402 20.0988 62.926 20.0988C62.5119 20.0988 62.1336 20.1984 61.7911 20.3975C61.4487 20.5966 61.1779 20.8674 60.9788 21.2098C60.7797 21.5443 60.6801 21.9226 60.6801 22.3447V29.0347H57.383L57.371 11.1152H60.6682L60.6801 17.9724C61.0784 17.5901 61.5443 17.2915 62.0779 17.0764C62.6194 16.8614 63.1889 16.7539 63.7862 16.7539C64.6543 16.7539 65.4388 16.9649 66.1396 17.387C66.8484 17.8091 67.4139 18.3746 67.836 19.0834C68.2581 19.7842 68.4691 20.5687 68.4691 21.4368ZM79.3925 17.0884H82.6897V29.0347H79.3806L79.2253 27.7923C78.9147 28.2542 78.5165 28.6285 78.0307 28.9152C77.5448 29.2019 76.9754 29.3453 76.3223 29.3453C75.4303 29.3453 74.5981 29.178 73.8256 28.8435C73.053 28.509 72.3721 28.0471 71.7827 27.4578C71.1934 26.8684 70.7315 26.1875 70.397 25.4149C70.0704 24.6344 69.9072 23.7982 69.9072 22.9062C69.9072 22.054 70.0625 21.2576 70.3731 20.517C70.6837 19.7763 71.1217 19.1232 71.6872 18.5578C72.2526 17.9923 72.9017 17.5503 73.6344 17.2317C74.3751 16.9132 75.1715 16.7539 76.0237 16.7539C76.7564 16.7539 77.4134 16.9092 77.9948 17.2198C78.5842 17.5304 79.0979 17.9246 79.5359 18.4025L79.3925 17.0884ZM76.2387 26.1795C76.7803 26.1795 77.2701 26.0401 77.7081 25.7614C78.1461 25.4826 78.4926 25.1083 78.7474 24.6384C79.0023 24.1606 79.1297 23.6349 79.1297 23.0615C79.1297 22.4801 79.0023 21.9545 78.7474 21.4846C78.4926 21.0147 78.1461 20.6404 77.7081 20.3617C77.2701 20.0829 76.7803 19.9435 76.2387 19.9435C75.6892 19.9435 75.1914 20.0829 74.7454 20.3617C74.2994 20.6404 73.945 21.0187 73.6822 21.4966C73.4194 21.9664 73.288 22.4881 73.288 23.0615C73.288 23.6349 73.4194 24.1606 73.6822 24.6384C73.953 25.1083 74.3114 25.4826 74.7574 25.7614C75.2034 26.0401 75.6971 26.1795 76.2387 26.1795ZM84.6123 24.6623V17.0884H87.9095V23.7544C87.9095 24.1765 88.0091 24.5588 88.2082 24.9012C88.4152 25.2357 88.69 25.5025 89.0325 25.7016C89.3749 25.9008 89.7492 26.0003 90.1554 26.0003C90.5695 26.0003 90.9478 25.9008 91.2903 25.7016C91.6328 25.5025 91.9035 25.2357 92.1027 24.9012C92.3018 24.5588 92.4013 24.1765 92.4013 23.7544V17.0884H95.6985L95.7104 29.0347H92.4133L92.4013 28.1267C92.0031 28.509 91.5332 28.8077 90.9916 29.0227C90.458 29.2378 89.8926 29.3453 89.2953 29.3453C88.4351 29.3453 87.6507 29.1342 86.9418 28.7121C86.233 28.29 85.6676 27.7285 85.2455 27.0277C84.8234 26.3189 84.6123 25.5304 84.6123 24.6623ZM97.8828 29.0347L105.624 15.607H97.1541V12.3098H109.447V15.607L101.682 29.0347H97.8828ZM111.136 29.0347L118.877 15.607H110.407V12.3098H122.7V15.607L114.935 29.0347H111.136ZM124.389 29.0347L132.13 15.607H123.66V12.3098H135.953V15.607L128.188 29.0347H124.389Z" fill="white"/>
</svg>
