<svg width="23" height="19" viewBox="0 0 23 19" fill="none" xmlns="http://www.w3.org/2000/svg">
<path fill-rule="evenodd" clip-rule="evenodd" d="M0.700195 6.80005C0.700195 6.44201 0.842427 6.09863 1.0956 5.84546C1.34878 5.59228 1.69215 5.45005 2.0502 5.45005H15.966C16.324 5.45005 16.6674 5.59228 16.9206 5.84546C17.1738 6.09863 17.316 6.44201 17.316 6.80005C17.316 7.15809 17.1738 7.50147 16.9206 7.75464C16.6674 8.00782 16.324 8.15005 15.966 8.15005H2.0502C1.69215 8.15005 1.34878 8.00782 1.0956 7.75464C0.842427 7.50147 0.700195 7.15809 0.700195 6.80005ZM0.700195 1.40005C0.700195 1.04201 0.842427 0.698629 1.0956 0.445455C1.34878 0.192281 1.69215 0.0500488 2.0502 0.0500488H20.9502C21.3082 0.0500488 21.6516 0.192281 21.9048 0.445455C22.158 0.698629 22.3002 1.04201 22.3002 1.40005C22.3002 1.75809 22.158 2.10147 21.9048 2.35464C21.6516 2.60782 21.3082 2.75005 20.9502 2.75005H2.0502C1.69215 2.75005 1.34878 2.60782 1.0956 2.35464C0.842427 2.10147 0.700195 1.75809 0.700195 1.40005ZM0.700195 12.2C0.700195 11.842 0.842427 11.4986 1.0956 11.2455C1.34878 10.9923 1.69215 10.85 2.0502 10.85H20.9502C21.3082 10.85 21.6516 10.9923 21.9048 11.2455C22.158 11.4986 22.3002 11.842 22.3002 12.2C22.3002 12.5581 22.158 12.9015 21.9048 13.1546C21.6516 13.4078 21.3082 13.55 20.9502 13.55H2.0502C1.69215 13.55 1.34878 13.4078 1.0956 13.1546C0.842427 12.9015 0.700195 12.5581 0.700195 12.2ZM0.700195 17.6C0.700195 17.242 0.842427 16.8986 1.0956 16.6455C1.34878 16.3923 1.69215 16.25 2.0502 16.25H15.966C16.324 16.25 16.6674 16.3923 16.9206 16.6455C17.1738 16.8986 17.316 17.242 17.316 17.6C17.316 17.9581 17.1738 18.3015 16.9206 18.5546C16.6674 18.8078 16.324 18.95 15.966 18.95H2.0502C1.69215 18.95 1.34878 18.8078 1.0956 18.5546C0.842427 18.3015 0.700195 17.9581 0.700195 17.6Z" fill="white"/>
</svg>
