<svg width="21" height="21" viewBox="0 0 21 21" fill="none" xmlns="http://www.w3.org/2000/svg">
<path d="M14.8908 14.6809C14.8908 14.5574 14.848 14.4541 14.7625 14.3708C14.6763 14.2883 14.5759 14.247 14.4614 14.247C14.3476 14.247 14.2476 14.2898 14.1614 14.3753C14.0758 14.4615 14.0331 14.5619 14.0331 14.6764V17.4592C14.0331 17.5827 14.0758 17.686 14.1614 17.7693C14.2476 17.8519 14.348 17.8931 14.4625 17.8931C14.5763 17.8931 14.6759 17.8504 14.7614 17.7649C14.8477 17.6786 14.8908 17.5782 14.8908 17.4637V14.6809ZM16.3921 14.6753V17.4581C16.3921 17.5823 16.4352 17.6857 16.5215 17.7682C16.607 17.8515 16.707 17.8931 16.8215 17.8931C16.936 17.8931 17.036 17.85 17.1215 17.7637C17.207 17.6775 17.2498 17.5775 17.2498 17.4637V14.6809C17.2498 14.5574 17.207 14.4541 17.1215 14.3708C17.036 14.2883 16.9356 14.247 16.8204 14.247C16.7066 14.247 16.607 14.2898 16.5215 14.3753C16.4352 14.4615 16.3921 14.5608 16.3921 14.6753ZM3.67249 5.60183H14.226C14.3837 5.60183 14.516 5.5483 14.6231 5.44122C14.7302 5.33415 14.7837 5.20179 14.7837 5.04415C14.7837 4.8709 14.7302 4.73483 14.6231 4.63593C14.516 4.53629 14.3837 4.48647 14.226 4.48647H3.67249C3.51485 4.48647 3.38249 4.54001 3.27542 4.64708C3.16834 4.75416 3.1148 4.88689 3.1148 5.04527C3.1148 5.20365 3.16834 5.33601 3.27542 5.44234C3.38249 5.54867 3.51485 5.60183 3.67249 5.60183ZM15.6414 20.5321C14.3989 20.5321 13.3449 20.0989 12.4794 19.2327C11.6131 18.3672 11.18 17.3131 11.18 16.0706C11.18 14.8281 11.6131 13.7737 12.4794 12.9075C13.3456 12.0412 14.3997 11.6084 15.6414 11.6092C16.8832 11.6099 17.9376 12.0427 18.8046 12.9075C19.6716 13.7722 20.1044 14.8266 20.1029 16.0706C20.1029 17.3124 19.6701 18.3664 18.8046 19.2327C17.9376 20.0989 16.8832 20.5321 15.6414 20.5321ZM0.0263672 2.1286C0.0263672 1.63263 0.202966 1.20842 0.556164 0.855969C0.909362 0.503514 1.3332 0.326915 1.82768 0.326172H16.0709C16.5661 0.326172 16.9899 0.502771 17.3424 0.855969C17.6948 1.20917 17.8714 1.633 17.8722 2.12748V8.05898C17.8722 8.21661 17.8186 8.34897 17.7115 8.45605C17.6045 8.56312 17.4717 8.61666 17.3134 8.61666C17.155 8.61666 17.0226 8.56312 16.9163 8.45605C16.81 8.34897 16.7568 8.21661 16.7568 8.05898V2.1286C16.7568 1.95683 16.6854 1.79919 16.5426 1.65568C16.3999 1.51217 16.2422 1.44079 16.0697 1.44153H1.82879C1.65703 1.44153 1.49939 1.51292 1.35588 1.65568C1.21237 1.79845 1.14099 1.95609 1.14173 2.1286V17.1124H8.21759C8.23617 17.2641 8.26332 17.4157 8.29901 17.5674C8.33544 17.7191 8.37634 17.8656 8.4217 18.0069C8.47152 18.14 8.43806 18.2489 8.32131 18.3337C8.20383 18.4192 8.09229 18.4229 7.98671 18.3448L7.70898 18.1552C7.62644 18.101 7.53945 18.0738 7.44799 18.0738C7.35653 18.0738 7.26916 18.101 7.18588 18.1552L6.2077 18.8323C6.12517 18.8873 6.03817 18.9148 5.94671 18.9148C5.85525 18.9148 5.76788 18.8873 5.6846 18.8323L4.70643 18.1552C4.62315 18.101 4.53578 18.0738 4.44432 18.0738C4.35286 18.0738 4.26586 18.101 4.18332 18.1552L3.20515 18.8323C3.12261 18.8873 3.03561 18.9148 2.94415 18.9148C2.85269 18.9148 2.76532 18.8873 2.68204 18.8323L1.70387 18.1552C1.62059 18.101 1.53322 18.0738 1.44176 18.0738C1.3503 18.0738 1.2633 18.101 1.18077 18.1552L0.0263672 19.0509V2.1286ZM3.6736 14.0105H7.99451C8.15289 14.0105 8.28525 13.957 8.39158 13.8499C8.49791 13.7429 8.55145 13.6105 8.55219 13.4529C8.55294 13.2952 8.4994 13.1629 8.39158 13.0558C8.28376 12.9487 8.15141 12.8952 7.99451 12.8952H3.6736C3.51596 12.8952 3.38361 12.9487 3.27653 13.0558C3.16946 13.1629 3.11592 13.2956 3.11592 13.454C3.11592 13.6124 3.16946 13.7447 3.27653 13.8511C3.38361 13.9574 3.51596 14.0105 3.6736 14.0105ZM3.6736 9.80675H11.7087C11.8663 9.80675 11.9987 9.75321 12.1057 9.64614C12.2128 9.53906 12.2663 9.40633 12.2663 9.24795C12.2663 9.08957 12.2128 8.95721 12.1057 8.85088C11.9987 8.74455 11.8663 8.69139 11.7087 8.69139H3.67249C3.51485 8.69139 3.38249 8.74492 3.27542 8.852C3.16834 8.95907 3.1148 9.0918 3.1148 9.25018C3.1148 9.40857 3.16834 9.54092 3.27542 9.64725C3.38249 9.75358 3.51596 9.80675 3.6736 9.80675Z" fill="#52A67C"/>
</svg>
