<svg width="58" height="47" viewBox="0 0 58 47" fill="none" xmlns="http://www.w3.org/2000/svg">
<path d="M30.6086 15.3C30.6086 15.1766 30.5658 15.0732 30.4803 14.9899C30.394 14.9074 30.2937 14.8661 30.1792 14.8661C30.0654 14.8661 29.9654 14.9089 29.8791 14.9944C29.7936 15.0807 29.7509 15.181 29.7509 15.2956V18.0784C29.7509 18.2018 29.7936 18.3052 29.8791 18.3885C29.9654 18.471 30.0658 18.5123 30.1803 18.5123C30.294 18.5123 30.3937 18.4695 30.4792 18.384C30.5654 18.2977 30.6086 18.1974 30.6086 18.0828V15.3ZM32.1098 15.2944V18.0773C32.1098 18.2015 32.153 18.3048 32.2392 18.3873C32.3247 18.4706 32.4248 18.5123 32.5393 18.5123C32.6538 18.5123 32.7538 18.4691 32.8393 18.3829C32.9248 18.2966 32.9676 18.1966 32.9676 18.0828V15.3C32.9676 15.1766 32.9248 15.0732 32.8393 14.9899C32.7538 14.9074 32.6534 14.8661 32.5381 14.8661C32.4244 14.8661 32.3247 14.9089 32.2392 14.9944C32.153 15.0807 32.1098 15.1799 32.1098 15.2944ZM19.3903 6.22097H29.9438C30.1015 6.22097 30.2338 6.16744 30.3409 6.06036C30.448 5.95329 30.5015 5.82093 30.5015 5.66329C30.5015 5.49004 30.448 5.35397 30.3409 5.25507C30.2338 5.15543 30.1015 5.10561 29.9438 5.10561H19.3903C19.2326 5.10561 19.1003 5.15915 18.9932 5.26622C18.8861 5.3733 18.8326 5.50603 18.8326 5.66441C18.8326 5.82279 18.8861 5.95515 18.9932 6.06148C19.1003 6.16781 19.2326 6.22097 19.3903 6.22097ZM31.3592 21.1512C30.1167 21.1512 29.0627 20.7181 28.1972 19.8518C27.3309 18.9863 26.8978 17.9323 26.8978 16.6898C26.8978 15.4472 27.3309 14.3929 28.1972 13.5266C29.0634 12.6603 30.1174 12.2276 31.3592 12.2283C32.601 12.2291 33.6554 12.6618 34.5224 13.5266C35.3894 14.3914 35.8221 15.4458 35.8207 16.6898C35.8207 17.9315 35.3879 18.9855 34.5224 19.8518C33.6554 20.7181 32.601 21.1512 31.3592 21.1512ZM15.7441 2.74774C15.7441 2.25177 15.9207 1.82756 16.2739 1.47511C16.6271 1.12265 17.051 0.946056 17.5455 0.945312H31.7886C32.2838 0.945312 32.7077 1.12191 33.0601 1.47511C33.4126 1.82831 33.5892 2.25214 33.5899 2.74662V8.67812C33.5899 8.83575 33.5364 8.96811 33.4293 9.07519C33.3222 9.18226 33.1895 9.2358 33.0311 9.2358C32.8728 9.2358 32.7404 9.18226 32.6341 9.07519C32.5277 8.96811 32.4746 8.83575 32.4746 8.67812V2.74774C32.4746 2.57597 32.4032 2.41833 32.2604 2.27482C32.1177 2.13131 31.96 2.05993 31.7875 2.06067H17.5466C17.3748 2.06067 17.2172 2.13206 17.0737 2.27482C16.9301 2.41759 16.8588 2.57523 16.8595 2.74774V17.7315H23.9354C23.9539 17.8832 23.9811 18.0349 24.0168 18.1866C24.0532 18.3383 24.0941 18.4848 24.1395 18.626C24.1893 18.7591 24.1558 18.8681 24.0391 18.9528C23.9216 19.0383 23.8101 19.0421 23.7045 18.964L23.4268 18.7744C23.3442 18.7201 23.2572 18.693 23.1658 18.693C23.0743 18.693 22.9869 18.7201 22.9036 18.7744L21.9255 19.4514C21.8429 19.5064 21.7559 19.5339 21.6645 19.5339C21.573 19.5339 21.4857 19.5064 21.4024 19.4514L20.4242 18.7744C20.3409 18.7201 20.2535 18.693 20.1621 18.693C20.0706 18.693 19.9836 18.7201 19.9011 18.7744L18.9229 19.4514C18.8404 19.5064 18.7534 19.5339 18.6619 19.5339C18.5705 19.5339 18.4831 19.5064 18.3998 19.4514L17.4216 18.7744C17.3384 18.7201 17.251 18.693 17.1595 18.693C17.0681 18.693 16.9811 18.7201 16.8985 18.7744L15.7441 19.67V2.74774ZM19.3914 14.6297H23.7123C23.8707 14.6297 24.003 14.5762 24.1094 14.4691C24.2157 14.362 24.2692 14.2296 24.27 14.072C24.2707 13.9144 24.2172 13.782 24.1094 13.6749C24.0015 13.5679 23.8692 13.5143 23.7123 13.5143H19.3914C19.2337 13.5143 19.1014 13.5679 18.9943 13.6749C18.8872 13.782 18.8337 13.9147 18.8337 14.0731C18.8337 14.2315 18.8872 14.3639 18.9943 14.4702C19.1014 14.5765 19.2337 14.6297 19.3914 14.6297ZM19.3914 10.4259H27.4264C27.5841 10.4259 27.7164 10.3724 27.8235 10.2653C27.9306 10.1582 27.9841 10.0255 27.9841 9.86709C27.9841 9.70871 27.9306 9.57635 27.8235 9.47002C27.7164 9.36369 27.5841 9.31053 27.4264 9.31053H19.3903C19.2326 9.31053 19.1003 9.36407 18.9932 9.47114C18.8861 9.57821 18.8326 9.71094 18.8326 9.86932C18.8326 10.0277 18.8861 10.1601 18.9932 10.2664C19.1003 10.3727 19.2337 10.4259 19.3914 10.4259Z" fill="#52A67C"/>
<path d="M0.834722 43.1357V33.7049H4.08162C4.58908 33.7049 5.04715 33.8307 5.45582 34.0822C5.86898 34.3337 6.19681 34.6727 6.43932 35.0993C6.68631 35.526 6.80981 35.9975 6.80981 36.514C6.80981 37.0394 6.68407 37.5154 6.43258 37.9421C6.18558 38.3642 5.85551 38.701 5.44235 38.9525C5.02919 39.204 4.57561 39.3297 4.08162 39.3297H2.23587V43.1357H0.834722ZM2.23587 37.9286H3.94015C4.2096 37.9286 4.45436 37.8612 4.67441 37.7265C4.89895 37.5918 5.07634 37.4121 5.20658 37.1876C5.3413 36.9631 5.40866 36.7093 5.40866 36.4264C5.40866 36.1435 5.3413 35.8897 5.20658 35.6652C5.07634 35.4362 4.89895 35.2565 4.67441 35.1263C4.45436 34.9916 4.2096 34.9242 3.94015 34.9242H2.23587V37.9286ZM12.825 36.3995H14.2262V43.1357H12.8183L12.7644 42.159C12.5668 42.5048 12.2996 42.7832 11.9628 42.9943C11.6259 43.2054 11.2285 43.3109 10.7704 43.3109C10.2764 43.3109 9.81164 43.2188 9.37602 43.0347C8.94041 42.8461 8.55644 42.5856 8.22412 42.2533C7.89629 41.921 7.64031 41.5392 7.45618 41.1081C7.27206 40.6725 7.17999 40.2055 7.17999 39.707C7.17999 39.2264 7.26981 38.7751 7.44945 38.353C7.62908 37.9263 7.87832 37.5536 8.19717 37.2348C8.51602 36.9159 8.88428 36.6667 9.30193 36.487C9.72407 36.3029 10.1754 36.2108 10.6559 36.2108C11.1454 36.2108 11.5765 36.3231 11.9493 36.5476C12.3265 36.7677 12.6386 37.0506 12.8856 37.3964L12.825 36.3995ZM10.7368 41.9569C11.132 41.9569 11.4777 41.8603 11.7741 41.6672C12.0705 41.4696 12.2996 41.2047 12.4612 40.8723C12.6274 40.54 12.7105 40.1718 12.7105 39.7676C12.7105 39.3589 12.6274 38.9884 12.4612 38.6561C12.2951 38.3238 12.0638 38.0611 11.7674 37.868C11.4755 37.6704 11.132 37.5716 10.7368 37.5716C10.3461 37.5716 9.98903 37.6704 9.66569 37.868C9.34234 38.0656 9.08636 38.3305 8.89775 38.6628C8.70913 38.9952 8.61482 39.3634 8.61482 39.7676C8.61482 40.1763 8.71138 40.5468 8.90448 40.8791C9.10208 41.2069 9.36031 41.4696 9.67916 41.6672C10.0025 41.8603 10.355 41.9569 10.7368 41.9569ZM17.5912 43.2637C17.2365 43.2413 16.8907 43.1694 16.5539 43.0482C16.217 42.9269 15.9206 42.763 15.6647 42.5564C15.4132 42.3454 15.2246 42.0984 15.0988 41.8154L16.2911 41.3035C16.3495 41.4247 16.4506 41.5437 16.5943 41.6605C16.7425 41.7773 16.9154 41.8738 17.113 41.9502C17.3106 42.022 17.5171 42.0579 17.7327 42.0579C17.9438 42.0579 18.1391 42.0287 18.3188 41.9704C18.5029 41.9075 18.6533 41.8132 18.7701 41.6874C18.8869 41.5617 18.9452 41.4113 18.9452 41.2361C18.9452 41.0385 18.8779 40.8858 18.7432 40.778C18.6129 40.6658 18.449 40.5804 18.2514 40.5221C18.0538 40.4637 17.8562 40.4075 17.6586 40.3537C17.2185 40.2549 16.8143 40.1201 16.4461 39.9495C16.0823 39.7743 15.7927 39.552 15.5771 39.2826C15.3615 39.0086 15.2538 38.6741 15.2538 38.2789C15.2538 37.8478 15.3705 37.475 15.604 37.1607C15.8376 36.8418 16.1429 36.597 16.5202 36.4264C16.9019 36.2557 17.3083 36.1704 17.7394 36.1704C18.2784 36.1704 18.7723 36.2849 19.2214 36.514C19.6705 36.743 20.0141 37.0574 20.2521 37.457L19.1406 38.1172C19.0732 37.9825 18.9722 37.8612 18.8375 37.7534C18.7027 37.6457 18.55 37.5603 18.3794 37.4975C18.2087 37.4301 18.0314 37.3919 17.8472 37.3829C17.6182 37.374 17.4049 37.4009 17.2073 37.4638C17.0142 37.5222 16.8592 37.6165 16.7425 37.7467C16.6257 37.8769 16.5673 38.0431 16.5673 38.2452C16.5673 38.4428 16.6369 38.591 16.7762 38.6898C16.9154 38.7841 17.0905 38.8604 17.3016 38.9188C17.5171 38.9772 17.7372 39.0423 17.9617 39.1142C18.3614 39.2399 18.7364 39.3949 19.0867 39.579C19.437 39.7586 19.7199 39.9809 19.9355 40.2459C20.151 40.5108 20.2543 40.8342 20.2453 41.2159C20.2453 41.638 20.1174 42.0085 19.8614 42.3274C19.6099 42.6462 19.2821 42.8887 18.8779 43.0549C18.4737 43.2211 18.0448 43.2907 17.5912 43.2637ZM23.4197 43.2637C23.0649 43.2413 22.7191 43.1694 22.3823 43.0482C22.0455 42.9269 21.7491 42.763 21.4931 42.5564C21.2417 42.3454 21.053 42.0984 20.9273 41.8154L22.1196 41.3035C22.178 41.4247 22.279 41.5437 22.4227 41.6605C22.5709 41.7773 22.7438 41.8738 22.9414 41.9502C23.139 42.022 23.3456 42.0579 23.5612 42.0579C23.7723 42.0579 23.9676 42.0287 24.1472 41.9704C24.3314 41.9075 24.4818 41.8132 24.5986 41.6874C24.7153 41.5617 24.7737 41.4113 24.7737 41.2361C24.7737 41.0385 24.7064 40.8858 24.5716 40.778C24.4414 40.6658 24.2775 40.5804 24.0799 40.5221C23.8823 40.4637 23.6847 40.4075 23.4871 40.3537C23.047 40.2549 22.6428 40.1201 22.2745 39.9495C21.9108 39.7743 21.6211 39.552 21.4056 39.2826C21.19 39.0086 21.0822 38.6741 21.0822 38.2789C21.0822 37.8478 21.199 37.475 21.4325 37.1607C21.666 36.8418 21.9714 36.597 22.3486 36.4264C22.7304 36.2557 23.1368 36.1704 23.5679 36.1704C24.1068 36.1704 24.6008 36.2849 25.0499 36.514C25.499 36.743 25.8425 37.0574 26.0806 37.457L24.9691 38.1172C24.9017 37.9825 24.8007 37.8612 24.6659 37.7534C24.5312 37.6457 24.3785 37.5603 24.2079 37.4975C24.0372 37.4301 23.8598 37.3919 23.6757 37.3829C23.4467 37.374 23.2333 37.4009 23.0358 37.4638C22.8426 37.5222 22.6877 37.6165 22.5709 37.7467C22.4542 37.8769 22.3958 38.0431 22.3958 38.2452C22.3958 38.4428 22.4654 38.591 22.6046 38.6898C22.7438 38.7841 22.919 38.8604 23.1301 38.9188C23.3456 38.9772 23.5657 39.0423 23.7902 39.1142C24.1899 39.2399 24.5649 39.3949 24.9152 39.579C25.2655 39.7586 25.5484 39.9809 25.7639 40.2459C25.9795 40.5108 26.0828 40.8342 26.0738 41.2159C26.0738 41.638 25.9458 42.0085 25.6899 42.3274C25.4384 42.6462 25.1105 42.8887 24.7064 43.0549C24.3022 43.2211 23.8733 43.2907 23.4197 43.2637ZM30.7302 36.2108C31.3858 36.2108 31.9809 36.3703 32.5153 36.6891C33.0542 37.008 33.4831 37.4368 33.8019 37.9757C34.1208 38.5102 34.2802 39.1052 34.2802 39.7609C34.2802 40.2504 34.1881 40.7107 34.004 41.1418C33.8199 41.5684 33.5639 41.9457 33.2361 42.2735C32.9127 42.5968 32.5355 42.8506 32.1044 43.0347C31.6777 43.2188 31.2197 43.3109 30.7302 43.3109C30.2586 43.3109 29.8455 43.2031 29.4907 42.9875C29.1404 42.7675 28.853 42.4868 28.6285 42.1455V43.1357H27.2273V33.0313H28.6285V37.3762C28.853 37.0304 29.1404 36.7497 29.4907 36.5342C29.8455 36.3186 30.2586 36.2108 30.7302 36.2108ZM30.7167 41.9502C31.1074 41.9502 31.4644 41.8514 31.7878 41.6538C32.1111 41.4562 32.3671 41.1912 32.5557 40.8589C32.7488 40.5266 32.8454 40.1605 32.8454 39.7609C32.8454 39.3522 32.7488 38.9817 32.5557 38.6494C32.3626 38.317 32.1044 38.0543 31.781 37.8612C31.4577 37.6636 31.1029 37.5648 30.7167 37.5648C30.326 37.5648 29.9824 37.6636 29.6861 37.8612C29.3897 38.0588 29.1584 38.3238 28.9922 38.6561C28.8261 38.9884 28.743 39.3567 28.743 39.7609C28.743 40.165 28.8261 40.5333 28.9922 40.8656C29.1584 41.1979 29.3897 41.4629 29.6861 41.6605C29.9824 41.8536 30.326 41.9502 30.7167 41.9502ZM38.3222 43.3109C37.7024 43.3109 37.1366 43.1515 36.6246 42.8326C36.1172 42.5138 35.7107 42.0871 35.4054 41.5527C35.1045 41.0138 34.954 40.4188 34.954 39.7676C34.954 39.2736 35.0416 38.8133 35.2168 38.3867C35.3919 37.9555 35.6322 37.5783 35.9375 37.255C36.2474 36.9271 36.6067 36.6711 37.0153 36.487C37.424 36.3029 37.8596 36.2108 38.3222 36.2108C38.9419 36.2108 39.5055 36.3703 40.013 36.6891C40.525 37.008 40.9314 37.4368 41.2323 37.9757C41.5376 38.5146 41.6903 39.1119 41.6903 39.7676C41.6903 40.2571 41.6028 40.7152 41.4276 41.1418C41.2525 41.5684 41.01 41.9457 40.7001 42.2735C40.3947 42.5968 40.0377 42.8506 39.629 43.0347C39.2248 43.2188 38.7892 43.3109 38.3222 43.3109ZM38.3222 41.9097C38.6949 41.9097 39.0295 41.8109 39.3259 41.6133C39.6223 41.4157 39.8558 41.1553 40.0265 40.8319C40.2016 40.5041 40.2892 40.1493 40.2892 39.7676C40.2892 39.3769 40.1994 39.0176 40.0197 38.6898C39.8446 38.362 39.6088 38.1015 39.3124 37.9084C39.016 37.7108 38.6859 37.612 38.3222 37.612C37.9539 37.612 37.6194 37.7108 37.3185 37.9084C37.0221 38.106 36.7863 38.3687 36.6112 38.6965C36.4405 39.0244 36.3552 39.3814 36.3552 39.7676C36.3552 40.1673 36.445 40.5288 36.6246 40.8521C36.8043 41.1755 37.0423 41.4337 37.3387 41.6268C37.6396 41.8154 37.9674 41.9097 38.3222 41.9097ZM45.7295 43.3109C45.1097 43.3109 44.5439 43.1515 44.0319 42.8326C43.5245 42.5138 43.118 42.0871 42.8127 41.5527C42.5118 41.0138 42.3613 40.4188 42.3613 39.7676C42.3613 39.2736 42.4489 38.8133 42.624 38.3867C42.7992 37.9555 43.0395 37.5783 43.3448 37.255C43.6547 36.9271 44.014 36.6711 44.4226 36.487C44.8313 36.3029 45.2669 36.2108 45.7295 36.2108C46.3492 36.2108 46.9128 36.3703 47.4203 36.6891C47.9322 37.008 48.3387 37.4368 48.6396 37.9757C48.9449 38.5146 49.0976 39.1119 49.0976 39.7676C49.0976 40.2571 49.0101 40.7152 48.8349 41.1418C48.6598 41.5684 48.4173 41.9457 48.1074 42.2735C47.802 42.5968 47.445 42.8506 47.0363 43.0347C46.6321 43.2188 46.1965 43.3109 45.7295 43.3109ZM45.7295 41.9097C46.1022 41.9097 46.4368 41.8109 46.7332 41.6133C47.0296 41.4157 47.2631 41.1553 47.4338 40.8319C47.6089 40.5041 47.6965 40.1493 47.6965 39.7676C47.6965 39.3769 47.6067 39.0176 47.427 38.6898C47.2519 38.362 47.0161 38.1015 46.7197 37.9084C46.4233 37.7108 46.0932 37.612 45.7295 37.612C45.3612 37.612 45.0267 37.7108 44.7258 37.9084C44.4294 38.106 44.1936 38.3687 44.0185 38.6965C43.8478 39.0244 43.7625 39.3814 43.7625 39.7676C43.7625 40.1673 43.8523 40.5288 44.0319 40.8521C44.2116 41.1755 44.4496 41.4337 44.746 41.6268C45.0469 41.8154 45.3747 41.9097 45.7295 41.9097ZM55.8534 43.1357H54.2367L52.5795 40.2796L51.495 41.5729V43.1357H50.0939V33.0313H51.495V39.3971L54.0009 36.3995H55.8332L53.5361 39.1411L55.8534 43.1357Z" fill="#52A67C"/>
</svg>
