<svg width="27" height="27" viewBox="0 0 27 27" fill="none" xmlns="http://www.w3.org/2000/svg">
<path d="M21.8602 23.1122C19.6252 23.1122 17.4169 22.6251 15.2355 21.651C13.0541 20.6769 11.0694 19.2954 9.28131 17.5067C7.49327 15.7179 6.11218 13.7332 5.13805 11.5525C4.16392 9.37176 3.6765 7.16352 3.67578 4.92774C3.67578 4.60589 3.78306 4.33768 3.99763 4.12312C4.2122 3.90855 4.4804 3.80127 4.80225 3.80127H9.14721C9.39754 3.80127 9.62104 3.88638 9.81773 4.0566C10.0144 4.22682 10.1306 4.4278 10.1664 4.65953L10.8637 8.41443C10.8995 8.70052 10.8906 8.94191 10.8369 9.13859C10.7833 9.33528 10.6849 9.50514 10.5419 9.64819L7.94028 12.2766C8.29789 12.9382 8.72237 13.5772 9.21373 14.1938C9.70508 14.8103 10.2461 15.405 10.8369 15.9779C11.3912 16.5322 11.9723 17.0464 12.5803 17.5206C13.1882 17.9948 13.8319 18.4282 14.5114 18.8209L17.0325 16.2997C17.1934 16.1388 17.4037 16.0183 17.6633 15.9382C17.923 15.8581 18.1776 15.8356 18.4272 15.8706L22.1284 16.6216C22.3788 16.6931 22.5844 16.8229 22.7453 17.011C22.9062 17.1991 22.9867 17.409 22.9867 17.6408V21.9857C22.9867 22.3076 22.8794 22.5758 22.6649 22.7903C22.4503 23.0049 22.1821 23.1122 21.8602 23.1122Z" fill="#18713C"/>
</svg>
