<svg width="24" height="49" viewBox="0 0 24 49" fill="none" xmlns="http://www.w3.org/2000/svg">
<path d="M3.80836 45.0132V35.5824H7.15629C8.60459 35.5824 9.7565 36.5187 9.7565 38.0613C9.7565 38.8091 9.37927 39.6039 8.75279 39.833C9.9047 40.1294 10.2348 41.4497 10.2348 42.3928C10.2348 43.9152 9.02898 45.0132 7.55373 45.0132H3.80836ZM5.2095 39.3143H7.00809C7.74909 39.3143 8.35535 38.836 8.35535 38.0546C8.35535 37.2193 7.74909 36.8016 7.00809 36.8016H5.2095V39.3143ZM5.2095 43.8007H7.41901C8.27452 43.8007 8.97509 43.0933 8.97509 42.1301C8.97509 41.2948 8.27452 40.5066 7.41901 40.5066H5.2095V43.8007ZM12.2913 37.3001C11.867 37.3001 11.5436 36.9903 11.5436 36.5659C11.5436 36.1482 11.867 35.8316 12.2913 35.8316C12.7023 35.8316 13.0323 36.1482 13.0323 36.5659C13.0323 36.9903 12.709 37.3001 12.2913 37.3001ZM11.584 38.2769H12.9852V45.0132H11.584V38.2769ZM19.7261 34.9087H21.1273V45.0132H19.7261V44.0229C19.2815 44.7235 18.5675 45.1883 17.6176 45.1883C15.6641 45.1883 14.0744 43.5986 14.0744 41.645C14.0744 39.6848 15.6641 38.095 17.6176 38.095C18.5675 38.095 19.2815 38.5666 19.7261 39.2537V34.9087ZM17.6311 43.8343C18.8167 43.8343 19.6049 42.8576 19.6049 41.645C19.6049 40.419 18.8032 39.449 17.6311 39.449C16.4523 39.449 15.5092 40.4325 15.5092 41.645C15.5092 42.871 16.4792 43.8343 17.6311 43.8343Z" fill="#52A67C"/>
<path d="M23.6518 20.0836L12.2225 9.89659L13.8892 8.38976L14.7464 9.14318C14.8566 9.24155 14.9874 9.31959 15.1314 9.37284C15.2755 9.42609 15.4298 9.4535 15.5858 9.4535C15.7417 9.4535 15.8961 9.42609 16.0401 9.37284C16.1841 9.31959 16.315 9.24155 16.4251 9.14318L17.2704 8.38976C17.3808 8.29159 17.4683 8.17499 17.5281 8.04662C17.5878 7.91825 17.6186 7.78063 17.6186 7.64166C17.6186 7.50268 17.5878 7.36507 17.5281 7.2367C17.4683 7.10833 17.3808 6.99172 17.2704 6.89355L10.5319 0.887474C10.4217 0.789102 10.2909 0.711057 10.1469 0.657808C10.0029 0.604558 9.84847 0.577148 9.69254 0.577148C9.53662 0.577148 9.38222 0.604558 9.2382 0.657808C9.09417 0.711057 8.96334 0.789102 8.8532 0.887474L8.00791 1.64089C7.54359 2.05473 7.54359 2.72325 8.00791 3.1371L8.8532 3.86929L7.16262 5.38673C7.05248 5.28835 6.92165 5.21031 6.77762 5.15706C6.6336 5.10381 6.4792 5.0764 6.32328 5.0764C6.16735 5.0764 6.01296 5.10381 5.86894 5.15706C5.72491 5.21031 5.59408 5.28835 5.48394 5.38673C5.01962 5.80057 5.01962 6.4797 5.48394 6.89355L3.80526 8.38976L2.95997 7.63635C2.49565 7.22251 1.7337 7.22251 1.26938 7.63635L0.436001 8.38976C-0.0283146 8.80361 -0.0283146 9.48274 0.436001 9.89659L7.16262 15.8921C7.62693 16.3059 8.38889 16.3059 8.8532 15.8921L9.68659 15.1493C9.79963 15.0513 9.8895 14.9342 9.95086 14.8048C10.0122 14.6754 10.0438 14.5363 10.0438 14.3958C10.0438 14.2553 10.0122 14.1163 9.95086 13.9869C9.8895 13.8575 9.79963 13.7403 9.68659 13.6424L8.8532 12.889L10.5319 11.3928L21.9731 21.5904C22.0832 21.6888 22.2141 21.7668 22.3581 21.8201C22.5021 21.8733 22.6565 21.9007 22.8124 21.9007C22.9683 21.9007 23.1227 21.8733 23.2668 21.8201C23.4108 21.7668 23.5416 21.6888 23.6518 21.5904C24.1161 21.1766 24.1161 20.4974 23.6518 20.0836ZM2.57899 18.7253C1.94748 18.7253 1.34184 18.9489 0.895298 19.3469C0.448755 19.7449 0.197889 20.2847 0.197889 20.8476V21.9087H12.1034V20.8476C12.1034 20.2847 11.8525 19.7449 11.406 19.3469C10.9595 18.9489 10.3538 18.7253 9.72231 18.7253H2.57899Z" fill="#52A67C"/>
</svg>
