<svg width="24" height="23" viewBox="0 0 24 23" fill="none" xmlns="http://www.w3.org/2000/svg">
<path d="M23.6117 20.4644L12.1824 10.2774L13.8492 8.77062L14.7064 9.52404C14.8165 9.62241 14.9474 9.70045 15.0914 9.7537C15.2354 9.80695 15.3898 9.83436 15.5457 9.83436C15.7017 9.83436 15.8561 9.80695 16.0001 9.7537C16.1441 9.70045 16.2749 9.62241 16.3851 9.52404L17.2304 8.77062C17.3407 8.67245 17.4283 8.55585 17.488 8.42747C17.5478 8.2991 17.5785 8.16149 17.5785 8.02252C17.5785 7.88354 17.5478 7.74593 17.488 7.61756C17.4283 7.48919 17.3407 7.37258 17.2304 7.27441L10.4918 1.26833C10.3817 1.16996 10.2509 1.09192 10.1068 1.03867C9.96282 0.985417 9.80843 0.958008 9.6525 0.958008C9.49658 0.958008 9.34218 0.985417 9.19816 1.03867C9.05413 1.09192 8.92331 1.16996 8.81316 1.26833L7.96787 2.02175C7.50356 2.43559 7.50356 3.10411 7.96787 3.51796L8.81316 4.25015L7.12258 5.76758C7.01244 5.66921 6.88161 5.59117 6.73758 5.53792C6.59356 5.48467 6.43917 5.45726 6.28324 5.45726C6.12732 5.45726 5.97292 5.48467 5.8289 5.53792C5.68487 5.59117 5.55404 5.66921 5.4439 5.76758C4.97959 6.18143 4.97959 6.86056 5.4439 7.27441L3.76522 8.77062L2.91993 8.01721C2.45561 7.60336 1.69366 7.60336 1.22935 8.01721L0.395962 8.77062C-0.0683537 9.18447 -0.0683537 9.8636 0.395962 10.2774L7.12258 16.2729C7.58689 16.6868 8.34885 16.6868 8.81316 16.2729L9.64655 15.5301C9.75959 15.4322 9.84946 15.3151 9.91082 15.1857C9.97218 15.0563 10.0038 14.9172 10.0038 14.7767C10.0038 14.6362 9.97218 14.4971 9.91082 14.3677C9.84946 14.2383 9.75959 14.1212 9.64655 14.0233L8.81316 13.2699L10.4918 11.7737L21.933 21.9713C22.0432 22.0696 22.174 22.1477 22.318 22.2009C22.4621 22.2542 22.6165 22.2816 22.7724 22.2816C22.9283 22.2816 23.0827 22.2542 23.2267 22.2009C23.3708 22.1477 23.5016 22.0696 23.6117 21.9713C24.076 21.5574 24.076 20.8783 23.6117 20.4644ZM2.53895 19.1062C1.90745 19.1062 1.3018 19.3298 0.855259 19.7278C0.408716 20.1258 0.15785 20.6656 0.15785 21.2285V22.2896H12.0634V21.2285C12.0634 20.6656 11.8125 20.1258 11.366 19.7278C10.9194 19.3298 10.3138 19.1062 9.68227 19.1062H2.53895Z" fill="#52A67C"/>
</svg>
