<svg width="96" height="96" viewBox="0 0 96 96" fill="none" xmlns="http://www.w3.org/2000/svg">
<rect x="13.8069" y="14.9923" width="64.5267" height="64.5267" rx="32.2633" fill="white" stroke="#478767" stroke-width="1.46831"/>
<circle cx="45.687" cy="45.557" r="13.9055" stroke="#478767" stroke-width="2.1393"/>
<circle cx="45.6872" cy="45.557" r="1.06965" fill="white" stroke="#478767" stroke-width="2.1393"/>
<path d="M29.2187 17.4877C34.3654 14.5115 40.1951 12.9159 46.1425 12.8557C52.0899 12.7955 57.9533 14.2728 63.1642 17.1442C68.3752 20.0157 72.7568 24.1839 75.8843 29.2448C79.0119 34.3056 80.7792 40.0875 81.0149 46.0297C81.2507 51.9719 79.9469 57.8728 77.2299 63.1605C74.513 68.4481 70.4751 72.943 65.5077 76.2093C60.5403 79.4757 54.8119 81.4027 48.878 81.8035C42.9441 82.2043 37.006 81.0653 31.6393 78.497" stroke="#478767" stroke-width="3.67078"/>
</svg>
