<svg width="96" height="96" viewBox="0 0 96 96" fill="none" xmlns="http://www.w3.org/2000/svg">
<rect x="13.8069" y="15.5797" width="64.5267" height="64.5267" rx="32.2633" stroke="#478767" stroke-width="1.46831"/>
<path d="M29.2187 18.0751C34.3654 15.0989 40.1951 13.5033 46.1425 13.4431C52.0899 13.3829 57.9533 14.8602 63.1642 17.7316C68.3752 20.6031 72.7568 24.7713 75.8843 29.8322C79.0119 34.893 80.7792 40.6749 81.0149 46.6171C81.2507 52.5593 79.9469 58.4602 77.2299 63.7479C74.513 69.0355 70.4751 73.5304 65.5077 76.7967C60.5403 80.0631 54.8119 81.9901 48.878 82.3909C42.9441 82.7917 37.006 81.6527 31.6393 79.0844" stroke="#478767" stroke-width="3.67078"/>
<path d="M50.9689 48.2838H47.5594M47.5594 48.2838H44.1499M47.5594 48.2838V43.7378M47.5594 48.2838V52.8298M58.9244 48.2838C58.9244 55.4271 58.9244 58.9987 57.2595 61.2172C55.5967 63.4372 52.9169 63.4372 47.5594 63.4372C42.2019 63.4372 39.5232 63.4372 37.8582 61.2172C36.1943 59.0003 36.1943 55.4271 36.1943 48.2838C36.1943 41.1405 36.1943 37.5688 37.8582 35.3488C39.5243 33.1304 42.2019 33.1304 47.5594 33.1304C52.9169 33.1304 55.5956 33.1304 57.2595 35.3488C58.3664 36.8248 58.7369 38.8993 58.8619 42.2224" stroke="#478767" stroke-width="2.27301" stroke-linecap="round"/>
</svg>
