<svg width="96" height="96" viewBox="0 0 96 96" fill="none" xmlns="http://www.w3.org/2000/svg">
<rect x="14.0158" y="15.5797" width="64.5267" height="64.5267" rx="32.2633" stroke="#478767" stroke-width="1.46831"/>
<path d="M51.1779 48.2838H47.7684M47.7684 48.2838H44.3589M47.7684 48.2838V43.7378M47.7684 48.2838V52.8298M59.1334 48.2838C59.1334 55.4271 59.1334 58.9987 57.4684 61.2172C55.8057 63.4372 53.1259 63.4372 47.7684 63.4372C42.4109 63.4372 39.7321 63.4372 38.0672 61.2172C36.4033 59.0003 36.4033 55.4271 36.4033 48.2838C36.4033 41.1405 36.4033 37.5688 38.0672 35.3488C39.7333 33.1304 42.4109 33.1304 47.7684 33.1304C53.1259 33.1304 55.8046 33.1304 57.4684 35.3488C58.5754 36.8248 58.9459 38.8993 59.0709 42.2224" stroke="#478767" stroke-width="2.27301" stroke-linecap="round"/>
<path d="M29.4277 18.0751C34.5744 15.0989 40.404 13.5033 46.3515 13.4431C52.2989 13.3829 58.1623 14.8602 63.3732 17.7316C68.5841 20.6031 72.9658 24.7713 76.0933 29.8322C79.2208 34.893 80.9882 40.6749 81.2239 46.6171C81.4597 52.5593 80.1559 58.4602 77.4389 63.7479C74.722 69.0355 70.6841 73.5304 65.7167 76.7967C60.7493 80.0631 55.0209 81.9901 49.087 82.3909C43.1531 82.7917 37.2149 81.6527 31.8483 79.0844" stroke="#478767" stroke-width="3.67078"/>
</svg>
