<svg width="96" height="96" viewBox="0 0 96 96" fill="none" xmlns="http://www.w3.org/2000/svg">
<rect x="14.0158" y="14.9923" width="64.5267" height="64.5267" rx="32.2633" stroke="#478767" stroke-width="1.46831"/>
<circle cx="45.896" cy="45.557" r="13.9055" stroke="#478767" stroke-width="2.1393"/>
<circle cx="45.8961" cy="45.557" r="1.06965" fill="white" stroke="#478767" stroke-width="2.1393"/>
<path d="M29.4277 17.4877C34.5744 14.5115 40.404 12.9159 46.3515 12.8557C52.2989 12.7955 58.1623 14.2728 63.3732 17.1442C68.5841 20.0157 72.9658 24.1839 76.0933 29.2448C79.2208 34.3056 80.9882 40.0875 81.2239 46.0297C81.4597 51.9719 80.1559 57.8728 77.4389 63.1605C74.722 68.4481 70.6841 72.943 65.7167 76.2093C60.7493 79.4757 55.0209 81.4027 49.087 81.8035C43.1531 82.2043 37.2149 81.0653 31.8483 78.497" stroke="#478767" stroke-width="3.67078"/>
</svg>
