<svg width="312" height="80" viewBox="0 0 312 80" fill="none" xmlns="http://www.w3.org/2000/svg">
<circle cx="39.5982" cy="40.2393" r="39.5982" fill="white"/>
<path d="M18.5547 48.987L31.8931 56.5233V17.0509L53.4832 29.6801L37.5408 38.5352L53.4832 52.1806L5.625 68.5586L29.483 79.7916L77.9924 56.5233L66.0923 43.0352L61.1646 38.5352L80.849 29.6801L67.0941 20.2909L32.2867 0L18.5547 5.71322V48.987Z" fill="#478767"/>
<path d="M99.6265 65.7651V27.6144H113.824C115.877 27.6144 117.739 28.0413 119.41 28.8951C121.082 29.7308 122.399 30.9299 123.362 32.4922C124.343 34.0546 124.833 35.8895 124.833 37.9968C124.833 38.8507 124.715 39.7318 124.479 40.6401C124.261 41.5485 123.879 42.3842 123.334 43.1472C122.808 43.9102 122.081 44.4915 121.154 44.8912C122.353 45.1819 123.316 45.7269 124.043 46.5263C124.77 47.3074 125.324 48.2158 125.705 49.2513C126.087 50.2687 126.341 51.3133 126.468 52.3851C126.595 53.457 126.659 54.4289 126.659 55.3009C126.659 57.263 126.15 59.0343 125.133 60.6148C124.116 62.1953 122.744 63.4488 121.018 64.3754C119.31 65.3019 117.421 65.7651 115.35 65.7651H99.6265ZM107.148 59.3613H114.56C115.559 59.3613 116.467 59.1251 117.285 58.6527C118.102 58.1622 118.756 57.4991 119.247 56.6635C119.737 55.8096 119.983 54.8468 119.983 53.7749C119.983 52.8665 119.737 52.0036 119.247 51.1861C118.756 50.3686 118.102 49.7055 117.285 49.1968C116.467 48.67 115.559 48.4065 114.56 48.4065H107.148V59.3613ZM107.148 42.1389H112.952C114.151 42.1389 115.177 41.7483 116.031 40.9671C116.885 40.186 117.312 39.1777 117.312 37.9423C117.312 36.6706 116.885 35.7078 116.031 35.0538C115.177 34.3816 114.151 34.0455 112.952 34.0455H107.148V42.1389ZM156.185 48.4338V65.7651H148.663V50.5048C148.663 49.542 148.427 48.679 147.955 47.916C147.501 47.1348 146.883 46.5172 146.102 46.063C145.339 45.6088 144.485 45.3817 143.54 45.3817C142.596 45.3817 141.733 45.6088 140.952 46.063C140.17 46.5172 139.553 47.1348 139.099 47.916C138.644 48.679 138.417 49.542 138.417 50.5048V65.7651H130.896L130.869 24.8893H138.39L138.417 40.5311C139.326 39.6591 140.388 38.9778 141.606 38.4873C142.841 37.9968 144.14 37.7516 145.502 37.7516C147.483 37.7516 149.272 38.233 150.871 39.1959C152.488 40.1587 153.777 41.4486 154.74 43.0654C155.703 44.6641 156.185 46.4536 156.185 48.4338ZM181.102 38.5146H188.623V65.7651H181.075L180.72 62.9311C180.012 63.9848 179.103 64.8386 177.995 65.4926C176.887 66.1466 175.588 66.4737 174.098 66.4737C172.064 66.4737 170.165 66.0921 168.403 65.3291C166.641 64.5661 165.088 63.5124 163.743 62.1681C162.399 60.8237 161.345 59.2704 160.582 57.5082C159.837 55.7279 159.465 53.8203 159.465 51.7856C159.465 49.8417 159.819 48.025 160.528 46.3355C161.236 44.646 162.235 43.1563 163.525 41.8664C164.815 40.5765 166.296 39.5683 167.967 38.8416C169.657 38.1149 171.473 37.7516 173.417 37.7516C175.089 37.7516 176.587 38.1058 177.913 38.8143C179.258 39.5229 180.43 40.4221 181.429 41.5121L181.102 38.5146ZM173.908 59.2523C175.143 59.2523 176.26 58.9343 177.259 58.2985C178.259 57.6626 179.049 56.8088 179.63 55.7369C180.212 54.6469 180.502 53.4479 180.502 52.1399C180.502 50.8137 180.212 49.6146 179.63 48.5428C179.049 47.4709 178.259 46.6171 177.259 45.9812C176.26 45.3454 175.143 45.0275 173.908 45.0275C172.654 45.0275 171.519 45.3454 170.501 45.9812C169.484 46.6171 168.676 47.48 168.076 48.57C167.477 49.6419 167.177 50.8318 167.177 52.1399C167.177 53.4479 167.477 54.6469 168.076 55.7369C168.694 56.8088 169.511 57.6626 170.529 58.2985C171.546 58.9343 172.672 59.2523 173.908 59.2523ZM193.009 55.7914V38.5146H200.53V53.7204C200.53 54.6832 200.757 55.5553 201.211 56.3364C201.683 57.0995 202.31 57.7081 203.091 58.1622C203.872 58.6164 204.726 58.8435 205.653 58.8435C206.598 58.8435 207.46 58.6164 208.242 58.1622C209.023 57.7081 209.641 57.0995 210.095 56.3364C210.549 55.5553 210.776 54.6832 210.776 53.7204V38.5146H218.297L218.324 65.7651H210.803L210.776 63.6941C209.868 64.5661 208.796 65.2474 207.56 65.7379C206.343 66.2284 205.053 66.4737 203.691 66.4737C201.729 66.4737 199.939 65.9922 198.322 65.0294C196.706 64.0665 195.416 62.7857 194.453 61.187C193.49 59.5702 193.009 57.7716 193.009 55.7914ZM223.28 65.7651L240.938 35.1355H221.617V27.6144H249.658V35.1355L231.945 65.7651H223.28ZM253.511 65.7651L271.169 35.1355H251.848V27.6144H279.889V35.1355L262.176 65.7651H253.511ZM283.742 65.7651L301.4 35.1355H282.08V27.6144H310.12V35.1355L292.408 65.7651H283.742Z" fill="white"/>
</svg>
