<svg width="19" height="19" viewBox="0 0 19 19" fill="none" xmlns="http://www.w3.org/2000/svg">
<path d="M16.957 16.9999H1.95703M10.957 7.24986H7.95703M10.957 11.7499H7.95703M5.33278 6.49986H5.32603M5.33353 9.49986H5.32603M5.33353 12.4999H5.32603M13.5828 6.49986H13.576M13.5835 9.49986H13.576M13.5835 12.4999H13.576M16.207 6.11361C16.207 5.29011 16.207 4.87911 16 4.53111C15.793 4.18311 15.4113 3.95661 14.6485 3.49986L13.678 2.91936C12.4803 2.20236 11.881 1.84386 11.419 2.06586C10.957 2.28786 10.957 2.93361 10.957 4.22511V16.9999H16.207V6.11361ZM2.70703 6.11361C2.70703 5.29011 2.70703 4.87911 2.91403 4.53111C3.12103 4.18311 3.50278 3.95661 4.26553 3.49986L5.23603 2.91936C6.43453 2.20161 7.03303 1.84236 7.49503 2.06511C7.95703 2.28786 7.95703 2.93361 7.95703 4.22511V16.9999H2.70703V6.11361Z" stroke="#478767" stroke-width="1.58654" stroke-linecap="round" stroke-linejoin="round"/>
</svg>
