<svg width="47" height="46" viewBox="0 0 47 46" fill="none" xmlns="http://www.w3.org/2000/svg">
<path d="M23.6418 3.05322C24.2475 3.33027 24.2475 3.33027 24.8925 3.71699C25.0089 3.78594 25.1253 3.85489 25.2453 3.92593C25.6162 4.1464 25.9849 4.3703 26.3537 4.5943C26.5976 4.73974 26.8416 4.88497 27.0858 5.02997C31.0246 7.37772 31.0246 7.37772 31.4787 7.83176C31.5025 8.40519 31.5025 8.40519 31.4787 8.97861C31.384 9.07323 31.384 9.07323 31.2875 9.16975C30.846 9.16975 30.4044 9.16975 29.9495 9.16975C29.9495 11.4405 29.9495 13.7113 29.9495 16.0509C30.3911 16.0509 30.8326 16.0509 31.2875 16.0509C31.5784 16.3418 31.5034 16.6017 31.504 17.0066C31.5043 17.1603 31.5045 17.3141 31.5048 17.4725C31.504 17.6341 31.5033 17.7957 31.5025 17.9623C31.5033 18.1239 31.504 18.2855 31.5048 18.4521C31.5045 18.6058 31.5043 18.7596 31.504 18.918C31.5038 19.0599 31.5036 19.2018 31.5034 19.348C31.4787 19.6825 31.4787 19.6825 31.2875 19.8737C30.7767 19.8929 30.2708 19.8997 29.7599 19.8984C29.5198 19.8989 29.5198 19.8989 29.2749 19.8994C28.7431 19.9003 28.2114 19.8997 27.6797 19.8991C27.3119 19.8992 26.9441 19.8994 26.5763 19.8996C25.8043 19.8999 25.0324 19.8995 24.2604 19.8986C23.2686 19.8975 22.2768 19.8981 21.2849 19.8993C20.5251 19.9 19.7653 19.8998 19.0054 19.8993C18.6396 19.8991 18.2738 19.8993 17.908 19.8997C17.3976 19.9002 16.8873 19.8995 16.377 19.8984C16.2242 19.8988 16.0715 19.8992 15.9142 19.8996C14.8712 19.8955 14.8712 19.8955 14.6582 19.6825C14.6394 19.4282 14.6332 19.173 14.6328 18.918C14.6326 18.7642 14.6323 18.6105 14.6321 18.4521C14.6328 18.2904 14.6335 18.1288 14.6343 17.9623C14.6336 17.8006 14.6328 17.639 14.6321 17.4725C14.6323 17.3187 14.6325 17.165 14.6328 17.0066C14.633 16.8646 14.6332 16.7227 14.6335 16.5765C14.6582 16.242 14.6582 16.242 14.8493 16.0509C15.2909 16.0509 15.7324 16.0509 16.1873 16.0509C16.1873 13.7801 16.1873 11.5093 16.1873 9.16975C15.7458 9.16975 15.3042 9.16975 14.8493 9.16975C14.6582 8.97861 14.6582 8.97861 14.5693 8.44625C14.6582 7.83176 14.6582 7.83176 15.1592 7.40244C15.3998 7.25847 15.6433 7.1192 15.8887 6.98357C16.1667 6.82112 16.4447 6.6586 16.7227 6.49601C16.8785 6.40666 17.0344 6.31731 17.195 6.22526C17.7846 5.88049 18.3637 5.52106 18.9432 5.15951C19.3705 4.89537 19.7978 4.6313 20.2252 4.36732C20.5343 4.17349 20.5343 4.17349 20.8497 3.97575C21.0462 3.85611 21.2427 3.73647 21.4452 3.6132C21.6199 3.50525 21.7947 3.3973 21.9747 3.28608C22.5995 3.00647 22.9631 2.96462 23.6418 3.05322ZM21.7334 5.50148C21.5548 5.61272 21.3761 5.72397 21.1921 5.83859C21.0071 5.95624 20.822 6.07389 20.6314 6.19511C20.4434 6.31202 20.2554 6.42894 20.0617 6.54939C19.3591 6.9877 19.3591 6.9877 18.6722 7.44948C18.6722 7.51255 18.6722 7.57563 18.6722 7.64062C21.6368 7.64062 24.6014 7.64062 27.6558 7.64062C26.8517 7.0375 26.0248 6.50859 25.171 5.98008C25.0167 5.88238 24.8625 5.78469 24.7036 5.68403C24.5543 5.59176 24.4049 5.49948 24.2511 5.40441C24.1158 5.31998 23.9806 5.23554 23.8412 5.14854C22.9884 4.74689 22.4651 5.04291 21.7334 5.50148ZM17.7165 9.16975C17.7165 11.4405 17.7165 13.7113 17.7165 16.0509C18.2211 16.0509 18.7257 16.0509 19.2456 16.0509C19.2456 13.7801 19.2456 11.5093 19.2456 9.16975C18.741 9.16975 18.2364 9.16975 17.7165 9.16975ZM20.7747 9.16975C20.7747 11.4405 20.7747 13.7113 20.7747 16.0509C21.2793 16.0509 21.7839 16.0509 22.3039 16.0509C22.3039 13.7801 22.3039 11.5093 22.3039 9.16975C21.7992 9.16975 21.2946 9.16975 20.7747 9.16975ZM23.833 9.16975C23.833 11.4405 23.833 13.7113 23.833 16.0509C24.3376 16.0509 24.8422 16.0509 25.3621 16.0509C25.3621 13.7801 25.3621 11.5093 25.3621 9.16975C24.8575 9.16975 24.3529 9.16975 23.833 9.16975ZM26.8913 9.16975C26.8913 11.4405 26.8913 13.7113 26.8913 16.0509C27.3959 16.0509 27.9005 16.0509 28.4204 16.0509C28.4204 13.7801 28.4204 11.5093 28.4204 9.16975C27.9158 9.16975 27.4112 9.16975 26.8913 9.16975ZM16.1873 17.58C16.1873 17.8323 16.1873 18.0846 16.1873 18.3446C20.7288 18.3446 25.2704 18.3446 29.9495 18.3446C29.9495 18.0922 29.9495 17.8399 29.9495 17.58C25.408 17.58 20.8665 17.58 16.1873 17.58Z" fill="#478767"/>
<path d="M42.5197 30.341C44.2511 31.6188 45.585 33.4126 46.005 35.5473C46.2977 38.276 46.0115 40.6236 44.3445 42.8824C42.9926 44.4419 41.1894 45.6941 39.0956 45.9116C36.3855 46.0911 34.1577 45.7294 31.9643 44.0203C30.3274 42.5216 29.2647 40.6981 29.1062 38.4749C28.9923 35.808 29.4506 33.6437 31.2438 31.5752C34.2767 28.5529 38.896 28.0327 42.5197 30.341ZM32.7565 32.6205C31.2234 34.256 30.851 35.954 30.86 38.1262C30.9166 38.9723 31.1136 39.5661 31.4783 40.3259C31.5571 40.2194 31.6359 40.113 31.7172 40.0033C31.8276 39.8574 31.938 39.7116 32.0517 39.5613C32.1581 39.4036 32.2646 39.2459 32.3742 39.0834C33.1576 38.2366 34.2344 37.8588 35.3011 37.4587C35.2065 37.2813 35.1119 37.1039 35.0144 36.9212C34.6119 35.9738 34.5903 35.0302 34.7277 34.0182C35.1396 33.1638 35.5755 32.6746 36.4479 32.2979C37.6138 32.0303 38.4549 32.0821 39.5062 32.6802C40.206 33.3063 40.4569 33.992 40.6322 34.894C40.6742 35.8235 40.2972 36.6412 39.8885 37.4587C40.0722 37.5216 40.0722 37.5216 40.2596 37.5857C41.5076 38.0432 42.7047 38.5722 43.3649 39.7883C43.4161 39.9026 43.4674 40.0169 43.5202 40.1347C43.6463 40.1347 43.7725 40.1347 43.9025 40.1347C44.5173 38.551 44.5717 36.5181 44.01 34.9022C43.1244 33.0467 41.5707 31.6927 39.6973 30.9121C37.1414 30.2731 34.716 30.8041 32.7565 32.6205ZM36.5674 34.1377C36.1637 34.7277 36.1398 35.0366 36.2568 35.7385C36.5435 36.2163 36.5435 36.2163 37.0214 36.503C37.7232 36.62 38.0321 36.5961 38.6222 36.1924C39.0259 35.6024 39.0498 35.2934 38.9328 34.5916C38.6461 34.1138 38.6461 34.1138 38.1682 33.827C37.4664 33.7101 37.1574 33.734 36.5674 34.1377ZM33.5808 40.1347C33.1455 40.6728 33.1455 40.6728 33.1985 41.2816C36.1001 41.2816 39.0016 41.2816 41.991 41.2816C41.8968 40.3411 41.8968 40.3411 41.3698 39.9077C39.1977 38.4761 35.6339 38.4822 33.5808 40.1347ZM33.5808 42.8107C35.3463 44.2231 36.9423 44.348 39.1239 44.1487C40.1612 43.8865 40.8502 43.5692 41.6088 42.8107C38.9595 42.8107 36.3103 42.8107 33.5808 42.8107Z" fill="#478767"/>
<path d="M4.86477 28.9816C5.24371 28.9784 5.62265 28.9732 6.00154 28.9659C6.54851 28.9554 7.09523 28.9512 7.64229 28.9484C7.81078 28.9441 7.97926 28.9398 8.15285 28.9353C8.97792 28.9381 9.51944 28.9791 10.1744 29.5087C10.8396 30.2108 10.8584 30.5231 10.8536 31.4691C10.853 31.6835 10.8524 31.8978 10.8518 32.1187C10.8494 32.4558 10.8494 32.4558 10.8469 32.7996C10.846 33.0258 10.8452 33.252 10.8443 33.4851C10.842 34.0451 10.8389 34.605 10.835 35.165C10.9985 35.1635 10.9985 35.1635 11.1653 35.162C11.6565 35.158 12.1477 35.1555 12.6389 35.1531C12.8963 35.1507 12.8963 35.1507 13.1589 35.1482C13.3221 35.1476 13.4854 35.147 13.6535 35.1464C13.8047 35.1454 13.9558 35.1444 14.1116 35.1433C14.4666 35.165 14.4666 35.165 14.6578 35.3562C14.6747 35.8519 14.6798 36.3425 14.6765 36.8383C14.6762 36.9865 14.6759 37.1347 14.6756 37.2874C14.6746 37.7626 14.6722 38.2379 14.6697 38.7131C14.6688 39.0345 14.6679 39.356 14.6671 39.6774C14.665 40.467 14.6617 41.2565 14.6578 42.0461C14.867 42.0387 15.0762 42.0313 15.2917 42.0237C15.9958 42.0461 15.9958 42.0461 16.5573 42.4045C17.0338 43.1266 17.0652 43.589 17.0784 44.4354C16.8919 45.1378 16.5562 45.4139 15.9958 45.869C15.4688 45.9638 15.0595 46.0002 14.5338 45.9926C14.3178 45.9951 14.3178 45.9951 14.0974 45.9977C13.6231 46.0019 13.1491 45.9991 12.6747 45.9959C12.3441 45.9965 12.0135 45.9975 11.6829 45.9987C10.9906 46.0001 10.2986 45.998 9.60635 45.9936C8.71994 45.9881 7.8338 45.9912 6.9474 45.997C6.26491 46.0004 5.58248 45.9993 4.89999 45.9968C4.57321 45.9962 4.24643 45.997 3.91966 45.9992C3.4625 46.0017 3.00579 45.9979 2.54867 45.9926C2.41419 45.9946 2.27972 45.9965 2.14117 45.9985C1.44637 45.9836 1.09695 45.8762 0.525234 45.4724C0.0483829 44.796 -0.00448251 44.2888 0.00735879 43.4894C0.00568409 43.3495 0.00400938 43.2095 0.00228392 43.0652C-0.00190966 42.6042 0.000857796 42.1435 0.00409221 41.6825C0.00344804 41.3609 0.00252019 41.0393 0.00132145 40.7178C-8.6157e-05 40.0444 0.00195559 39.3711 0.00642548 38.6976C0.0118666 37.8361 0.00873747 36.9749 0.00301125 36.1133C-0.000449255 35.4494 0.000660141 34.7854 0.00313338 34.1215C0.00376922 33.8039 0.00299452 33.4864 0.000763651 33.1688C-0.00167514 32.7241 0.00205099 32.2798 0.00735879 31.835C0.00542422 31.7048 0.00348964 31.5746 0.00149644 31.4404C0.0246327 30.3894 0.372597 29.955 1.08673 29.2396C2.10027 28.7329 3.73571 28.9885 4.86477 28.9816ZM1.95541 30.9176C1.5874 31.3606 1.5874 31.3606 1.66016 32.1068C4.18323 32.1068 6.7063 32.1068 9.30582 32.1068C9.21121 31.5391 9.21121 31.5391 9.11468 30.9599C8.16816 30.3289 7.03547 30.5065 5.92673 30.5068C5.49706 30.506 5.06776 30.499 4.63816 30.4918C4.36451 30.4906 4.09087 30.4899 3.81722 30.4895C3.56862 30.488 3.32003 30.4864 3.0639 30.4848C2.41631 30.5284 2.41631 30.5284 1.95541 30.9176ZM1.66016 33.6359C1.66016 36.4113 1.66016 39.1866 1.66016 42.0461C1.91246 42.0461 2.16477 42.0461 2.42472 42.0461C2.4878 39.8384 2.55088 37.6308 2.61586 35.3562C5.92739 35.2616 5.92739 35.2616 9.30582 35.165C9.30582 34.6604 9.30582 34.1558 9.30582 33.6359C6.78275 33.6359 4.25968 33.6359 1.66016 33.6359ZM3.95386 36.6942C3.95386 38.4603 3.95386 40.2265 3.95386 42.0461C6.98154 42.0461 10.0092 42.0461 13.1287 42.0461C13.1287 40.28 13.1287 38.5138 13.1287 36.6942C10.101 36.6942 7.07329 36.6942 3.95386 36.6942ZM2.04244 43.5753C2.04244 43.8276 2.04244 44.0799 2.04244 44.3398C6.33166 44.3398 10.6209 44.3398 15.0401 44.3398C15.0401 44.0875 15.0401 43.8352 15.0401 43.5753C10.7509 43.5753 6.46163 43.5753 2.04244 43.5753Z" fill="#478767"/>
<path d="M31.2876 2.86211C31.4846 3.00847 31.4846 3.00847 31.6855 3.15778C33.6246 4.70292 34.9102 7.03992 35.6838 9.36092C35.7077 10.0538 35.7077 10.0538 35.6838 10.6989C35.4927 10.8901 35.4927 10.8901 34.9073 10.902C34.722 10.8981 34.5368 10.8941 34.3459 10.8901C34.283 10.7437 34.283 10.7437 34.2189 10.5944C34.0109 10.1174 33.797 9.64337 33.5813 9.16978C33.498 8.98573 33.4147 8.80167 33.3289 8.61204C31.9202 5.6368 29.8276 3.6016 26.7002 2.47982C23.658 1.53675 20.791 1.72651 17.8957 3.05325C14.7238 4.73458 13.0462 7.34053 11.9823 10.6989C12.136 10.7265 12.2898 10.7541 12.4482 10.7825C12.938 10.8901 12.938 10.8901 13.1291 11.0812C13.1562 12.327 12.5412 13.1097 11.8486 14.1089C11.4089 14.5217 11.4089 14.5217 10.8414 14.6494C10.0322 14.4711 9.81811 14.1131 9.34213 13.4466C9.19504 13.247 9.04794 13.0474 8.89638 12.8418C8.53751 12.2207 8.38025 11.7952 8.35059 11.0812C8.73287 10.6989 8.73287 10.6989 9.21072 10.675C9.36842 10.6829 9.52611 10.6908 9.68858 10.6989C9.81473 10.6989 9.94088 10.6989 10.0709 10.6989C10.0945 10.5826 10.1182 10.4663 10.1425 10.3465C10.9568 6.88596 12.9448 3.80541 15.9963 1.9064C20.9628 -0.85345 26.7445 -0.685944 31.2876 2.86211Z" fill="#478767"/>
<path d="M35.2612 11.3873C35.8742 11.4635 35.8742 11.4635 36.314 11.91C36.4409 12.1017 36.5678 12.2934 36.6985 12.4909C36.8279 12.6816 36.9572 12.8723 37.0905 13.0688C37.558 13.8118 37.632 14.2127 37.5945 15.0952C37.4033 15.2863 37.4033 15.2863 36.8419 15.3102C36.2565 15.2863 36.2565 15.2863 35.8742 15.0952C35.8624 15.3317 35.8505 15.5683 35.8384 15.812C35.4972 18.7936 33.5043 21.4234 31.2868 23.3143C27.9789 25.7127 24.4615 26.35 20.4634 25.9148C16.9886 25.2416 14.2477 23.1482 12.1256 20.3882C11.1338 18.8663 10.418 17.2982 10.4524 15.4775C10.7677 15.3513 11.0831 15.2252 11.4081 15.0952C12.0797 15.6807 12.3287 16.1771 12.6027 17.0185C13.5812 19.6877 15.5541 21.8624 18.098 23.1231C20.8629 24.2863 24.0504 24.6045 26.9129 23.5539C30.0316 22.1974 32.2254 20.1348 33.5805 17.0066C33.791 16.4384 33.9814 15.8671 34.1539 15.2863C34.0002 15.2903 33.8464 15.2942 33.688 15.2983C33.1982 15.2863 33.1982 15.2863 33.0071 15.0952C32.8888 14.0728 33.1748 13.5672 33.7597 12.7417C33.9693 12.4413 33.9693 12.4413 34.183 12.1347C34.6709 11.4715 34.6709 11.4715 35.2612 11.3873Z" fill="#478767"/>
<path d="M23.6419 28.8574C24.5048 29.1083 25.1756 29.4417 25.9117 29.9564C26.0965 30.0816 26.2813 30.2068 26.4717 30.3357C26.8913 30.7688 26.8913 30.7688 27.0167 31.3415C26.8452 32.1265 26.525 32.3023 25.8639 32.7399C25.6732 32.8693 25.4825 32.9986 25.286 33.1319C24.543 33.5994 24.1421 33.6735 23.2596 33.6359C23.0685 33.4448 23.0685 33.4448 23.0565 32.8594C23.0605 32.6741 23.0644 32.4888 23.0685 32.2979C22.8245 32.3023 22.5806 32.3068 22.3293 32.3114C22.0102 32.3149 21.6911 32.3184 21.3721 32.3218C21.1307 32.3266 21.1307 32.3266 20.8845 32.3315C20.6535 32.3334 20.6535 32.3334 20.4179 32.3352C20.2757 32.3372 20.1336 32.3392 19.9871 32.3413C19.6279 32.2979 19.6279 32.2979 19.2456 31.9156C19.2098 31.3303 19.2098 31.3303 19.2456 30.7688C19.5418 30.4726 19.8382 30.5362 20.2499 30.5172C20.4947 30.5051 20.4947 30.5051 20.7445 30.4929C20.9161 30.4854 21.0877 30.4779 21.2646 30.4701C21.5231 30.4577 21.5231 30.4577 21.7868 30.4451C22.214 30.4248 22.6412 30.4053 23.0685 30.3865C23.0293 30.2692 22.9901 30.1519 22.9497 30.0311C22.9258 29.8961 22.9019 29.761 22.8773 29.6219C23.2477 29.1919 23.2477 29.1919 23.6419 28.8574Z" fill="#478767"/>
<path d="M22.8765 41.2816C23.0676 41.4727 23.0676 41.4727 23.0796 42.0581C23.0756 42.2434 23.0717 42.4287 23.0676 42.6196C23.2312 42.6267 23.2312 42.6267 23.398 42.6341C23.8892 42.6562 24.3804 42.6797 24.8715 42.7032C25.0432 42.7107 25.2148 42.7182 25.3916 42.726C25.5548 42.734 25.718 42.742 25.8862 42.7502C26.0374 42.7572 26.1885 42.7642 26.3443 42.7715C26.6993 42.8107 26.6993 42.8107 26.8905 43.0018C26.9144 43.5753 26.9144 43.5753 26.8905 44.1487C26.5943 44.4449 26.298 44.3812 25.8862 44.4003C25.723 44.4083 25.5598 44.4163 25.3916 44.4246C25.1342 44.4359 25.1342 44.4359 24.8715 44.4474C24.6992 44.4556 24.5268 44.4639 24.3493 44.4724C23.9221 44.4927 23.4949 44.5122 23.0676 44.531C23.0716 44.7163 23.0755 44.9016 23.0796 45.0925C23.0676 45.6778 23.0676 45.6778 22.8765 45.869C21.8489 45.994 21.2304 45.6557 20.4155 45.0805C20.3022 45.0081 20.1889 44.9356 20.0721 44.861C19.5112 44.4733 19.2663 44.2395 19.1074 43.5686C19.2948 42.7955 19.6168 42.6114 20.2722 42.1775C20.4629 42.0482 20.6536 41.9188 20.8501 41.7856C21.5931 41.3181 21.994 41.244 22.8765 41.2816Z" fill="#478767"/>
<path d="M6.94022 38.1979C7.06677 38.1977 7.19333 38.1976 7.32372 38.1974C7.59173 38.1972 7.85975 38.1976 8.12776 38.1984C8.5393 38.1994 8.9508 38.1984 9.36234 38.1972C9.62218 38.1973 9.88201 38.1975 10.1418 38.1979C10.4989 38.1982 10.4989 38.1982 10.8631 38.1986C11.4082 38.2233 11.4082 38.2233 11.5993 38.4145C11.6232 38.9879 11.6232 38.9879 11.5993 39.5613C11.2393 39.9213 10.6208 39.7774 10.1418 39.7778C10.0153 39.778 9.88873 39.7782 9.75834 39.7784C9.49033 39.7785 9.22231 39.7782 8.9543 39.7774C8.54276 39.7763 8.13126 39.7774 7.71972 39.7786C7.45988 39.7784 7.20005 39.7782 6.94022 39.7778C6.7022 39.7776 6.46419 39.7774 6.21896 39.7772C5.6739 39.7524 5.6739 39.7524 5.48276 39.5613C5.45887 38.9879 5.45887 38.9879 5.48276 38.4145C5.84272 38.0545 6.46128 38.1984 6.94022 38.1979Z" fill="#478767"/>
</svg>
