<svg width="96" height="95" viewBox="0 0 96 95" fill="none" xmlns="http://www.w3.org/2000/svg">
<rect x="13.8069" y="14.7535" width="64.5267" height="64.5267" rx="32.2633" stroke="#478767" stroke-width="1.46831"/>
<circle cx="47.2918" cy="47.9924" r="16.5796" stroke="#478767" stroke-width="2.1393"/>
<g clip-path="url(#clip0_26_3873)">
<path fill-rule="evenodd" clip-rule="evenodd" d="M46.9569 39.2298C46.7046 39.3116 46.5591 39.4571 46.4886 39.6946C46.4489 39.8276 46.442 40.1367 46.442 41.7506C46.442 43.8883 46.4398 43.8611 46.658 44.0793C46.9501 44.3702 47.632 44.3702 47.924 44.0793C48.1423 43.8611 48.14 43.8883 48.14 41.7506C48.14 39.6821 48.1366 39.6458 47.9684 39.4457C47.8274 39.2787 47.6763 39.223 47.3365 39.2139C47.2097 39.2067 47.0826 39.2121 46.9569 39.2298ZM41.3278 41.4755C41.1482 41.5574 40.8834 41.8165 40.7913 42.0006C40.7444 42.0926 40.7188 42.1941 40.7164 42.2974C40.714 42.4007 40.735 42.5032 40.7777 42.5973C40.8618 42.7848 43.503 45.4351 43.711 45.5408C44.0054 45.692 44.3077 45.6181 44.6123 45.3203C44.9123 45.0271 44.9919 44.7089 44.8396 44.4123C44.7339 44.2043 42.0835 41.563 41.896 41.4789C41.8064 41.4401 41.7099 41.4198 41.6122 41.4192C41.5146 41.4187 41.4178 41.4378 41.3278 41.4755ZM52.8065 41.4937C52.6667 41.5585 52.428 41.7824 51.2892 42.9246C50.2425 43.9736 49.9232 44.3122 49.872 44.4236C49.8295 44.516 49.8076 44.6165 49.8078 44.7181C49.808 44.8198 49.8303 44.9202 49.8731 45.0123C49.9527 45.1828 50.2141 45.451 50.3903 45.5431C50.5687 45.6363 50.8335 45.6351 51.0187 45.5408C51.2085 45.4431 53.8339 42.8177 53.9316 42.6279C53.9782 42.5302 54.0026 42.4235 54.0032 42.3152C54.0038 42.207 53.9805 42.0999 53.935 42.0017C53.8092 41.7914 53.6316 41.6169 53.419 41.4949C53.325 41.444 53.2198 41.4173 53.1129 41.4171C53.006 41.4169 52.9007 41.4433 52.8065 41.4937ZM38.9934 47.1876C38.6581 47.2933 38.4922 47.5604 38.4922 47.9911C38.4933 48.4309 38.657 48.6946 38.9922 48.7946C39.1264 48.8344 39.4253 48.8412 41.0493 48.8412C42.7416 48.8412 42.9677 48.8355 43.1064 48.7901C43.2082 48.7566 43.3008 48.6997 43.3766 48.6239C43.4524 48.5481 43.5094 48.4555 43.5428 48.3537C43.6406 48.0525 43.5917 47.6252 43.436 47.4138C43.3736 47.3459 43.3002 47.2891 43.2189 47.2456L43.0632 47.1592L41.0936 47.1524C39.5082 47.1478 39.0979 47.1546 38.9934 47.1876ZM51.5472 47.1717C51.3935 47.214 51.2546 47.2982 51.146 47.4149C50.9903 47.6252 50.9415 48.0525 51.0392 48.3537C51.1051 48.5582 51.271 48.7242 51.4756 48.7901C51.6143 48.8355 51.8404 48.8412 53.5327 48.8412C55.1568 48.8412 55.4557 48.8344 55.5898 48.7946C55.925 48.6946 56.0887 48.4309 56.0898 47.9911C56.0898 47.5536 55.9228 47.291 55.5761 47.1865C55.4591 47.1512 55.092 47.1444 53.5372 47.1467C52.4939 47.149 51.5984 47.1603 51.5472 47.1717ZM43.7144 50.5858C43.5746 50.6505 43.336 50.8744 42.1972 52.0166C41.1505 53.0656 40.8311 53.4043 40.78 53.5157C40.7375 53.608 40.7156 53.7085 40.7158 53.8101C40.716 53.9118 40.7383 54.0122 40.7811 54.1044C40.8607 54.2749 41.1221 54.5431 41.2982 54.6351C41.4766 54.7283 41.7415 54.7272 41.9267 54.6328C42.1165 54.5351 44.7418 51.9098 44.8396 51.72C44.8861 51.6223 44.9106 51.5155 44.9111 51.4073C44.9117 51.299 44.8885 51.192 44.843 51.0938C44.7172 50.8834 44.5395 50.7089 44.327 50.5869C44.2329 50.5361 44.1278 50.5094 44.0209 50.5092C43.914 50.509 43.8087 50.5353 43.7144 50.5858ZM50.4198 50.5676C50.2402 50.6494 49.9754 50.9085 49.8834 51.0926C49.8364 51.1847 49.8108 51.2861 49.8084 51.3894C49.8061 51.4927 49.827 51.5952 49.8697 51.6893C49.9538 51.8768 52.5951 54.5272 52.8031 54.6328C53.0974 54.784 53.3997 54.7101 53.7043 54.4124C54.0043 54.1191 54.0839 53.8009 53.9316 53.5043C53.8259 53.2963 51.1756 50.6551 50.9881 50.571C50.8984 50.5322 50.8019 50.5119 50.7043 50.5113C50.6066 50.5107 50.5099 50.5298 50.4198 50.5676ZM47.0012 51.7166C46.8477 51.7598 46.7089 51.8443 46.6 51.9609C46.4432 52.1723 46.442 52.1871 46.442 54.2305C46.442 55.858 46.4489 56.1569 46.4886 56.291C46.5886 56.6263 46.8535 56.7899 47.291 56.7899C47.7286 56.7899 47.9934 56.6263 48.0934 56.291C48.1638 56.0501 48.1627 52.3962 48.0911 52.186C48.0691 52.1012 48.0288 52.0223 47.973 51.9547C47.9173 51.8872 47.8474 51.8327 47.7683 51.795C47.6433 51.7268 47.5706 51.7098 47.3558 51.7018C47.2374 51.6947 47.1186 51.6996 47.0012 51.7166Z" fill="#478767"/>
</g>
<path d="M29.2187 17.2489C34.3654 14.2727 40.1951 12.6771 46.1425 12.6169C52.0899 12.5568 57.9533 14.034 63.1642 16.9055C68.3752 19.7769 72.7568 23.9451 75.8843 29.006C79.0119 34.0669 80.7792 39.8487 81.0149 45.7909C81.2507 51.7331 79.9469 57.6341 77.2299 62.9217C74.513 68.2093 70.4751 72.7042 65.5077 75.9706C60.5403 79.2369 54.8119 81.1639 48.878 81.5647C42.9441 81.9655 37.006 80.8265 31.6393 78.2582" stroke="#478767" stroke-width="3.67078"/>
<defs>
<clipPath id="clip0_26_3873">
<rect width="18.1841" height="18.1841" fill="white" transform="translate(38.1992 38.9003)"/>
</clipPath>
</defs>
</svg>
