<svg width="96" height="95" viewBox="0 0 96 95" fill="none" xmlns="http://www.w3.org/2000/svg">
<rect x="14.0158" y="14.7535" width="64.5267" height="64.5267" rx="32.2633" stroke="#478767" stroke-width="1.46831"/>
<path d="M29.4277 17.2489C34.5744 14.2727 40.404 12.6771 46.3515 12.6169C52.2989 12.5568 58.1623 14.034 63.3732 16.9055C68.5841 19.7769 72.9658 23.9451 76.0933 29.006C79.2208 34.0669 80.9882 39.8487 81.2239 45.7909C81.4597 51.7331 80.1559 57.6341 77.4389 62.9217C74.722 68.2093 70.6841 72.7042 65.7167 75.9706C60.7493 79.2369 55.0209 81.1639 49.087 81.5647C43.1531 81.9655 37.2149 80.8265 31.8483 78.2582" stroke="#478767" stroke-width="3.67078"/>
<path d="M60.1371 35.3558C56.9275 32.1463 52.5744 30.3431 48.0353 30.3431C43.4963 30.3431 39.1432 32.1463 35.9336 35.3558C32.724 38.5654 30.9209 42.9185 30.9209 47.4576C30.9209 51.9966 32.724 56.3497 35.9336 59.5593C39.1432 62.7689 43.4963 64.572 48.0353 64.572C52.5744 64.572 56.9275 62.7689 60.1371 59.5593C63.3466 56.3497 65.1498 51.9966 65.1498 47.4576C65.1498 42.9185 63.3466 38.5654 60.1371 35.3558ZM59.8187 38.4603C61.677 40.8827 62.738 43.822 62.8552 46.8728L58.1388 43.3236L59.8187 38.4603ZM52.3163 33.2558L48.1533 36.3485L43.7945 33.2439C46.5751 32.4148 49.5378 32.419 52.3161 33.2558H52.3163ZM38.109 43.3249L33.214 46.9106C33.3247 43.827 34.3994 40.8557 36.2869 38.4147L38.109 43.3249ZM35.9269 56.0148H41.5864L43.3717 61.5383C40.3658 60.5357 37.758 58.6008 35.9269 56.0148ZM45.9664 62.1451L43.2469 53.7328H34.5978C33.9881 52.433 33.5719 51.051 33.3624 49.6306L40.8476 44.1469L38.0203 36.5268C39.0006 35.6273 40.097 34.8631 41.2802 34.2546L48.1817 39.1703L54.795 34.257C55.9832 34.8686 57.0838 35.6373 58.067 36.5424L55.4397 44.1488L62.7098 49.6198C62.5009 51.0439 62.0842 52.4297 61.4728 53.7328H53.1348L50.1366 62.1403C48.7536 62.3381 47.3497 62.3397 45.9663 62.1449L45.9664 62.1451ZM52.7841 61.5104L54.7438 56.0148H60.1438C58.3304 58.576 55.7547 60.4993 52.7839 61.5105L52.7841 61.5104Z" fill="#478767"/>
<path d="M54.5129 45.1347L48.1695 40.5261L41.8262 45.1347L44.249 52.5918H52.0899L54.5129 45.1347ZM50.432 50.3098H45.9069L44.5086 46.0062L48.1695 43.3464L51.8303 46.0062L50.432 50.3098Z" fill="#478767"/>
</svg>
