<svg width="18" height="18" viewBox="0 0 18 18" fill="none" xmlns="http://www.w3.org/2000/svg">
<path d="M17.9992 8.87947C17.9309 3.90981 13.8491 -0.0635112 8.87947 0.000769066C3.90981 0.0650493 -0.0635111 4.15086 0.000769066 9.12053C0.0690668 14.0902 4.15086 18.0635 9.12052 17.9992C14.0902 17.9309 18.0675 13.8491 17.9992 8.87947ZM9 3.21076C9.7111 3.21076 10.2856 3.78527 10.2856 4.49637C10.2856 5.20747 9.7111 5.78197 9 5.78197C8.2889 5.78197 7.71439 5.20747 7.71439 4.49637C7.71439 3.78527 8.2889 3.21076 9 3.21076ZM10.7677 14.5843H7.23229V14.1424H8.11615V7.7144H7.23229V7.23229H9.88385V14.1424H10.7677V14.5843Z" fill="white"/>
</svg>
