<svg width="21" height="21" viewBox="0 0 21 21" fill="none" xmlns="http://www.w3.org/2000/svg">
<path d="M7.63633 0.878906L6.79151 7.62714H8.64578L10.773 1.27094L7.63633 0.878906ZM11.6092 1.22584L9.46894 7.62714L15.9546 7.63147L17.4406 3.18166L11.6092 1.22584ZM6.75252 1.68725L3.63752 2.02725L4.24839 7.62714H6.01168L6.75252 1.68725ZM1.72692 6.32615C1.2287 6.32615 0.895967 6.70777 0.805419 7.07205C0.760362 7.25419 0.785924 7.40163 0.837046 7.48403C0.887735 7.56209 0.95792 7.62714 1.20703 7.62714H3.46422L3.32125 6.32615H1.72692ZM17.211 6.32615L16.7777 7.62714H18.8356C18.723 7.4103 18.6753 7.18046 18.7056 6.95062C18.736 6.72512 18.8226 6.5213 18.9353 6.32615H17.211ZM0.730469 8.40773V19.1149C0.730469 19.336 0.851343 19.5962 1.04977 19.7957C1.24863 19.9952 1.5103 20.1166 1.72692 20.1166L18.3634 20.121C18.58 20.121 18.8399 19.9995 19.0392 19.8001C19.2385 19.6006 19.3598 19.3404 19.3598 19.1192V16.0402H15.5906C13.6844 16.0402 13.6844 12.4842 15.5906 12.4842H19.3598V8.41207L0.730469 8.40773ZM15.5906 13.2648C14.7242 13.2648 14.7242 15.2596 15.5906 15.2596H16.5568C16.1668 15.0948 15.8939 14.7089 15.8939 14.2622C15.8939 13.8155 16.1668 13.4295 16.5568 13.2648H15.5906ZM17.3973 13.2648C17.7872 13.4295 18.0601 13.8155 18.0601 14.2622C18.0601 14.7089 17.7872 15.0948 17.3973 15.2596H20.053V13.2648H17.3973ZM16.977 13.9586C16.8037 13.9586 16.6737 14.0887 16.6737 14.2622C16.6737 14.4356 16.8037 14.5657 16.977 14.5657C17.1503 14.5657 17.2803 14.4356 17.2803 14.2622C17.2803 14.0887 17.1503 13.9586 16.977 13.9586Z" fill="white"/>
</svg>
