<svg width="35" height="46" viewBox="0 0 35 46" fill="none" xmlns="http://www.w3.org/2000/svg">
<path d="M34.2051 27.1282C34.2051 29.0825 32.6209 30.6667 30.6666 30.6667H26.5384C25.5613 30.6667 24.7692 29.8746 24.7692 28.8975C24.7692 27.9203 25.5613 27.1282 26.5384 27.1282H34.2051Z" fill="#478767"/>
<path d="M34.2051 27.1282H30.6666V3.05176e-05H34.2051V27.1282Z" fill="#478767"/>
<path d="M0 27.1282C0 29.0825 1.58422 30.6667 3.53846 30.6667H7.66666C8.64378 30.6667 9.4359 29.8746 9.4359 28.8975C9.4359 27.9203 8.64379 27.1282 7.66667 27.1282H0Z" fill="#478767"/>
<path d="M0 27.1282H3.53846V3.05176e-05H0V27.1282Z" fill="#478767"/>
<path d="M18.3729 45.5919C18.1115 45.8532 17.757 46 17.3874 46C17.0178 46 16.6633 45.8532 16.4019 45.5919L8.03815 37.2282C7.78423 36.9653 7.64372 36.6131 7.6469 36.2476C7.65008 35.8822 7.79668 35.5325 8.05513 35.2741C8.31358 35.0156 8.6632 34.869 9.02869 34.8659C9.39418 34.8627 9.74629 35.0032 10.0092 35.2571L15.9934 41.2413V16.7273C15.9934 16.3576 16.1403 16.003 16.4017 15.7416C16.6631 15.4802 17.0177 15.3333 17.3874 15.3333C17.7571 15.3333 18.1116 15.4802 18.3731 15.7416C18.6345 16.003 18.7813 16.3576 18.7813 16.7273V41.2413L24.7656 35.2571C25.0285 35.0032 25.3806 34.8627 25.7461 34.8659C26.1116 34.869 26.4612 35.0156 26.7196 35.2741C26.9781 35.5325 27.1247 35.8822 27.1279 36.2476C27.1311 36.6131 26.9905 36.9653 26.7366 37.2282L18.3729 45.5919Z" fill="#478767"/>
</svg>
