<svg width="19" height="20" viewBox="0 0 19 20" fill="none" xmlns="http://www.w3.org/2000/svg">
<path d="M15.0503 5.08008V7.62045C15.0503 8.96795 14.5623 10.2603 13.6938 11.2131C12.8253 12.1659 11.6474 12.7012 10.4191 12.7012H9.06222L7.01758 14.9456C7.34176 15.1349 7.71109 15.2416 8.10358 15.2416H10.4191L13.8925 19.0521V15.2416H16.208C16.8222 15.2416 17.4111 14.9739 17.8454 14.4975C18.2796 14.0211 18.5236 13.3749 18.5236 12.7012V7.62045C18.5236 6.9467 18.2796 6.30055 17.8454 5.82414C17.4111 5.34772 16.8222 5.08008 16.208 5.08008H15.0503Z" fill="#2C2C2C"/>
<path d="M0 2.54037C0 1.86662 0.24396 1.22047 0.678212 0.744057C1.11246 0.267645 1.70144 0 2.31556 0H10.42C11.0341 0 11.6231 0.267645 12.0574 0.744057C12.4916 1.22047 12.7356 1.86662 12.7356 2.54037V7.62111C12.7356 8.29486 12.4916 8.94101 12.0574 9.41743C11.6231 9.89384 11.0341 10.1615 10.42 10.1615H8.10446L4.63112 13.972V10.1615H2.31556C1.70144 10.1615 1.11246 9.89384 0.678212 9.41743C0.24396 8.94101 0 8.29486 0 7.62111V2.54037Z" fill="#696969"/>
</svg>
