<svg width="22" height="22" viewBox="0 0 22 22" fill="none" xmlns="http://www.w3.org/2000/svg">
<path d="M1.30433 8.49057L8.44433 1.40007C9.00926 0.840375 9.77159 0.525208 10.5668 0.522573L15.4628 0.500073C15.8608 0.497295 16.2554 0.573461 16.6238 0.724166C16.9921 0.874871 17.327 1.09712 17.6089 1.37807C17.8908 1.65901 18.1142 1.99306 18.2662 2.3609C18.4182 2.72875 18.4957 3.12307 18.4943 3.52107L18.4703 7.08507C17.7857 6.6968 17.0113 6.49486 16.2242 6.49943C15.4372 6.504 14.6651 6.7149 13.9851 7.11109C13.305 7.50728 12.7408 8.07491 12.3486 8.75731C11.9565 9.43971 11.7502 10.213 11.7503 11.0001V11.0961C11.1065 11.2623 10.5361 11.6378 10.1288 12.1634C9.72157 12.6891 9.50049 13.3351 9.50033 14.0001V18.3411C8.95416 18.5529 8.35829 18.6019 7.78484 18.4821C7.2114 18.3623 6.68499 18.0789 6.26933 17.6661L1.30433 12.7341C1.02382 12.4565 0.801142 12.1261 0.649169 11.7619C0.497195 11.3977 0.418945 11.007 0.418945 10.6123C0.418945 10.2177 0.497195 9.82698 0.649169 9.46279C0.801142 9.0986 1.02382 8.76815 1.30433 8.49057ZM12.8963 5.98707C13.1138 6.2027 13.4076 6.32369 13.7138 6.32369C14.0201 6.32369 14.3139 6.2027 14.5313 5.98707C14.9813 5.54007 14.9813 4.81257 14.5313 4.36407C14.3139 4.14845 14.0201 4.02746 13.7138 4.02746C13.4076 4.02746 13.1138 4.14845 12.8963 4.36407C12.4463 4.81407 12.4463 5.54007 12.8963 5.98707ZM13.2503 11.0001V12.5001H12.5003C12.1025 12.5001 11.721 12.6581 11.4397 12.9394C11.1584 13.2207 11.0003 13.6022 11.0003 14.0001V20.0001C11.0003 20.3979 11.1584 20.7794 11.4397 21.0607C11.721 21.342 12.1025 21.5001 12.5003 21.5001H20.0003C20.3981 21.5001 20.7797 21.342 21.061 21.0607C21.3423 20.7794 21.5003 20.3979 21.5003 20.0001V14.0001C21.5003 13.6022 21.3423 13.2207 21.061 12.9394C20.7797 12.6581 20.3981 12.5001 20.0003 12.5001H19.2503V11.0001C19.2503 10.2044 18.9343 9.44136 18.3716 8.87875C17.809 8.31614 17.046 8.00007 16.2503 8.00007C15.4547 8.00007 14.6916 8.31614 14.129 8.87875C13.5664 9.44136 13.2503 10.2044 13.2503 11.0001ZM14.7503 12.5001V11.0001C14.7503 10.6022 14.9084 10.2207 15.1897 9.93941C15.471 9.65811 15.8525 9.50007 16.2503 9.50007C16.6481 9.50007 17.0297 9.65811 17.311 9.93941C17.5923 10.2207 17.7503 10.6022 17.7503 11.0001V12.5001H14.7503ZM16.2503 15.8751C16.5487 15.8751 16.8348 15.9936 17.0458 16.2046C17.2568 16.4156 17.3753 16.7017 17.3753 17.0001C17.3753 17.2984 17.2568 17.5846 17.0458 17.7956C16.8348 18.0065 16.5487 18.1251 16.2503 18.1251C15.952 18.1251 15.6658 18.0065 15.4548 17.7956C15.2439 17.5846 15.1253 17.2984 15.1253 17.0001C15.1253 16.7017 15.2439 16.4156 15.4548 16.2046C15.6658 15.9936 15.952 15.8751 16.2503 15.8751Z" fill="#696969"/>
</svg>
