<svg width="25" height="25" viewBox="0 0 25 25" fill="none" xmlns="http://www.w3.org/2000/svg">
<path fill-rule="evenodd" clip-rule="evenodd" d="M13.3169 0.363738C13.084 0.130837 12.768 0 12.4386 0C12.1092 0 11.7932 0.130837 11.5603 0.363738L2.86394 9.06008L0.37927 11.5447C0.260614 11.6593 0.165971 11.7964 0.100861 11.948C0.0357517 12.0996 0.00148033 12.2626 4.69065e-05 12.4275C-0.00138652 12.5925 0.0300467 12.7561 0.0925123 12.9088C0.154978 13.0614 0.247225 13.2002 0.363871 13.3168C0.480517 13.4334 0.619226 13.5257 0.771905 13.5882C0.924583 13.6506 1.08817 13.6821 1.25313 13.6806C1.41809 13.6792 1.5811 13.6449 1.73267 13.5798C1.88424 13.5147 2.02133 13.4201 2.13593 13.3014L2.49993 12.9374V21.1194C2.49993 22.1079 2.8926 23.0559 3.59155 23.7548C4.2905 24.4538 5.23847 24.8464 6.22694 24.8464H18.6503C19.6387 24.8464 20.5867 24.4538 21.2857 23.7548C21.9846 23.0559 22.3773 22.1079 22.3773 21.1194V12.9374L22.7413 13.3014C22.9756 13.5277 23.2894 13.6529 23.6151 13.6501C23.9409 13.6473 24.2525 13.5166 24.4828 13.2863C24.7131 13.0559 24.8438 12.7443 24.8466 12.4186C24.8495 12.0929 24.7242 11.7791 24.4979 11.5447L13.3169 0.363738Z" fill="white"/>
</svg>
