<svg width="48" height="48" viewBox="0 0 48 48" fill="none" xmlns="http://www.w3.org/2000/svg">
<path d="M24 48C38.3594 48 50 36.3594 50 22C50 7.6406 38.3594 -4 24 -4C9.6406 -4 -2 7.6406 -2 22C-2 36.3594 9.6406 48 24 48Z" fill="white"/>
<path d="M23.7575 46.0883C36.9809 46.0883 47.7006 35.3686 47.7006 22.1452C47.7006 8.92183 36.9809 -1.79785 23.7575 -1.79785C10.5341 -1.79785 -0.185547 8.92183 -0.185547 22.1452C-0.185547 35.3686 10.5341 46.0883 23.7575 46.0883Z" fill="#478767"/>
<path d="M11.0331 27.4345L19.0982 31.9914V8.12425L32.1527 15.7606L22.5131 21.1148L32.1527 29.3655L5.25586 39.2331L11.3024 42.8609L17.641 46.0606L46.9722 31.9914L39.7768 23.8358L36.7973 21.1148L48.6996 15.7606L40.3826 10.0834L19.3362 -2.18555L11.0331 1.26897V27.4345Z" fill="white"/>
</svg>
