<svg width="26" height="26" viewBox="0 0 26 26" fill="none" xmlns="http://www.w3.org/2000/svg">
<path opacity="0.4" d="M20.9518 15.6974L19.8684 13.8991C19.6409 13.4983 19.4351 12.7399 19.4351 12.2958V9.55493C19.4351 6.02327 16.5643 3.1416 13.0218 3.1416C9.47927 3.1416 6.60843 6.02327 6.60843 9.55493V12.2958C6.60843 12.7399 6.4026 13.4983 6.1751 13.8883L5.08093 15.6974C4.6476 16.4233 4.5501 17.2249 4.82093 17.9616C5.08093 18.6874 5.69843 19.2508 6.5001 19.5216C8.60177 20.2366 10.8118 20.5833 13.0218 20.5833C15.2318 20.5833 17.4418 20.2366 19.5434 19.5324C20.3018 19.2833 20.8868 18.7091 21.1684 17.9616C21.4501 17.2141 21.3743 16.3908 20.9518 15.6974Z" fill="#696969"/>
<path d="M15.437 3.59699C14.6895 3.30449 13.877 3.14199 13.0212 3.14199C12.1762 3.14199 11.3637 3.29366 10.6162 3.59699C11.082 2.71949 12.0029 2.16699 13.0212 2.16699C14.0504 2.16699 14.9604 2.71949 15.437 3.59699Z" fill="#696969"/>
<path d="M16.0661 21.6778C15.6111 22.9345 14.4086 23.8337 13.0003 23.8337C12.1445 23.8337 11.2995 23.487 10.7036 22.8695C10.357 22.5445 10.097 22.1112 9.94531 21.667C10.0861 21.6887 10.227 21.6995 10.3786 21.7212C10.6278 21.7537 10.8878 21.7862 11.1478 21.8078C11.7653 21.862 12.3936 21.8945 13.022 21.8945C13.6395 21.8945 14.257 21.862 14.8636 21.8078C15.0911 21.7862 15.3186 21.7753 15.5353 21.7428C15.7086 21.7212 15.882 21.6995 16.0661 21.6778Z" fill="#696969"/>
<circle cx="16.5" cy="4.5" r="2.5" fill="#696969"/>
</svg>
