<svg width="7" height="13" viewBox="0 0 7 13" fill="none" xmlns="http://www.w3.org/2000/svg">
<path d="M6.40921 3.28765V4.14993C6.40921 4.22883 6.3878 4.29364 6.34497 4.34436C6.30215 4.39509 6.24743 4.42045 6.18082 4.42045H4.98177C4.87233 5.232 4.56543 5.89139 4.06107 6.39861C3.55671 6.90584 2.90008 7.2158 2.0912 7.32852C2.88581 8.33169 3.9778 9.84209 5.36718 11.8597C5.43379 11.9499 5.44331 12.0457 5.39572 12.1471C5.35766 12.2486 5.28867 12.2993 5.18875 12.2993H3.79699C3.72086 12.2993 3.66138 12.2655 3.61856 12.1979C2.16257 10.1295 0.977797 8.52049 0.0642348 7.37079C0.0214116 7.32007 0 7.25807 0 7.18481V6.11119C0 6.03792 0.0226011 5.97452 0.0678034 5.92098C0.113006 5.86744 0.166535 5.84067 0.22839 5.84067H1.02776C1.65583 5.84067 2.16138 5.7195 2.54441 5.47716C2.92744 5.23482 3.1713 4.88258 3.27598 4.42045H0.22839C0.161777 4.42045 0.107058 4.39509 0.0642348 4.34436C0.0214116 4.29364 0 4.22883 0 4.14993V3.28765C0 3.20875 0.0214116 3.14394 0.0642348 3.09322C0.107058 3.04249 0.161777 3.01713 0.22839 3.01713H3.17606C2.90484 2.38029 2.26725 2.06186 1.26328 2.06186H0.22839C0.166535 2.06186 0.113006 2.03509 0.0678034 1.98155C0.0226011 1.92801 0 1.86461 0 1.79135V0.667003C0 0.588102 0.0214116 0.52329 0.0642348 0.472568C0.107058 0.421845 0.161777 0.396484 0.22839 0.396484H6.16654C6.23316 0.396484 6.28788 0.421845 6.3307 0.472568C6.37352 0.52329 6.39493 0.588102 6.39493 0.667003V1.52928C6.39493 1.60818 6.37352 1.67299 6.3307 1.72372C6.28788 1.77444 6.23316 1.7998 6.16654 1.7998H4.50357C4.72721 2.14358 4.87947 2.54936 4.96036 3.01713H6.18082C6.24743 3.01713 6.30215 3.04249 6.34497 3.09322C6.3878 3.14394 6.40921 3.20875 6.40921 3.28765Z" fill="#3F4E66"/>
</svg>
