<svg width="22" height="34" viewBox="0 0 22 34" fill="none" xmlns="http://www.w3.org/2000/svg">
<path d="M22 8.25852V10.7216C22 10.947 21.9265 11.1321 21.7795 11.277C21.6325 11.4219 21.4447 11.4943 21.216 11.4943H17.1002C16.7246 13.8125 15.6711 15.696 13.9399 17.1449C12.2086 18.5938 9.95471 19.4792 7.17817 19.8011C9.90572 22.6667 13.654 26.9811 18.4232 32.7443C18.6518 33.0019 18.6845 33.2756 18.5212 33.5653C18.3905 33.8551 18.1537 34 17.8107 34H13.0334C12.7721 34 12.5679 33.9034 12.4209 33.7102C7.42316 27.8021 3.35635 23.206 0.22049 19.9219C0.0734967 19.777 0 19.5999 0 19.3906V16.3239C0 16.1146 0.0775798 15.9335 0.232739 15.7805C0.387899 15.6276 0.571641 15.5511 0.783964 15.5511H3.52784C5.68374 15.5511 7.41908 15.205 8.73385 14.5128C10.0486 13.8205 10.8857 12.8144 11.245 11.4943H0.783964C0.555308 11.4943 0.367483 11.4219 0.22049 11.277C0.0734967 11.1321 0 10.947 0 10.7216V8.25852C0 8.03314 0.0734967 7.84801 0.22049 7.70312C0.367483 7.55824 0.555308 7.4858 0.783964 7.4858H10.902C9.97105 5.66667 7.78248 4.7571 4.3363 4.7571H0.783964C0.571641 4.7571 0.387899 4.68063 0.232739 4.5277C0.0775798 4.37476 0 4.19366 0 3.98437V0.772727C0 0.547348 0.0734967 0.362216 0.22049 0.21733C0.367483 0.0724432 0.555308 0 0.783964 0H21.167C21.3957 0 21.5835 0.0724432 21.7305 0.21733C21.8775 0.362216 21.951 0.547348 21.951 0.772727V3.2358C21.951 3.46117 21.8775 3.64631 21.7305 3.79119C21.5835 3.93608 21.3957 4.00852 21.167 4.00852H15.4588C16.2264 4.99053 16.7491 6.14962 17.0267 7.4858H21.216C21.4447 7.4858 21.6325 7.55824 21.7795 7.70312C21.9265 7.84801 22 8.03314 22 8.25852Z" fill="#478767"/>
</svg>
