<svg width="18" height="18" viewBox="0 0 18 18" fill="none" xmlns="http://www.w3.org/2000/svg">
<path d="M8.99967 0.333008C10.1489 0.333008 11.2511 0.789554 12.0638 1.60221C12.8765 2.41487 13.333 3.51707 13.333 4.66634C13.333 5.81561 12.8765 6.91781 12.0638 7.73047C11.2511 8.54313 10.1489 8.99967 8.99967 8.99967C7.8504 8.99967 6.7482 8.54313 5.93554 7.73047C5.12289 6.91781 4.66634 5.81561 4.66634 4.66634C4.66634 3.51707 5.12289 2.41487 5.93554 1.60221C6.7482 0.789554 7.8504 0.333008 8.99967 0.333008ZM8.99967 11.1663C13.788 11.1663 17.6663 13.1055 17.6663 15.4997V17.6663H0.333008V15.4997C0.333008 13.1055 4.21134 11.1663 8.99967 11.1663Z" fill="#696969"/>
</svg>
